{
.appVersion = "3257";
.formatVersion = 3;
DisplayStrings = (
" ABCDEFGHIJKLMNOPQRSTUVWXYZ",
"núme/_r.base ro"
);
axes = (
{
name = Weight;
tag = wght;
}
);
classes = (
{
code = "a
aacute
acircumflex
adieresis
agrave
atilde
aring
abreve
amacron
b
c
d
e
eacute
ecircumflex
edieresis
egrave
etilde
f
g
h
i
iacute
icircumflex
idieresis
igrave
itilde
j
jacute
k
l
m
n
o
oacute
ocircumflex
odieresis
ograve
otilde
p
q
r
s
t
u
uacute
ucircumflex
udieresis
ugrave
utilde
v
w
wacute
wcircumflex
wdieresis
wgrave
x
y
yacute
ycircumflex
ydieresis
ygrave
ytilde
z
";
name = lowcase;
notes = "a
aacute
agrave
b
c
d
e
eacute
egrave
f
g
h
i
iacute
igrave
j
k
l
m
n
o
oacute
ograve
p
q
r
s
t
u
uacute
ugrave
v
w
x
y
z
";
},
{
code = "a.left.b
aacute.left.b
acircumflex.left.b
adieresis.left.b
agrave.left.b
atilde.left.b
aring.left.b
abreve.left.b
amacron.left.b
b.left.b
c.left.b
d.left.b
e.left.b
eacute.left.b
ecircumflex.left.b
edieresis.left.b
egrave.left.b
etilde.left.b
f.left.b
g.left.b
h.left.b
i.left.b
iacute.left.b
icircumflex.left.b
idieresis.left.b
igrave.left.b
itilde.left.b
j.left.b
jacute.left.b
k.left.b
l.left.b
m.left.b
n.left.b
o.left.b
oacute.left.b
ocircumflex.left.b
odieresis.left.b
ograve.left.b
otilde.left.b
p.left.b
q.left.b
r.left.b
s.left.b
t.left.b
u.left.b
uacute.left.b
ucircumflex.left.b
udieresis.left.b
ugrave.left.b
utilde.left.b
v.left.b
w.left.b
wacute.left.b
wcircumflex.left.b
wdieresis.left.b
wgrave.left.b
x.left.b
y.left.b
yacute.left.b
ycircumflex.left.b
ydieresis.left.b
ygrave.left.b
ytilde.left.b
z.left.b
";
name = lowcase.left.b;
},
{
code = "a.left.o
aacute.left.o
acircumflex.left.o
adieresis.left.o
agrave.left.o
atilde.left.o
aring.left.o
abreve.left.o
amacron.left.o
b.left.o
c.left.o
d.left.o
e.left.o
eacute.left.o
ecircumflex.left.o
edieresis.left.o
egrave.left.o
etilde.left.o
f.left.o
g.left.o
h.left.o
i.left.o
iacute.left.o
icircumflex.left.o
idieresis.left.o
igrave.left.o
itilde.left.o
j.left.o
jacute.left.o
k.left.o
l.left.o
m.left.o
n.left.o

glyphs = (
{
color = 0;
glyphname = A;
kernLeft = A;
kernRight = A;
lastChange = "2024-04-11 12:58:34 +0000";
layers = (
{
anchors = (
{
name = bottom;
pos = (377,0);
},
{
name = ogonek;
pos = (616,-5);
},
{
name = top;
pos = (377,670);
}
);
background = {
shapes = (
{
closed = 0;
nodes = (
(497,0,l),
(532,700,l)
);
}
);
};
layerId = "6F9C6BB4-2DCF-443B-A55D-9CE049090094";
shapes = (
{
closed = 1;
nodes = (
(400,705,l),
(371,706,l),
(612,-24,l),
(628,-34,o),
(644,-34,o),
(660,-24,c),
(389,792,l),
(448,749,l),
(324,749,l),
(384,797,l),
(89,-24,l),
(106,-34,o),
(122,-34,o),
(139,-24,c)
);
},
{
closed = 1;
nodes = (
(220,263,l),
(220,215,l),
(538,215,l),
(538,263,l)
);
}
);
width = 749;
}
);
unicode = 65;
},
{
glyphname = AE;
kernLeft = A;
kernRight = E;
lastChange = "2024-04-11 12:56:10 +0000";
layers = (
{
anchors = (
{
name = bottom;
pos = (275,0);
},
{
name = ogonek;
pos = (533,10);
},
{
name = top;
pos = (275,650);
},
{
name = topleft;
pos = (566,700);
}
);
layerId = "6F9C6BB4-2DCF-443B-A55D-9CE049090094";
shapes = (
{
attr = {
identifier = ID0x7fadab0a7ef0;
};
closed = 1;
nodes = (
(456,691,l),
(435,676,l),
(521,676,l),
(521,724,l),
(435,724,l),
(419,724,l),
(89,-24,l),
(104,-34,o),
(121,-34,o),
(138,-24,c)
);
},
{
attr = {
identifier = ID0x7fadab0a7ef0;
};
closed = 1;
nodes = (
(215,253,l),
(215,203,l),
(780,369,l),
(790,387,o),
(790,403,o),
(780,419,c)
);
},
{
attr = {
identifier = ID0x7fadab051540;
};
closed = 1;
nodes = (
(498,724,l),
(496,-24,l),
(813,-24,l),
(823,-8,o),
(823,8,o),
(813,24,c),
(542,24,l),
(544,721,l),
(499,676,l),
(804,676,l),
(814,692,o),
(814,708,o),
(804,724,c)
);
}
);
width = 911;
}
);
metricLeft = A;
metricRight = E;
unicode = 198;
},
{
color = 0;
glyphname = B;
kernLeft = H;
kernRight = B;
lastChange = "2024-04-11 12:56:19 +0000";
layers = (
{
background = {
shapes = (
{
closed = 0;
nodes = (
(177,0,l),
(124,0,o),
(137,64,o),
(145,152,cs),
(195,700,l)
);
},
{
closed = 0;
nodes = (
(78,700,l),
(138,700,o),
(268,700,o),
(317,700,cs),
(366,700,o),
(458,696,o),
(458,567,cs),
(458,406,o),
(309,358,o),
(244,358,c),
(331,360,ls),
(382,360,o),
(478,355,o),
(478,220,cs),
(478,51,o),
(322,1,o),
(254,1,cs)
);
}
);
};
layerId = "6F9C6BB4-2DCF-443B-A55D-9CE049090094";
shapes = (
{
closed = 1;
nodes = (
(339,354,o),
(488,414,o),
(488,596,cs),
(488,750,o),
(370,749,o),
(317,749,cs),
(84,749,l),
(130,794,l),
(114,-69,l),
(70,-24,l),
(178,-24,ls),
(345,-24,o),
(509,35,o),
(509,231,cs),
(509,391,o),
(390,403,o),
(152,403,c),
(152,355,l),
(384,355,o),
(463,347,o),
(463,231,cs),
(463,73,o),
(333,24,o),
(178,24,cs),
(116,24,l),
(160,-21,l),
(176,746,l),
(130,701,l),
(317,701,ls),
(369,701,o),
(442,704,o),
(442,596,cs),
(442,452,o),
(325,402,o),
(152,402,c),
(152,354,l)
);
}
);
width = 605;
}
);
unicode = 66;
},
{
color = 0;
glyphname = C;
kernLeft = O;
kernRight = C;
lastChange = "2024-04-11 12:58:34 +0000";
layers = (
{
anchors = (
{
name = bottom;
pos = (332,0);
},
{
name = top;
pos = (332,720);
}
);
background = {
shapes = (
{
closed = 0;
nodes = (
(522,681,l),
(475,694,o),
(413,700,o),
(355,700,cs),
(217,700,o),
(142,415,o),
(153,213,cs),
(160,84,o),
(217,0,o),
(299,0,cs),
(387,0,o),
(529,152,o),
(583,230,c)
);
}
);
};
layerId = "6F9C6BB4-2DCF-443B-A55D-9CE049090094";
shapes = (
{
closed = 1;
nodes = (
(478,35,o),
(407,10,o),
(349,10,cs),
(219,10,o),
(147,146,o),
(147,336,cs),
(147,597,o),
(220,710,o),
(399,710,cs),
(446,710,o),
(497,703,o),
(558,688,c),
(572,699,o),
(576,715,o),
(570,734,c),
(505,751,o),
(448,758,o),
(399,758,cs),
(190,758,o),
(101,621,o),
(101,336,cs),
(101,128,o),
(186,-38,o),
(349,-38,cs),
(417,-38,o),
(496,-9,o),
(589,53,c),
(590,70,o),
(582,84,o),
(563,93,c)
);
}
);
width = 679;
}
);
unicode = 67;
},
{
color = 0;
glyphname = D;
kernLeft = H;
kernRight = O;
lastChange = "2024-04-11 12:56:19 +0000";
layers = (
{
background = {
shapes = (
{
closed = 0;
nodes = (
(78,700,l),
(138,700,o),
(268,700,o),
(317,700,cs),
(366,700,o),
(458,696,o),
(458,571,c)
);
},
{
closed = 0;
nodes = (
(478,220,l),
(478,51,o),
(316,0,o),
(162,0,cs),
(135,0,o),
(132,12,o),
(134,39,cs),
(195,700,l)
);
},
{
closed = 0;
nodes = (
(222,20,l),
(276,7,o),
(323,1,o),
(361,1,cs),
(455,1,o),
(530,141,o),
(564,267,cs),
(613,453,o),
(604,701,o),
(462,701,cs),
(404,701,o),
(340,658,o),
(275,596,c)
);
}
);
};
layerId = "6F9C6BB4-2DCF-443B-A55D-9CE049090094";
shapes = (
{
closed = 1;
nodes = (
(315,700,ls),
(507,700,o),
(590,586,o),
(590,448,cs),
(590,183,o),
(373,8,o),
(130,25,c),
(160,-28,l),
(175,745,l),
(129,700,l)
);
},
{
closed = 1;
nodes = (
(114,-76,l),
(70,-24,l),
(153,-24,ls),
(450,-24,o),
(636,168,o),
(636,448,cs),
(636,608,o),
(537,748,o),
(315,748,cs),
(83,748,l),
(129,793,l)
);
}
);
width = 733;
}
);
unicode = 68;
},
{
glyphname = Eth;
kernLeft = Eth;
kernRight = O;
lastChange = "2024-04-11 12:56:10 +0000";
layers = (
{
layerId = "6F9C6BB4-2DCF-443B-A55D-9CE049090094";
shapes = (
{
ref = D;
},
{
closed = 1;
nodes = (
(-11,385,l),
(-21,369,o),
(-21,353,o),
(-11,337,c),
(419,337,l),
(429,353,o),
(429,369,o),
(419,385,c)
);
}
);
width = 733;
}
);
metricRight = D;
unicode = 208;
},
{
color = 0;
glyphname = E;
kernLeft = H;
kernRight = E;
lastChange = "2024-04-11 12:58:34 +0000";
layers = (
{
anchors = (
{
name = bottom;
pos = (292,0);
},
{
name = ogonek;
pos = (517,10);
},
{
name = top;
pos = (292,670);
},
{
name = topleft;
pos = (30,700);
}
);
layerId = "6F9C6BB4-2DCF-443B-A55D-9CE049090094";
shapes = (
{
closed = 1;
nodes = (
(84,749,l),
(130,794,l),
(113,-69,l),
(69,-24,l),
(443,-24,l),
(453,-8,o),
(453,8,o),
(443,24,c),
(115,24,l),
(159,-21,l),
(176,746,l),
(130,701,l),
(446,701,l),
(456,717,o),
(456,733,o),
(446,749,c)
);
},
{
closed = 1;
nodes = (
(144,379,l),
(144,331,l),
(409,331,l),
(419,347,o),
(419,363,o),
(409,379,c)
);
}
);
width = 544;
}
);
unicode = 69;
},
{
color = 0;
glyphname = F;
kernLeft = H;
kernRight = F;
lastChange = "2024-04-11 12:56:19 +0000";
layers = (
{
layerId = "6F9C6BB4-2DCF-443B-A55D-9CE049090094";
shapes = (
{
closed = 1;
nodes = (
(85,755,l),
(131,800,l),
(115,-24,l),
(130,-34,o),
(146,-34,o),
(161,-24,c),
(177,752,l),
(131,707,l),
(447,707,l),
(457,723,o),
(457,739,o),
(447,755,c)
);
},
{
closed = 1;
nodes = (
(145,385,l),
(145,337,l),
(410,337,l),
(420,353,o),
(420,369,o),
(410,385,c)
);
}
);
width = 543;
}
);
unicode = 70;
},
{
color = 0;
glyphname = G;
kernLeft = O;
kernRight = B;
lastChange = "2024-04-11 12:56:19 +0000";
layers = (
{
background = {
shapes = (
{
closed = 0;
nodes = (
(520,361,l),
(369,361,l)
);
},
{
closed = 0;
nodes = (
(504,679,l),
(458,691,o),
(377,700,o),
(342,700,cs),
(174,700,o),
(128,562,o),
(128,326,cs),
(128,80,o),
(220,0,o),
(323,0,cs),
(422,0,o),
(520,154,o),
(520,270,cs)
);
}
);
};
layerId = "6F9C6BB4-2DCF-443B-A55D-9CE049090094";
shapes = (
{
closed = 1;
nodes = (
(603,336,l),
(557,375,l),
(571,179,o),
(472,15,o),
(349,15,cs),
(219,15,o),
(147,147,o),
(147,336,cs),
(147,599,o),
(220,711,o),
(399,711,cs),
(445,711,o),
(495,704,o),
(558,690,c),
(571,702,o),
(575,718,o),
(568,736,c),
(503,752,o),
(447,759,o),
(399,759,cs),
(190,759,o),
(101,623,o),
(101,336,cs),
(101,129,o),
(187,-33,o),
(349,-33,cs),
(515,-33,o),
(632,186,o),
(597,421,c),
(646,384,l),
(329,384,l),
(319,368,o),
(319,352,o),
(329,336,c)
);
}
);
width = 699;
}
);
unicode = 71;
},
{
color = 0;
glyphname = H;
kernLeft = H;
kernRight = H;
lastChange = "2024-04-11 12:56:19 +0000";
layers = (
{
background = {
shapes = (
{
closed = 0;
nodes = (
(49,320,l),
(579,320,l)
);
},
{
closed = 0;
nodes = (
(134,699,l),
(187,699,o),
(177,635,o),
(174,547,cs),
(153,-1,l)
);
},
{
closed = 0;
nodes = (
(793,230,l),
(731,83,o),
(637,0,o),
(602,0,cs),
(569,0,o),
(568,38,o),
(571,119,cs),
(593,700,l)
);
}
);
};
layerId = "6F9C6BB4-2DCF-443B-A55D-9CE049090094";
shapes = (
{
closed = 1;
nodes = (
(154,360,l),
(154,312,l),
(549,312,l),
(549,360,l)
);
},
{
closed = 1;
nodes = (
(174,749,l),
(159,759,o),
(143,759,o),
(128,749,c),
(115,-24,l),
(130,-34,o),
(146,-34,o),
(161,-24,c)
);
},
{
closed = 1;
nodes = (
(590,749,l),
(575,759,o),
(559,759,o),
(544,749,c),
(531,-24,l),
(546,-34,o),
(562,-34,o),
(577,-24,c)
);
}
);
width = 705;
}
);
unicode = 72;
},
{
color = 0;
glyphname = I;
kernLeft = I;
kernRight = I;
lastChange = "2024-04-11 12:58:34 +0000";
layers = (
{
anchors = (
{
name = bottom;
pos = (205,0);
},
{
name = ogonek;
pos = (401,10);
},
{
name = top;
pos = (205,670);
},
{
name = topleft;
pos = (-20,700);
}
);
background = {
shapes = (
{
closed = 0;
nodes = (
(102,170,l),
(77,69,o),
(116,0,o),
(198,0,cs),
(303,0,o),
(394,114,o),
(399,251,cs),
(415,700,l),
(147,700,l)
);
}
);
};
layerId = "6F9C6BB4-2DCF-443B-A55D-9CE049090094";
shapes = (
{
closed = 1;
nodes = (
(237,731,l),
(191,731,l),
(178,0,l),
(224,0,l)
);
},
{
closed = 1;
nodes = (
(109,749,l),
(99,733,o),
(99,717,o),
(109,701,c),
(317,701,l),
(327,717,o),
(327,733,o),
(317,749,c)
);
},
{
closed = 1;
nodes = (
(97,24,l),
(87,8,o),
(87,-8,o),
(97,-24,c),
(305,-24,l),
(315,-8,o),
(315,8,o),
(305,24,c)
);
}
);
width = 414;
}
);
unicode = 73;
},
{
glyphname = IJ;
kernLeft = I;
kernRight = J;
lastChange = "2024-04-11 12:56:10 +0000";
layers = (
{
background = {
shapes = (
{
pos = (-6,0);
ref = I;
}
);
};
layerId = "6F9C6BB4-2DCF-443B-A55D-9CE049090094";
shapes = (
{
attr = {
identifier = ID0x7fadab45f450;
lineCapEnd = "1";
lineCapStart = "1";
};
closed = 0;
nodes = (
(202,731,l),
(195,351,l)
);
},
{
attr = {
identifier = ID0x7fadab45f450;
lineCapEnd = "1";
lineCapStart = "1";
};
closed = 0;
nodes = (
(101,731,l),
(301,731,l)
);
},
{
attr = {
identifier = ID0x7fadab45f450;
lineCapEnd = "1";
lineCapStart = "1";
};
closed = 0;
nodes = (
(90,351,l),
(300,351,l)
);
},
{
pos = (146,0);
ref = J;
}
);
width = 713;
}
);
metricLeft = I;
metricRight = J;
unicode = 306;
},
{
color = 0;
glyphname = J;
kernLeft = J;
kernRight = J;
lastChange = "2024-04-11 12:58:34 +0000";
layers = (
{
anchors = (
{
name = bottom;
pos = (289,0);
},
{
name = top;
pos = (390,670);
}
);
background = {
shapes = (
{
closed = 0;
nodes = (
(425,151,l),
(412,88,o),
(163,-25,o),
(163,-244,cs),
(163,-305,o),
(185,-347,o),
(224,-347,cs),
(276,-347,o),
(279,-285,o),
(277,-104,cs),
(275,51,o),
(270,206,o),
(277,361,cs),
(293,700,l),
(293,700,o),
(257,228,o),
(116,128,c)
);
}
);
};
layerId = "6F9C6BB4-2DCF-443B-A55D-9CE049090094";
shapes = (
{
closed = 1;
nodes = (
(402,215,ls),
(400,91,o),
(347,19,o),
(269,19,cs),
(176,19,o),
(132,92,o),
(141,244,c),
(126,254,o),
(110,254,o),
(95,244,c),
(86,68,o),
(147,-29,o),
(269,-29,cs),
(375,-29,o),
(446,65,o),
(448,215,cs),
(456,749,l),
(441,759,o),
(425,759,o),
(410,749,c)
);
}
);
width = 567;
}
);
unicode = 74;
},
{
color = 0;
glyphname = K;
kernLeft = H;
kernRight = K;
lastChange = "2024-04-11 12:56:19 +0000";
layers = (
{
background = {
shapes = (
{
closed = 0;
nodes = (
(480,0,l),
(186,0,l),
(200,700,l),
(483,700,l)
);
},
{
closed = 0;
nodes = (
(193,344,l),
(447,344,l)
);
}
);
};
layerId = "6F9C6BB4-2DCF-443B-A55D-9CE049090094";
shapes = (
{
closed = 1;
nodes = (
(179,391,l),
(181,326,l),
(559,749,l),
(538,759,o),
(518,759,o),
(497,749,c),
(115,325,l),
(113,389,l),
(537,-24,l),
(560,-34,o),
(582,-34,o),
(605,-24,c)
);
},
{
closed = 1;
nodes = (
(174,749,l),
(159,759,o),
(143,759,o),
(128,749,c),
(115,-24,l),
(130,-34,o),
(146,-34,o),
(161,-24,c)
);
}
);
width = 692;
}
);
unicode = 75;
},
{
color = 0;
glyphname = L;
kernLeft = H;
kernRight = L;
lastChange = "2024-04-11 12:56:19 +0000";
layers = (
{
background = {
shapes = (
{
closed = 0;
nodes = (
(58,700,l),
(439,700,l)
);
},
{
closed = 0;
nodes = (
(427,0,l),
(160,0,l),
(133,0,o),
(131,12,o),
(132,39,cs),
(158,700,l)
);
},
{
closed = 0;
nodes = (
(142,344,l),
(399,344,l)
);
}
);
};
layerId = "6F9C6BB4-2DCF-443B-A55D-9CE049090094";
shapes = (
{
closed = 1;
nodes = (
(113,-69,l),
(69,-24,l),
(443,-24,l),
(453,-8,o),
(453,8,o),
(443,24,c),
(115,24,l),
(159,-21,l),
(175,749,l),
(160,759,o),
(144,759,o),
(129,749,c)
);
}
);
width = 539;
}
);
unicode = 76;
},
{
color = 0;
glyphname = M;
kernLeft = H;
kernRight = H;
lastChange = "2024-04-11 12:56:19 +0000";
layers = (
{
background = {
shapes = (
{
closed = 0;
nodes = (
(370,700,l),
(164,113,ls),
(135,30,o),
(102,1,o),
(33,1,c)
);
},
{
closed = 0;
nodes = (
(855,686,l),
(720,268,o),
(570,103,o),
(504,54,c),
(449,142,o),
(386,329,o),
(370,686,c)
);
},
{
closed = 0;
nodes = (
(1053,230,l),
(991,83,o),
(897,0,o),
(862,0,cs),
(805,0,o),
(829,189,o),
(855,700,c)
);
}
);
};
layerId = "6F9C6BB4-2DCF-443B-A55D-9CE049090094";
shapes = (
{
closed = 1;
nodes = (
(862,749,l),
(825,749,l),
(483,87,l),
(510,87,l),
(189,749,l),
(153,749,l),
(98,-25,l),
(113,-35,o),
(129,-35,o),
(144,-25,c),
(195,701,l),
(161,701,l),
(482,39,l),
(511,39,l),
(853,701,l),
(818,701,l),
(849,-24,l),
(864,-34,o),
(880,-34,o),
(895,-24,c)
);
}
);
width = 1001;
}
);
unicode = 77;
},
{
color = 0;
glyphname = N;
kernLeft = H;
kernRight = H;
lastChange = "2024-04-11 12:58:34 +0000";
layers = (
{
anchors = (
{
name = bottom;
pos = (379,0);
},
{
name = top;
pos = (379,670);
}
);
background = {
shapes = (
{
closed = 0;
nodes = (
(596,700,l),
(572,0,l),
(181,699,l),
(160,112,ls),
(157,29,o),
(133,0,o),
(64,0,c)
);
}
);
};
layerId = "6F9C6BB4-2DCF-443B-A55D-9CE049090094";
shapes = (
{
closed = 1;
nodes = (
(176,710,l),
(143,704,l),
(577,-63,l),
(510,-24,l),
(654,-24,l),
(598,-69,l),
(613,749,l),
(598,759,o),
(582,759,o),
(567,749,c),
(553,10,l),
(586,16,l),
(149,788,l),
(216,749,l),
(75,749,l),
(131,794,l),
(114,-24,l),
(129,-34,o),
(145,-34,o),
(160,-24,c)
);
}
);
width = 728;
}
);
unicode = 78;
},
{
color = 0;
glyphname = O;
kernLeft = O;
kernRight = O;
lastChange = "2024-04-11 13:02:09 +0000";
layers = (
{
anchors = (
{
name = bottom;
pos = (400,0);
},
{
name = center;
pos = (400,350);
},
{
name = ogonek;
pos = (493,10);
},
{
name = top;
pos = (434,670);
},
{
name = topleft;
pos = (50,700);
},
{
name = topright;
pos = (749,700);
}
);
background = {
shapes = (
{
closed = 0;
nodes = (
(234,170,l),
(193,170,o),
(150,203,o),
(144,265,cs),
(127,463,o),
(229,700,o),
(427,700,cs),
(576,700,o),
(654,578,o),
(666,435,cs),
(683,237,o),
(576,0,o),
(372,0,cs),
(294,0,o),
(232,30,o),
(193,77,c)
);
}
);
};
layerId = "6F9C6BB4-2DCF-443B-A55D-9CE049090094";
shapes = (
{
closed = 1;
nodes = (
(580,707,o),
(665,576,o),
(668,406,cs),
(672,212,o),
(569,9,o),
(383,9,cs),
(232,9,o),
(147,140,o),
(144,311,cs),
(140,505,o),
(243,707,o),
(429,707,cs)
);
},
{
closed = 1;
nodes = (
(209,755,o),
(94,522,o),
(98,311,cs),
(101,118,o),
(202,-39,o),
(383,-39,cs),
(603,-39,o),
(718,195,o),
(714,406,cs),
(711,598,o),
(610,755,o),
(429,755,cs)
);
}
);
width = 812;
}
);
unicode = 79;
},
{
glyphname = Oslash;
kernLeft = O;
kernRight = O;
lastChange = "2024-04-11 13:02:22 +0000";
layers = (
{
layerId = "6F9C6BB4-2DCF-443B-A55D-9CE049090094";
shapes = (
{
ref = O;
},
{
attr = {
identifier = ID0x7fadb183f0a0;
};
closed = 1;
nodes = (
(734,684,l),
(733,703,o),
(721,713,o),
(700,716,c),
(100,16,l),
(101,-3,o),
(113,-13,o),
(134,-16,c)
);
}
);
width = 832;
}
);
metricLeft = O;
metricRight = O;
unicode = 216;
},
{
glyphname = OE;
kernLeft = O;
kernRight = E;
lastChange = "2024-04-11 12:56:10 +0000";
layers = (
{
anchors = (
{
name = bottom;
pos = (452,0);
},
{
name = center;
pos = (452,350);
},
{
name = ogonek;
pos = (747,10);
},
{
name = top;
pos = (452,650);
},
{
name = topleft;
pos = (102,700);
},
{
name = topright;
pos = (801,700);
}
);
background = {
shapes = (
{
attr = {
identifier = ID0x7fadae80b090;
lineCapEnd = "1";
lineCapStart = "1";
};
closed = 0;
nodes = (
(833,0,l),
(539,0,l),
(553,700,l),
(836,700,l)
);
},
{
attr = {
identifier = ID0x7fadae80b090;
lineCapEnd = "1";
lineCapStart = "1";
};
closed = 0;
nodes = (
(546,344,l),
(800,344,l)
);
},
{
attr = {
identifier = ID0x7fe542542670;
lineCapEnd = "1";
lineCapStart = "1";
};
closed = 1;
nodes = (
(580,700,o),
(667,565,o),
(670,394,cs),
(674,205,o),
(571,0,o),
(381,0,cs),
(225,0,o),
(138,135,o),
(135,306,cs),
(131,495,o),
(234,700,o),
(424,700,cs)
);
}
);
};
layerId = "6F9C6BB4-2DCF-443B-A55D-9CE049090094";
shapes = (
{
attr = {
identifier = ID0x7fe542542670;
};
closed = 1;
nodes = (
(528,738,o),
(478,755,o),
(422,755,cs),
(207,755,o),
(94,526,o),
(98,317,cs),
(102,123,o),
(200,-34,o),
(379,-34,cs),
(448,-34,o),
(509,2,o),
(555,32,c),
(531,72,l),
(489,46,o),
(438,14,o),
(375,14,cs),
(229,15,o),
(148,146,o),
(144,319,cs),
(140,510,o),
(241,707,o),
(422,707,cs),
(470,707,o),
(510,694,o),
(543,670,c),
(569,710,l)
);
},
{
attr = {
identifier = ID0x7fadae80b090;
};
closed = 1;
nodes = (
(533,755,l),
(518,-24,l),
(847,-24,l),
(857,-8,o),
(857,8,o),
(847,24,c),
(564,24,l),
(579,707,l),
(850,707,l),
(860,723,o),
(860,739,o),
(850,755,c)
);
},
{
attr = {
identifier = ID0x7fadae80b090;
};
closed = 1;
nodes = (
(549,385,l),
(549,337,l),
(813,337,l),
(823,353,o),
(823,369,o),
(813,385,c)
);
}
);
width = 948;
}
);
metricLeft = O;
metricRight = E;
unicode = 338;
},
{
color = 0;
glyphname = P;
kernLeft = H;
kernRight = F;
lastChange = "2024-04-11 12:56:19 +0000";
layers = (
{
background = {
shapes = (
{
pos = (77,0);
ref = B;
}
);
};
layerId = "6F9C6BB4-2DCF-443B-A55D-9CE049090094";
shapes = (
{
closed = 1;
nodes = (
(383,289,o),
(528,400,o),
(528,562,cs),
(528,682,o),
(457,749,o),
(326,749,cs),
(86,749,l),
(132,794,l),
(114,-24,l),
(129,-34,o),
(145,-34,o),
(160,-24,c),
(176,746,l),
(130,701,l),
(326,701,ls),
(431,701,o),
(482,656,o),
(482,562,cs),
(482,430,o),
(359,337,o),
(148,337,c),
(148,289,l)
);
}
);
width = 622;
}
);
unicode = 80;
},
{
glyphname = Thorn;
kernLeft = H;
kernRight = Thorn;
lastChange = "2024-04-11 12:56:10 +0000";
layers = (
{
layerId = "6F9C6BB4-2DCF-443B-A55D-9CE049090094";
shapes = (
{
attr = {
identifier = ID0x7fadab497160;
};
closed = 1;
nodes = (
(115,-24,l),
(130,-34,o),
(146,-34,o),
(161,-24,c),
(177,755,l),
(162,765,o),
(146,765,o),
(131,755,c)
);
},
{
attr = {
identifier = ID0x7fadab497160;
};
closed = 1;
nodes = (
(384,147,o),
(529,258,o),
(529,419,cs),
(529,539,o),
(458,606,o),
(327,606,cs),
(154,606,l),
(154,558,l),
(327,558,ls),
(432,558,o),
(483,513,o),
(483,419,cs),
(483,288,o),
(360,195,o),
(149,195,c),
(149,147,l)
);
}
);
width = 623;
}
);
metricLeft = H;
metricRight = P;
unicode = 222;
},
{
color = 0;
glyphname = Q;
kernLeft = O;
kernRight = Q;
lastChange = "2024-04-11 12:56:19 +0000";
layers = (
{
background = {
shapes = (
{
closed = 0;
nodes = (
(529,500,l),
(595,500,o),
(625,449,o),
(625,383,cs),
(625,226,o),
(521,0,o),
(346,0,cs),
(190,0,o),
(105,135,o),
(105,306,cs),
(105,495,o),
(211,700,o),
(401,700,cs),
(479,700,o),
(541,670,o),
(580,623,cs)
);
}
);
};
layerId = "6F9C6BB4-2DCF-443B-A55D-9CE049090094";
shapes = (
{
closed = 1;
nodes = (
(406,200,l),
(385,194,o),
(375,182,o),
(374,166,c),
(626,-75,l),
(644,-72,o),
(654,-60,o),
(658,-41,c)
);
},
{
ref = O;
}
);
width = 812;
}
);
unicode = 81;
},
{
color = 0;
glyphname = R;
kernLeft = H;
kernRight = R;
lastChange = "2024-04-11 12:56:19 +0000";
layers = (
{
background = {
shapes = (
{
pos = (77,0);
ref = B;
}
);
};
layerId = "6F9C6BB4-2DCF-443B-A55D-9CE049090094";
shapes = (
{
closed = 1;
nodes = (
(410,313,o),
(544,419,o),
(544,585,cs),
(544,700,o),
(456,749,o),
(339,749,cs),
(86,749,l),
(132,794,l),
(114,-24,l),
(129,-34,o),
(145,-34,o),
(160,-24,c),
(176,746,l),
(130,701,l),
(339,701,ls),
(438,701,o),
(498,666,o),
(498,585,cs),
(498,447,o),
(384,361,o),
(149,361,c),
(149,313,l)
);
},
{
closed = 1;
nodes = (
(200,347,l),
(138,341,l),
(521,-24,l),
(546,-34,o),
(569,-34,o),
(590,-24,c)
);
}
);
width = 677;
}
);
unicode = 82;
},
{
color = 0;
glyphname = S;
kernLeft = S;
kernRight = B;
lastChange = "2024-04-11 12:56:19 +0000";
layers = (
{
background = {
shapes = (
{
attr = {
lineCapEnd = "1";
lineCapStart = "1";
};
closed = 0;
nodes = (
(112,31,l),
(139,12,o),
(187,0,o),
(238,0,cs),
(341,0,o),
(458,49,o),
(455,188,cs),
(453,274,o),
(372,321,o),
(290,367,cs),
(212,411,o),
(129,464,o),
(129,556,cs),
(129,648,o),
(216,699,o),
(308,699,cs),
(351,699,o),
(395,688,o),
(432,664,cs)
);
}
);
};
hints = (
{
horizontal = 1;
origin = (0,0);
settings = {
deltaV = {
"{100, 100, 0, 0, 0, 0}" = {
"62" = 0;
};
};
};
type = TTDelta;
},
{
horizontal = 1;
origin = (0,0);
settings = {
deltaV = {
"{100, 100, 0, 0, 0, 0}" = {
"62" = 0;
};
};
};
type = TTDelta;
},
{
horizontal = 1;
origin = (0,0);
settings = {
deltaV = {
"{100, 100, 0, 0, 0, 0}" = {
"62" = 0;
};
};
};
type = TTDelta;
},
{
horizontal = 1;
origin = (0,3);
settings = {
deltaV = {
"{100, 100, 0, 0, 0, 0}" = {
"62" = 0;
};
};
};
type = TTDelta;
},
{
horizontal = 1;
origin = (0,6);
settings = {
deltaV = {
"{100, 100, 0, 0, 0, 0}" = {
"62" = 0;
};
};
};
type = TTDelta;
},
{
horizontal = 1;
origin = (0,6);
settings = {
deltaV = {
"{100, 100, 0, 0, 0, 0}" = {
"62" = 0;
};
};
};
type = TTDelta;
},
{
horizontal = 1;
origin = (0,6);
settings = {
deltaV = {
"{100, 100, 0, 0, 0, 0}" = {
"62" = 0;
};
};
};
type = TTDelta;
},
{
horizontal = 1;
origin = (0,11);
settings = {
deltaV = {
"{100, 100, 0, 0, 0, 0}" = {
"62" = 0;
};
};
};
type = TTDelta;
},
{
horizontal = 1;
origin = (0,11);
settings = {
deltaV = {
"{100, 100, 0, 0, 0, 0}" = {
"62" = 0;
};
};
};
type = TTDelta;
},
{
horizontal = 1;
origin = (0,11);
settings = {
deltaV = {
"{100, 100, 0, 0, 0, 0}" = {
"62" = 0;
};
};
};
type = TTDelta;
},
{
horizontal = 1;
origin = (0,11);
settings = {
deltaV = {
"{100, 100, 0, 0, 0, 0}" = {
"62" = 0;
};
};
};
type = TTDelta;
},
{
horizontal = 1;
origin = (0,11);
settings = {
deltaV = {
"{100, 100, 0, 0, 0, 0}" = {
"62" = 0;
};
};
};
type = TTDelta;
},
{
horizontal = 1;
origin = (0,11);
settings = {
deltaV = {
"{100, 100, 0, 0, 0, 0}" = {
"62" = 0;
};
};
};
type = TTDelta;
}
);
layerId = "6F9C6BB4-2DCF-443B-A55D-9CE049090094";
shapes = (
{
closed = 1;
nodes = (
(323,800,o),
(100,745,o),
(100,578,cs),
(100,364,o),
(442,351,o),
(446,188,cs),
(450,-8,o),
(204,-13,o),
(117,41,c),
(99,34,o),
(91,20,o),
(93,1,c),
(200,-67,o),
(496,-58,o),
(492,188,cs),
(488,393,o),
(146,398,o),
(146,578,cs),
(146,701,o),
(325,743,o),
(432,673,c),
(451,683,o),
(459,697,o),
(458,713,c)
);
}
);
width = 585;
}
);
unicode = 83;
},
{
glyphname = Germandbls;
kernLeft = H;
kernRight = S;
lastChange = "2024-04-11 12:56:10 +0000";
layers = (
{
background = {
shapes = (
{
closed = 1;
nodes = (
(103,-69,l),
(48,-24,l),
(591,-24,l),
(601,-8,o),
(601,8,o),
(591,24,c),
(120,24,l),
(140,-14,l),
(642,745,l),
(617,662,l),
(607,794,l),
(662,749,l),
(143,749,l),
(133,733,o),
(133,717,o),
(143,701,c),
(602,701,l),
(582,739,l),
(68,-38,l),
(93,45,l)
);
}
);
};
hints = (
{
horizontal = 1;
settings = {
deltaV = {
"{100, 100, 0, 0, 0, 0}" = {
"62" = 0;
};
};
};
type = TTDelta;
},
{
horizontal = 1;
settings = {
deltaV = {
"{100, 100, 0, 0, 0, 0}" = {
"62" = 0;
};
};
};
type = TTDelta;
},
{
horizontal = 1;
settings = {
deltaV = {
"{100, 100, 0, 0, 0, 0}" = {
"62" = 0;
};
};
};
type = TTDelta;
},
{
horizontal = 1;
settings = {
deltaV = {
"{100, 100, 0, 0, 0, 0}" = {
"62" = 0;
};
};
};
type = TTDelta;
},
{
horizontal = 1;
settings = {
deltaV = {
"{100, 100, 0, 0, 0, 0}" = {
"62" = 0;
};
};
};
type = TTDelta;
},
{
horizontal = 1;
settings = {
deltaV = {
"{100, 100, 0, 0, 0, 0}" = {
"62" = 0;
};
};
};
type = TTDelta;
},
{
horizontal = 1;
settings = {
deltaV = {
"{100, 100, 0, 0, 0, 0}" = {
"62" = 0;
};
};
};
type = TTDelta;
},
{
horizontal = 1;
settings = {
deltaV = {
"{100, 100, 0, 0, 0, 0}" = {
"62" = 0;
};
};
};
type = TTDelta;
},
{
horizontal = 1;
settings = {
deltaV = {
"{100, 100, 0, 0, 0, 0}" = {
"62" = 0;
};
};
};
type = TTDelta;
},
{
horizontal = 1;
settings = {
deltaV = {
"{100, 100, 0, 0, 0, 0}" = {
"62" = 0;
};
};
};
type = TTDelta;
},
{
horizontal = 1;
settings = {
deltaV = {
"{100, 100, 0, 0, 0, 0}" = {
"62" = 0;
};
};
};
type = TTDelta;
},
{
horizontal = 1;
settings = {
deltaV = {
"{100, 100, 0, 0, 0, 0}" = {
"62" = 0;
};
};
};
type = TTDelta;
},
{
horizontal = 1;
settings = {
deltaV = {
"{100, 100, 0, 0, 0, 0}" = {
"62" = 0;
};
};
};
type = TTDelta;
}
);
layerId = "6F9C6BB4-2DCF-443B-A55D-9CE049090094";
shapes = (
{
attr = {
identifier = ID0x7fadb0841000;
};
closed = 1;
nodes = (
(577,794,l),
(655,749,l),
(84,749,l),
(130,794,l),
(115,-24,l),
(130,-34,o),
(146,-34,o),
(161,-24,c),
(176,746,l),
(130,701,l),
(538,701,l),
(536,718,l),
(422,649,o),
(316,587,o),
(316,469,cs),
(316,373,o),
(399,326,o),
(470,286,cs),
(538,248,o),
(594,216,o),
(594,157,cs),
(594,48,o),
(514,10,o),
(434,10,cs),
(395,10,o),
(359,20,o),
(337,33,c),
(319,30,o),
(311,16,o),
(313,-7,c),
(343,-26,o),
(387,-38,o),
(434,-38,cs),
(529,-38,o),
(640,12,o),
(640,157,cs),
(640,246,o),
(561,290,o),
(492,328,cs),
(423,368,o),
(362,403,o),
(362,469,cs),
(362,555,o),
(443,607,o),
(553,672,c),
(679,751,l),
(586,664,l)
);
}
);
width = 733;
}
);
metricLeft = H;
metricRight = S;
unicode = 7838;
},
{
color = 0;
glyphname = T;
kernLeft = T;
kernRight = T;
lastChange = "2024-04-11 12:56:19 +0000";
layers = (
{
background = {
shapes = (
{
closed = 0;
nodes = (
(173,634,l),
(153,692,o),
(201,709,o),
(242,709,cs),
(354,709,o),
(488,690,o),
(582,690,cs),
(623,690,o),
(671,707,o),
(651,765,c)
);
},
{
closed = 0;
nodes = (
(447,700,l),
(422,0,l)
);
}
);
};
layerId = "6F9C6BB4-2DCF-443B-A55D-9CE049090094";
shapes = (
{
closed = 1;
nodes = (
(410,707,l),
(364,707,l),
(351,-24,l),
(366,-34,o),
(382,-34,o),
(397,-24,c)
);
},
{
closed = 1;
nodes = (
(96,750,l),
(86,734,o),
(86,718,o),
(96,702,c),
(658,701,l),
(668,717,o),
(668,733,o),
(658,749,c)
);
},
{
closed = 0;
nodes = (
(351,-24,l),
(397,-24,l)
);
}
);
width = 754;
}
);
unicode = 84;
},
{
color = 0;
glyphname = U;
kernLeft = U;
kernRight = U;
lastChange = "2024-04-11 12:58:34 +0000";
layers = (
{
anchors = (
{
name = bottom;
pos = (356,0);
},
{
name = ogonek;
pos = (626,10);
},
{
name = top;
pos = (356,670);
},
{
name = topright;
pos = (674,700);
}
);
layerId = "6F9C6BB4-2DCF-443B-A55D-9CE049090094";
shapes = (
{
closed = 1;
nodes = (
(546,225,ls),
(543,99,o),
(457,19,o),
(340,19,cs),
(221,19,o),
(156,101,o),
(158,223,cs),
(168,749,l),
(153,759,o),
(137,759,o),
(122,749,c),
(112,225,ls),
(109,75,o),
(195,-29,o),
(340,-29,cs),
(481,-29,o),
(589,71,o),
(592,223,cs),
(604,749,l),
(589,759,o),
(573,759,o),
(558,749,c)
);
}
);
width = 713;
}
);
unicode = 85;
},
{
color = 0;
glyphname = V;
kernLeft = V;
kernRight = V;
lastChange = "2024-04-11 12:56:19 +0000";
layers = (
{
background = {
shapes = (
{
pos = (51,0);
ref = U;
}
);
};
layerId = "6F9C6BB4-2DCF-443B-A55D-9CE049090094";
shapes = (
{
closed = 1;
nodes = (
(352,5,l),
(381,4,l),
(137,749,l),
(121,759,o),
(105,759,o),
(89,749,c),
(364,-89,l),
(305,-24,l),
(428,-24,l),
(368,-88,l),
(668,749,l),
(651,759,o),
(635,759,o),
(618,749,c)
);
}
);
width = 757;
}
);
unicode = 86;
},
{
color = 0;
glyphname = W;
kernLeft = V;
kernRight = V;
lastChange = "2024-04-11 12:58:34 +0000";
layers = (
{
anchors = (
{
name = bottom;
pos = (573,0);
},
{
name = top;
pos = (573,670);
}
);
background = {
shapes = (
{
attr = {
lineCapEnd = "1";
lineCapStart = "1";
};
closed = 0;
nodes = (
(1057,731,ls),
(797,0,l),
(573,731,l),
(329,0,l),
(89,731,l)
);
}
);
};
layerId = "6F9C6BB4-2DCF-443B-A55D-9CE049090094";
shapes = (
{
closed = 1;
nodes = (
(305,-24,l),
(428,-24,l),
(368,-88,l),
(650,700,l),
(616,698,l),
(874,-89,l),
(815,-24,l),
(938,-24,l),
(878,-88,l),
(1178,749,l),
(1161,759,o),
(1145,759,o),
(1128,749,c),
(862,5,l),
(891,4,l),
(647,749,l),
(618,749,l),
(352,5,l),
(381,4,l),
(137,749,l),
(121,759,o),
(105,759,o),
(89,749,c),
(364,-89,l)
);
}
);
width = 1267;
}
);
unicode = 87;
},
{
color = 0;
glyphname = X;
kernLeft = X;
kernRight = X;
lastChange = "2024-04-11 12:56:19 +0000";
layers = (
{
background = {
shapes = (
{
closed = 0;
nodes = (
(66,320,l),
(583,320,l)
);
},
{
closed = 0;
nodes = (
(797,230,l),
(735,83,o),
(641,0,o),
(606,0,cs),
(573,0,o),
(572,38,o),
(575,119,cs),
(597,700,l)
);
},
{
pos = (32,0);
ref = baston.caps;
}
);
};
layerId = "6F9C6BB4-2DCF-443B-A55D-9CE049090094";
shapes = (
{
closed = 1;
nodes = (
(402,342,l),
(674,749,l),
(655,759,o),
(637,759,o),
(618,749,c),
(374,383,l)
);
},
{
closed = 1;
nodes = (
(598,-24,l),
(616,-34,o),
(634,-34,o),
(652,-24,c),
(170,749,l),
(152,759,o),
(134,759,o),
(116,749,c)
);
},
{
closed = 1;
nodes = (
(364,388,l),
(88,-24,l),
(107,-34,o),
(125,-34,o),
(144,-24,c),
(392,347,l)
);
}
);
width = 762;
}
);
unicode = 88;
},
{
color = 0;
glyphname = Y;
kernLeft = Y;
kernRight = Y;
lastChange = "2024-04-11 12:58:34 +0000";
layers = (
{
anchors = (
{
name = bottom;
pos = (356,0);
},
{
name = top;
pos = (356,670);
},
{
name = topleft;
pos = (103,700);
}
);
layerId = "6F9C6BB4-2DCF-443B-A55D-9CE049090094";
shapes = (
{
closed = 1;
nodes = (
(337,264,l),
(625,749,l),
(607,759,o),
(589,759,o),
(571,749,c),
(339,360,l),
(140,749,l),
(123,759,o),
(105,759,o),
(88,749,c)
);
},
{
closed = 1;
nodes = (
(318,343,l),
(311,-24,l),
(326,-34,o),
(342,-34,o),
(357,-24,c),
(364,343,l)
);
}
);
width = 713;
}
);
unicode = 89;
},
{
color = 0;
glyphname = Z;
kernLeft = Z;
kernRight = Z;
lastChange = "2024-04-11 12:56:19 +0000";
layers = (
{
layerId = "6F9C6BB4-2DCF-443B-A55D-9CE049090094";
shapes = (
{
closed = 1;
nodes = (
(95,-69,l),
(40,-24,l),
(583,-24,l),
(593,-8,o),
(593,8,o),
(583,24,c),
(112,24,l),
(132,-14,l),
(634,745,l),
(609,662,l),
(599,794,l),
(654,749,l),
(135,749,l),
(125,733,o),
(125,717,o),
(135,701,c),
(594,701,l),
(574,739,l),
(60,-38,l),
(85,45,l)
);
}
);
width = 697;
}
);
unicode = 90;
},
{
glyphname = Saltillo;
lastChange = "2024-04-11 12:56:10 +0000";
layers = (
{
anchors = (
{
name = top;
pos = (162,684);
}
);
layerId = "6F9C6BB4-2DCF-443B-A55D-9CE049090094";
shapes = (
{
attr = {
identifier = ID0x7fb66282a110;
};
closed = 1;
nodes = (
(171,661,o),
(180,627,o),
(180,585,cs),
(180,515,o),
(156,428,o),
(88,335,c),
(92,319,o),
(104,309,o),
(126,307,c),
(198,408,o),
(226,507,o),
(226,585,cs),
(226,635,o),
(215,679,o),
(197,709,c),
(176,711,o),
(162,703,o),
(157,685,c)
);
}
);
width = 312;
}
);
unicode = 42891;
},
{
export = 0;
glyphname = A.ss01;
lastChange = "2024-04-11 12:56:10 +0000";
layers = (
{
layerId = "6F9C6BB4-2DCF-443B-A55D-9CE049090094";
shapes = (
{
closed = 0;
nodes = (
(639,700,l),
(613,189,o),
(592,0,o),
(649,0,cs),
(684,0,o),
(778,83,o),
(840,230,c)
);
},
{
closed = 0;
nodes = (
(213,228,l),
(619,228,l)
);
},
{
closed = 0;
nodes = (
(639,700,l),
(238,113,ls),
(182,30,o),
(139,1,o),
(70,1,c)
);
}
);
width = 835;
}
);
},
{
export = 0;
glyphname = B.ss01;
lastChange = "2024-04-11 12:56:10 +0000";
layers = (
{
layerId = "6F9C6BB4-2DCF-443B-A55D-9CE049090094";
shapes = (
{
closed = 0;
nodes = (
(91,700,l),
(348,700,l),
(397,700,o),
(489,696,o),
(489,571,cs),
(489,416,o),
(316,360,o),
(251,360,c)
);
},
{
closed = 0;
nodes = (
(265,360,l),
(428,385,o),
(509,351,o),
(509,220,cs),
(509,51,o),
(347,0,o),
(193,0,cs),
(166,0,o),
(164,12,o),
(165,39,cs),
(191,700,l)
);
}
);
width = 588;
}
);
},
{
export = 0;
glyphname = C.ss01;
lastChange = "2024-04-11 12:56:10 +0000";
layers = (
{
layerId = "6F9C6BB4-2DCF-443B-A55D-9CE049090094";
shapes = (
{
closed = 0;
nodes = (
(453,681,l),
(406,694,o),
(344,700,o),
(286,700,cs),
(148,700,o),
(73,415,o),
(84,213,cs),
(91,84,o),
(148,0,o),
(230,0,cs),
(318,0,o),
(438,105,o),
(514,230,c)
);
}
);
width = 509;
}
);
},
{
export = 0;
glyphname = D.ss01;
lastChange = "2024-04-11 12:56:10 +0000";
layers = (
{
layerId = "6F9C6BB4-2DCF-443B-A55D-9CE049090094";
shapes = (
{
closed = 0;
nodes = (
(91,700,l),
(348,700,l),
(547,700,o),
(635,578,o),
(635,435,cs),
(635,237,o),
(465,0,o),
(193,0,cs),
(166,0,o),
(164,12,o),
(165,39,cs),
(191,700,l)
);
}
);
width = 714;
}
);
},
{
export = 0;
glyphname = E.ss01;
lastChange = "2024-04-11 12:56:10 +0000";
layers = (
{
layerId = "6F9C6BB4-2DCF-443B-A55D-9CE049090094";
shapes = (
{
closed = 0;
nodes = (
(91,700,l),
(472,700,l)
);
},
{
closed = 0;
nodes = (
(460,0,l),
(193,0,l),
(166,0,o),
(164,12,o),
(165,39,cs),
(191,700,l)
);
},
{
closed = 0;
nodes = (
(175,344,l),
(432,344,l)
);
}
);
width = 562;
}
);
},
{
export = 0;
glyphname = F.ss01;
lastChange = "2024-04-11 12:56:10 +0000";
layers = (
{
layerId = "6F9C6BB4-2DCF-443B-A55D-9CE049090094";
shapes = (
{
closed = 0;
nodes = (
(91,700,l),
(472,700,l)
);
},
{
closed = 0;
nodes = (
(175,334,l),
(432,334,l)
);
},
{
closed = 0;
nodes = (
(191,701,l),
(165,0,l)
);
}
);
width = 563;
}
);
},
{
export = 0;
glyphname = G.ss01;
lastChange = "2024-04-11 12:56:10 +0000";
layers = (
{
layerId = "6F9C6BB4-2DCF-443B-A55D-9CE049090094";
shapes = (
{
closed = 0;
nodes = (
(454,681,l),
(407,694,o),
(345,700,o),
(287,700,cs),
(149,700,o),
(74,415,o),
(85,213,cs),
(91,84,o),
(138,0,o),
(205,0,cs),
(278,0,o),
(387,116,o),
(450,270,c)
);
},
{
closed = 0;
nodes = (
(598,151,l),
(585,88,o),
(336,-25,o),
(336,-244,cs),
(336,-305,o),
(358,-347,o),
(397,-347,cs),
(449,-347,o),
(450,-285,o),
(450,-104,cs),
(450,361,l),
(299,361,l)
);
}
);
width = 636;
}
);
},
{
export = 0;
glyphname = H.ss01;
lastChange = "2024-04-11 12:56:10 +0000";
layers = (
{
layerId = "6F9C6BB4-2DCF-443B-A55D-9CE049090094";
shapes = (
{
closed = 0;
nodes = (
(83,320,l),
(600,320,l)
);
},
{
closed = 0;
nodes = (
(814,230,l),
(752,83,o),
(658,0,o),
(623,0,cs),
(590,0,o),
(589,38,o),
(592,119,cs),
(614,700,l)
);
},
{
closed = 0;
nodes = (
(99,700,l),
(193,700,o),
(199,699,o),
(195,588,cs),
(174,0,l)
);
}
);
width = 809;
}
);
},
{
export = 0;
glyphname = I.ss01;
lastChange = "2024-04-11 12:56:10 +0000";
layers = (
{
layerId = "6F9C6BB4-2DCF-443B-A55D-9CE049090094";
shapes = (
{
closed = 0;
nodes = (
(82,170,l),
(57,69,o),
(96,0,o),
(178,0,cs),
(283,0,o),
(374,114,o),
(379,251,cs),
(395,700,l),
(301,688,o),
(187,686,o),
(129,700,c)
);
}
);
width = 483;
}
);
},
{
export = 0;
glyphname = J.ss01;
lastChange = "2024-04-11 12:56:10 +0000";
layers = (
{
anchors = (
{
name = bottom;
pos = (184,0);
},
{
name = top;
pos = (148,650);
}
);
layerId = "6F9C6BB4-2DCF-443B-A55D-9CE049090094";
shapes = (
{
closed = 0;
nodes = (
(180,251,l),
(196,700,l),
(119,688,o),
(26,686,o),
(-22,700,c)
);
},
{
closed = 0;
nodes = (
(184,360,l),
(163,-240,ls),
(161,-299,o),
(147,-324,o),
(117,-324,cs),
(84,-324,o),
(57,-294,o),
(57,-244,cs),
(57,-166,o),
(121,-99,o),
(221,20,cs),
(280,90,o),
(344,167,o),
(372,230,c)
);
}
);
width = 367;
}
);
},
{
export = 0;
glyphname = K.ss01;
lastChange = "2024-04-11 12:56:10 +0000";
layers = (
{
layerId = "6F9C6BB4-2DCF-443B-A55D-9CE049090094";
shapes = (
{
closed = 0;
nodes = (
(534,700,l),
(217,358,l),
(430,95,ls),
(464,53,o),
(521,0,o),
(573,0,cs)
);
},
{
closed = 0;
nodes = (
(101,700,l),
(195,700,o),
(201,699,o),
(197,588,cs),
(176,0,l)
);
}
);
width = 600;
}
);
},
{
export = 0;
glyphname = L.ss01;
lastChange = "2024-04-11 12:56:10 +0000";
layers = (
{
layerId = "6F9C6BB4-2DCF-443B-A55D-9CE049090094";
shapes = (
{
closed = 0;
nodes = (
(60,-39,l),
(236,534,ls),
(266,631,o),
(323,700,o),
(392,700,cs),
(456,700,o),
(490,660,o),
(490,610,cs),
(490,501,o),
(344,411,o),
(224,411,cs),
(144,411,o),
(57,449,o),
(-14,562,c)
);
},
{
closed = 0;
nodes = (
(573,230,l),
(511,83,o),
(418,0,o),
(382,0,cs),
(297,0,o),
(212,14,o),
(127,14,cs),
(106,14,o),
(90,11,o),
(72,1,c)
);
}
);
width = 568;
}
);
},
{
export = 0;
glyphname = M.ss01;
lastChange = "2024-04-11 12:56:10 +0000";
layers = (
{
layerId = "6F9C6BB4-2DCF-443B-A55D-9CE049090094";
shapes = (
{
closed = 0;
nodes = (
(406,700,l),
(201,113,ls),
(172,30,o),
(139,1,o),
(70,1,c)
);
},
{
closed = 0;
nodes = (
(892,700,l),
(757,282,o),
(580,132,o),
(514,83,c),
(459,171,o),
(423,343,o),
(407,700,c)
);
},
{
closed = 0;
nodes = (
(1090,230,l),
(1028,83,o),
(934,0,o),
(899,0,cs),
(842,0,o),
(867,189,o),
(893,700,c)
);
}
);
width = 1085;
}
);
},
{
export = 0;
glyphname = N.ss01;
lastChange = "2024-04-11 12:56:10 +0000";
layers = (
{
layerId = "6F9C6BB4-2DCF-443B-A55D-9CE049090094";
shapes = (
{
closed = 0;
nodes = (
(614,700,l),
(565,0,l)
);
},
{
closed = 0;
nodes = (
(199,700,l),
(157,112,ls),
(151,29,o),
(126,0,o),
(57,0,c)
);
},
{
closed = 0;
nodes = (
(566,6,l),
(531,90,o),
(229,601,o),
(200,700,c)
);
}
);
width = 694;
}
);
},
{
export = 0;
glyphname = O.ss01;
lastChange = "2024-04-11 12:56:10 +0000";
layers = (
{
layerId = "6F9C6BB4-2DCF-443B-A55D-9CE049090094";
shapes = (
{
closed = 0;
nodes = (
(175,170,l),
(109,170,o),
(79,234,o),
(79,317,cs),
(79,474,o),
(183,700,o),
(358,700,cs),
(514,700,o),
(599,565,o),
(599,394,cs),
(599,205,o),
(493,0,o),
(303,0,cs),
(225,0,o),
(163,30,o),
(124,77,c)
);
}
);
width = 680;
}
);
},
{
export = 0;
glyphname = P.ss01;
lastChange = "2024-04-11 12:56:10 +0000";
layers = (
{
layerId = "6F9C6BB4-2DCF-443B-A55D-9CE049090094";
shapes = (
{
closed = 0;
nodes = (
(91,700,l),
(373,700,l),
(433,700,o),
(545,695,o),
(545,543,cs),
(545,354,o),
(335,286,o),
(255,286,c)
);
},
{
closed = 0;
nodes = (
(272,286,l)
);
},
{
closed = 0;
nodes = (
(191,-1,l),
(217,700,l)
);
}
);
width = 622;
}
);
},
{
export = 0;
glyphname = Q.ss01;
lastChange = "2024-04-11 12:56:10 +0000";
layers = (
{
layerId = "6F9C6BB4-2DCF-443B-A55D-9CE049090094";
shapes = (
{
closed = 0;
nodes = (
(102,200,l),
(84,216,o),
(79,251,o),
(79,317,cs),
(79,474,o),
(183,700,o),
(358,700,cs),
(514,700,o),
(599,565,o),
(599,394,cs),
(599,205,o),
(493,0,o),
(303,0,cs),
(225,0,o),
(143,64,o),
(143,100,cs),
(143,121,o),
(184,140,o),
(245,140,cs),
(353,140,o),
(525,79,o),
(641,-146,c)
);
}
);
width = 682;
}
);
},
{
export = 0;
glyphname = R.ss01;
lastChange = "2024-04-11 12:56:10 +0000";
layers = (
{
layerId = "6F9C6BB4-2DCF-443B-A55D-9CE049090094";
shapes = (
{
closed = 0;
nodes = (
(91,700,l),
(368,700,l),
(421,700,o),
(520,696,o),
(520,561,cs),
(520,394,o),
(363,292,o),
(265,338,c)
);
},
{
closed = 0;
nodes = (
(165,0,l),
(191,700,l)
);
},
{
closed = 0;
nodes = (
(232,378,l),
(444,95,ls),
(475,53,o),
(527,0,o),
(579,0,cs)
);
}
);
width = 650;
}
);
},
{
export = 0;
glyphname = S.ss01;
lastChange = "2024-04-11 12:56:10 +0000";
layers = (
{
hints = (
{
horizontal = 1;
origin = (0,12);
settings = {
deltaV = {
"{100, 100, 0, 0, 0, 0}" = {
"62" = 0;
};
};
};
type = TTDelta;
},
{
horizontal = 1;
origin = (0,11);
settings = {
deltaV = {
"{100, 100, 0, 0, 0, 0}" = {
"62" = 0;
};
};
};
type = TTDelta;
},
{
horizontal = 1;
origin = (0,10);
settings = {
deltaV = {
"{100, 100, 0, 0, 0, 0}" = {
"62" = 0;
};
};
};
type = TTDelta;
},
{
horizontal = 1;
origin = (0,9);
settings = {
deltaV = {
"{100, 100, 0, 0, 0, 0}" = {
"62" = 0;
};
};
};
type = TTDelta;
},
{
horizontal = 1;
origin = (0,8);
settings = {
deltaV = {
"{100, 100, 0, 0, 0, 0}" = {
"62" = 0;
};
};
};
type = TTDelta;
},
{
horizontal = 1;
origin = (0,7);
settings = {
deltaV = {
"{100, 100, 0, 0, 0, 0}" = {
"62" = 0;
};
};
};
type = TTDelta;
},
{
horizontal = 1;
origin = (0,6);
settings = {
deltaV = {
"{100, 100, 0, 0, 0, 0}" = {
"62" = 0;
};
};
};
type = TTDelta;
},
{
horizontal = 1;
origin = (0,5);
settings = {
deltaV = {
"{100, 100, 0, 0, 0, 0}" = {
"62" = 0;
};
};
};
type = TTDelta;
},
{
horizontal = 1;
origin = (0,4);
settings = {
deltaV = {
"{100, 100, 0, 0, 0, 0}" = {
"62" = 0;
};
};
};
type = TTDelta;
},
{
horizontal = 1;
origin = (0,3);
settings = {
deltaV = {
"{100, 100, 0, 0, 0, 0}" = {
"62" = 0;
};
};
};
type = TTDelta;
},
{
horizontal = 1;
origin = (0,2);
settings = {
deltaV = {
"{100, 100, 0, 0, 0, 0}" = {
"62" = 0;
};
};
};
type = TTDelta;
},
{
horizontal = 1;
origin = (0,1);
settings = {
deltaV = {
"{100, 100, 0, 0, 0, 0}" = {
"62" = 0;
};
};
};
type = TTDelta;
},
{
horizontal = 1;
origin = (0,0);
settings = {
deltaV = {
"{100, 100, 0, 0, 0, 0}" = {
"62" = 0;
};
};
};
type = TTDelta;
}
);
layerId = "6F9C6BB4-2DCF-443B-A55D-9CE049090094";
shapes = (
{
closed = 0;
nodes = (
(400,623,l),
(401,676,o),
(361,700,o),
(311,700,cs),
(236,700,o),
(138,648,o),
(115,565,cs),
(58,355,o),
(458,361,o),
(402,150,cs),
(375,50,o),
(253,0,o),
(165,0,cs),
(126,0,o),
(96,16,o),
(85,31,c)
);
},
{
closed = 0;
nodes = (
(542,230,l),
(490,94,o),
(372,2,o),
(291,0,cs),
(263,-1,o),
(215,-1,o),
(187,0,c)
);
}
);
width = 537;
}
);
},
{
export = 0;
glyphname = T.ss01;
lastChange = "2024-04-11 12:56:10 +0000";
layers = (
{
layerId = "6F9C6BB4-2DCF-443B-A55D-9CE049090094";
shapes = (
{
closed = 0;
nodes = (
(353,699,l),
(328,0,l)
);
},
{
closed = 0;
nodes = (
(70,701,l),
(188,695,o),
(420,697,o),
(610,711,c)
);
}
);
width = 680;
}
);
},
{
export = 0;
glyphname = U.ss01;
lastChange = "2024-04-11 12:56:10 +0000";
layers = (
{
layerId = "6F9C6BB4-2DCF-443B-A55D-9CE049090094";
shapes = (
{
closed = 0;
nodes = (
(757,230,l),
(695,83,o),
(601,0,o),
(566,0,cs),
(533,0,o),
(532,38,o),
(535,119,cs),
(557,700,l)
);
},
{
closed = 0;
nodes = (
(82,700,l),
(176,700,o),
(182,699,o),
(178,588,cs),
(166,173,ls),
(163,68,o),
(221,0,o),
(293,0,cs),
(369,0,o),
(474,105,o),
(540,230,c)
);
}
);
width = 752;
}
);
},
{
export = 0;
glyphname = V.ss01;
lastChange = "2024-04-11 12:56:10 +0000";
layers = (
{
layerId = "6F9C6BB4-2DCF-443B-A55D-9CE049090094";
shapes = (
{
closed = 0;
nodes = (
(71,689,l),
(90,695,o),
(190,716,o),
(192,674,cs),
(207,372,o),
(180,0,o),
(241,0,cs),
(310,0,o),
(616,360,o),
(587,605,cs),
(577,692,o),
(353,742,o),
(370,654,cs),
(378,612,o),
(547,555,o),
(699,696,cs)
);
}
);
width = 699;
}
);
},
{
export = 0;
glyphname = W.ss01;
lastChange = "2024-04-11 12:56:10 +0000";
layers = (
{
layerId = "6F9C6BB4-2DCF-443B-A55D-9CE049090094";
shapes = (
{
closed = 0;
nodes = (
(71,689,l),
(90,695,o),
(190,716,o),
(192,674,cs),
(207,372,o),
(180,0,o),
(241,0,cs),
(317,0,o),
(536,370,o),
(536,674,c),
(551,372,o),
(524,0,o),
(585,0,cs),
(644,0,o),
(910,360,o),
(881,605,cs),
(871,692,o),
(647,742,o),
(664,654,cs),
(672,612,o),
(841,555,o),
(993,696,c)
);
}
);
width = 993;
}
);
},
{
export = 0;
glyphname = X.ss01;
lastChange = "2024-04-11 12:56:10 +0000";
layers = (
{
layerId = "6F9C6BB4-2DCF-443B-A55D-9CE049090094";
shapes = (
{
closed = 0;
nodes = (
(136,0,l),
(587,700,l)
);
},
{
closed = 0;
nodes = (
(793,230,l),
(731,83,o),
(637,0,o),
(602,0,cs),
(562,0,o),
(310,440,o),
(177,670,cs),
(159,700,o),
(141,700,o),
(71,701,c)
);
}
);
width = 788;
}
);
},
{
export = 0;
glyphname = Y.ss01;
lastChange = "2024-04-11 12:56:10 +0000";
layers = (
{
layerId = "6F9C6BB4-2DCF-443B-A55D-9CE049090094";
shapes = (
{
closed = 0;
nodes = (
(543,360,l),
(556,700,l)
);
},
{
closed = 0;
nodes = (
(81,700,l),
(175,700,o),
(180,699,o),
(177,588,cs),
(165,173,ls),
(162,68,o),
(169,0,o),
(241,0,cs),
(317,0,o),
(475,192,o),
(541,317,c)
);
},
{
closed = 0;
nodes = (
(543,360,l),
(522,-240,ls),
(520,-299,o),
(506,-324,o),
(476,-324,cs),
(443,-324,o),
(416,-294,o),
(416,-244,cs),
(416,-166,o),
(480,-99,o),
(580,20,cs),
(639,90,o),
(703,167,o),
(731,230,c)
);
}
);
width = 726;
}
);
},
{
export = 0;
glyphname = Z.ss01;
lastChange = "2024-04-11 12:56:10 +0000";
layers = (
{
layerId = "6F9C6BB4-2DCF-443B-A55D-9CE049090094";
shapes = (
{
closed = 0;
nodes = (
(679,230,l),
(617,83,o),
(524,-4,o),
(488,-4,cs),
(442,-4,o),
(377,6,o),
(303,6,cs),
(230,6,o),
(160,6,o),
(81,0,c)
);
},
{
closed = 0;
nodes = (
(649,740,l),
(51,-40,l)
);
},
{
closed = 0;
nodes = (
(148,700,l),
(251,686,o),
(453,688,o),
(619,700,c)
);
}
);
width = 674;
}
);
},
{
export = 0;
glyphname = A.ss02;
lastChange = "2024-04-11 12:56:10 +0000";
layers = (
{
layerId = "6F9C6BB4-2DCF-443B-A55D-9CE049090094";
shapes = (
{
closed = 0;
nodes = (
(385,700,l),
(457,189,o),
(462,0,o),
(519,0,cs)
);
},
{
closed = 0;
nodes = (
(153,228,l),
(451,228,l)
);
},
{
closed = 0;
nodes = (
(385,700,l),
(36,0,ls)
);
},
{
closed = 0;
nodes = (
(625,150,ls),
(596,50,o),
(553,0,o),
(519,0,c)
);
}
);
width = 625;
}
);
},
{
export = 0;
glyphname = B.ss02;
lastChange = "2024-04-11 12:56:10 +0000";
layers = (
{
layerId = "6F9C6BB4-2DCF-443B-A55D-9CE049090094";
shapes = (
{
closed = 0;
nodes = (
(57,700,l),
(314,700,l),
(363,700,o),
(455,696,o),
(455,571,cs),
(455,416,o),
(282,360,o),
(217,360,c)
);
},
{
closed = 0;
nodes = (
(231,360,l),
(394,385,o),
(475,351,o),
(475,220,cs),
(475,51,o),
(313,0,o),
(159,0,cs),
(132,0,o),
(130,12,o),
(131,39,cs),
(157,700,l)
);
}
);
width = 519;
}
);
},
{
export = 0;
glyphname = C.ss02;
lastChange = "2024-04-11 12:56:10 +0000";
layers = (
{
layerId = "6F9C6BB4-2DCF-443B-A55D-9CE049090094";
shapes = (
{
closed = 0;
nodes = (
(427,679,l),
(381,691,o),
(300,700,o),
(265,700,cs),
(97,700,o),
(51,562,o),
(51,326,cs),
(51,80,o),
(143,0,o),
(246,0,cs),
(345,0,o),
(455,74,o),
(502,150,cs)
);
}
);
width = 502;
}
);
},
{
export = 0;
glyphname = D.ss02;
lastChange = "2024-04-11 12:56:10 +0000";
layers = (
{
layerId = "6F9C6BB4-2DCF-443B-A55D-9CE049090094";
shapes = (
{
closed = 0;
nodes = (
(57,700,l),
(314,700,l),
(513,700,o),
(601,578,o),
(601,435,cs),
(601,237,o),
(431,0,o),
(159,0,cs),
(132,0,o),
(130,12,o),
(131,39,cs),
(157,700,l)
);
}
);
width = 645;
}
);
},
{
export = 0;
glyphname = E.ss02;
lastChange = "2024-04-11 12:56:10 +0000";
layers = (
{
layerId = "6F9C6BB4-2DCF-443B-A55D-9CE049090094";
shapes = (
{
closed = 0;
nodes = (
(57,700,l),
(438,700,l)
);
},
{
closed = 0;
nodes = (
(426,0,l),
(159,0,l),
(132,0,o),
(130,12,o),
(131,39,cs),
(157,700,l)
);
},
{
closed = 0;
nodes = (
(141,344,l),
(398,344,l)
);
}
);
width = 494;
}
);
},
{
export = 0;
glyphname = F.ss02;
lastChange = "2024-04-11 12:56:10 +0000";
layers = (
{
layerId = "6F9C6BB4-2DCF-443B-A55D-9CE049090094";
shapes = (
{
closed = 0;
nodes = (
(57,700,l),
(438,700,l)
);
},
{
closed = 0;
nodes = (
(141,334,l),
(398,334,l)
);
},
{
closed = 0;
nodes = (
(157,701,l),
(131,0,l)
);
}
);
width = 495;
}
);
},
{
export = 0;
glyphname = G.ss02;
lastChange = "2024-04-11 12:56:10 +0000";
layers = (
{
layerId = "6F9C6BB4-2DCF-443B-A55D-9CE049090094";
shapes = (
{
closed = 0;
nodes = (
(591,151,l),
(578,88,o),
(329,-25,o),
(329,-244,cs),
(329,-305,o),
(351,-347,o),
(390,-347,cs),
(442,-347,o),
(443,-285,o),
(443,-104,cs),
(443,361,l),
(292,361,l)
);
},
{
closed = 0;
nodes = (
(427,679,l),
(381,691,o),
(300,700,o),
(265,700,cs),
(97,700,o),
(51,562,o),
(51,326,cs),
(51,80,o),
(143,0,o),
(246,0,cs),
(345,0,o),
(443,154,o),
(443,270,cs)
);
}
);
width = 591;
}
);
},
{
export = 0;
glyphname = H.ss02;
lastChange = "2024-04-11 12:56:10 +0000";
layers = (
{
layerId = "6F9C6BB4-2DCF-443B-A55D-9CE049090094";
shapes = (
{
closed = 0;
nodes = (
(59,320,l),
(576,320,l)
);
},
{
closed = 0;
nodes = (
(172,700,l),
(150,0,l)
);
},
{
closed = 0;
nodes = (
(749,150,ls),
(690,50,o),
(633,0,o),
(599,0,cs),
(566,0,o),
(565,38,o),
(568,119,cs),
(590,700,l)
);
}
);
width = 749;
}
);
},
{
export = 0;
glyphname = I.ss02;
lastChange = "2024-04-11 12:56:10 +0000";
layers = (
{
layerId = "6F9C6BB4-2DCF-443B-A55D-9CE049090094";
shapes = (
{
closed = 0;
nodes = (
(44,170,l),
(19,65,o),
(100,0,o),
(179,0,cs),
(258,0,o),
(334,65,o),
(339,212,cs),
(357,700,l),
(255,687,o),
(145,687,o),
(91,700,c)
);
}
);
width = 411;
}
);
},
{
export = 0;
glyphname = J.ss02;
lastChange = "2024-04-11 12:56:10 +0000";
layers = (
{
anchors = (
{
name = bottom;
pos = (173,0);
},
{
name = top;
pos = (173,650);
}
);
layerId = "6F9C6BB4-2DCF-443B-A55D-9CE049090094";
shapes = (
{
closed = 0;
nodes = (
(345,151,l),
(332,88,o),
(83,-25,o),
(83,-244,cs),
(83,-305,o),
(105,-347,o),
(144,-347,cs),
(196,-347,o),
(199,-285,o),
(197,-104,cs),
(195,51,o),
(190,206,o),
(197,361,cs),
(213,700,l),
(213,700,o),
(177,228,o),
(36,128,c)
);
}
);
width = 345;
}
);
},
{
export = 0;
glyphname = K.ss02;
lastChange = "2024-04-11 12:56:10 +0000";
layers = (
{
layerId = "6F9C6BB4-2DCF-443B-A55D-9CE049090094";
shapes = (
{
closed = 0;
nodes = (
(417,700,l),
(100,358,l),
(313,95,ls),
(347,53,o),
(404,0,o),
(456,0,cs),
(490,0,o),
(547,50,o),
(606,150,cs)
);
},
{
closed = 0;
nodes = (
(80,700,l),
(59,0,l)
);
}
);
width = 606;
}
);
},
{
export = 0;
glyphname = L.ss02;
lastChange = "2024-04-11 12:56:10 +0000";
layers = (
{
layerId = "6F9C6BB4-2DCF-443B-A55D-9CE049090094";
shapes = (
{
closed = 0;
nodes = (
(83,700,l),
(57,2,l),
(75,12,o),
(103,14,o),
(124,14,cs),
(209,14,o),
(185,0,o),
(270,0,cs),
(304,0,o),
(361,50,o),
(420,150,cs)
);
}
);
width = 420;
}
);
},
{
export = 0;
glyphname = M.ss02;
lastChange = "2024-04-11 12:56:10 +0000";
layers = (
{
layerId = "6F9C6BB4-2DCF-443B-A55D-9CE049090094";
shapes = (
{
closed = 0;
nodes = (
(38,0,l),
(209,700,l),
(360,83,l),
(696,700,l),
(697,189,o),
(682,0,o),
(739,0,cs)
);
},
{
closed = 0;
nodes = (
(845,150,ls),
(816,50,o),
(773,0,o),
(739,0,c)
);
}
);
width = 845;
}
);
},
{
export = 0;
glyphname = N.ss02;
lastChange = "2024-04-11 12:56:10 +0000";
layers = (
{
layerId = "6F9C6BB4-2DCF-443B-A55D-9CE049090094";
shapes = (
{
closed = 0;
nodes = (
(486,700,l),
(461,0,l),
(426,84,o),
(112,600,o),
(83,699,c),
(57,2,l)
);
}
);
width = 543;
}
);
},
{
export = 0;
glyphname = O.ss02;
lastChange = "2024-04-11 12:56:10 +0000";
layers = (
{
layerId = "6F9C6BB4-2DCF-443B-A55D-9CE049090094";
shapes = (
{
closed = 0;
nodes = (
(140,170,l),
(74,170,o),
(44,234,o),
(44,317,cs),
(44,474,o),
(148,700,o),
(323,700,cs),
(479,700,o),
(564,565,o),
(564,394,cs),
(564,205,o),
(458,0,o),
(268,0,cs),
(190,0,o),
(128,30,o),
(89,77,c)
);
}
);
width = 690;
}
);
},
{
export = 0;
glyphname = P.ss02;
lastChange = "2024-04-11 12:56:10 +0000";
layers = (
{
layerId = "6F9C6BB4-2DCF-443B-A55D-9CE049090094";
shapes = (
{
closed = 0;
nodes = (
(57,700,l),
(339,700,l),
(399,700,o),
(511,695,o),
(511,543,cs),
(511,354,o),
(301,286,o),
(221,286,c)
);
},
{
closed = 0;
nodes = (
(238,286,l)
);
},
{
closed = 0;
nodes = (
(157,-1,l),
(183,700,l)
);
}
);
width = 553;
}
);
},
{
export = 0;
glyphname = Q.ss02;
lastChange = "2024-04-11 12:56:10 +0000";
layers = (
{
layerId = "6F9C6BB4-2DCF-443B-A55D-9CE049090094";
shapes = (
{
closed = 0;
nodes = (
(68,200,l),
(50,216,o),
(45,251,o),
(45,317,cs),
(45,474,o),
(149,700,o),
(324,700,cs),
(480,700,o),
(565,565,o),
(565,394,cs),
(565,205,o),
(459,0,o),
(269,0,cs),
(191,0,o),
(109,64,o),
(109,100,cs),
(109,121,o),
(150,140,o),
(211,140,cs),
(319,140,o),
(491,79,o),
(607,-146,c)
);
}
);
width = 707;
}
);
},
{
export = 0;
glyphname = R.ss02;
lastChange = "2024-04-11 12:56:10 +0000";
layers = (
{
layerId = "6F9C6BB4-2DCF-443B-A55D-9CE049090094";
shapes = (
{
closed = 0;
nodes = (
(57,700,l),
(334,700,l),
(387,700,o),
(486,696,o),
(486,561,cs),
(486,394,o),
(329,292,o),
(231,338,c)
);
},
{
closed = 0;
nodes = (
(131,0,l),
(157,700,l)
);
},
{
closed = 0;
nodes = (
(198,378,l),
(410,95,ls),
(441,53,o),
(493,0,o),
(545,0,cs)
);
}
);
width = 581;
}
);
},
{
export = 0;
glyphname = S.ss02;
lastChange = "2024-04-11 12:56:10 +0000";
layers = (
{
hints = (
{
horizontal = 1;
origin = (0,12);
settings = {
deltaV = {
"{100, 100, 0, 0, 0, 0}" = {
"62" = 0;
};
};
};
type = TTDelta;
},
{
horizontal = 1;
origin = (0,11);
settings = {
deltaV = {
"{100, 100, 0, 0, 0, 0}" = {
"62" = 0;
};
};
};
type = TTDelta;
},
{
horizontal = 1;
origin = (0,10);
settings = {
deltaV = {
"{100, 100, 0, 0, 0, 0}" = {
"62" = 0;
};
};
};
type = TTDelta;
},
{
horizontal = 1;
origin = (0,9);
settings = {
deltaV = {
"{100, 100, 0, 0, 0, 0}" = {
"62" = 0;
};
};
};
type = TTDelta;
},
{
horizontal = 1;
origin = (0,8);
settings = {
deltaV = {
"{100, 100, 0, 0, 0, 0}" = {
"62" = 0;
};
};
};
type = TTDelta;
},
{
horizontal = 1;
origin = (0,7);
settings = {
deltaV = {
"{100, 100, 0, 0, 0, 0}" = {
"62" = 0;
};
};
};
type = TTDelta;
},
{
horizontal = 1;
origin = (0,6);
settings = {
deltaV = {
"{100, 100, 0, 0, 0, 0}" = {
"62" = 0;
};
};
};
type = TTDelta;
},
{
horizontal = 1;
origin = (0,5);
settings = {
deltaV = {
"{100, 100, 0, 0, 0, 0}" = {
"62" = 0;
};
};
};
type = TTDelta;
},
{
horizontal = 1;
origin = (0,4);
settings = {
deltaV = {
"{100, 100, 0, 0, 0, 0}" = {
"62" = 0;
};
};
};
type = TTDelta;
},
{
horizontal = 1;
origin = (0,3);
settings = {
deltaV = {
"{100, 100, 0, 0, 0, 0}" = {
"62" = 0;
};
};
};
type = TTDelta;
},
{
horizontal = 1;
origin = (0,2);
settings = {
deltaV = {
"{100, 100, 0, 0, 0, 0}" = {
"62" = 0;
};
};
};
type = TTDelta;
},
{
horizontal = 1;
origin = (0,1);
settings = {
deltaV = {
"{100, 100, 0, 0, 0, 0}" = {
"62" = 0;
};
};
};
type = TTDelta;
},
{
horizontal = 1;
origin = (0,0);
settings = {
deltaV = {
"{100, 100, 0, 0, 0, 0}" = {
"62" = 0;
};
};
};
type = TTDelta;
}
);
layerId = "6F9C6BB4-2DCF-443B-A55D-9CE049090094";
shapes = (
{
closed = 0;
nodes = (
(309,623,l),
(306,671,o),
(270,700,o),
(214,700,cs),
(128,700,o),
(42,638,o),
(28,565,cs),
(-15,355,o),
(385,361,o),
(344,150,cs),
(326,66,o),
(227,0,o),
(117,0,cs),
(84,0,o),
(49,13,o),
(35,31,c)
);
},
{
closed = 0;
nodes = (
(88,3,ls),
(301,-33,o),
(449,50,o),
(501,150,cs)
);
}
);
width = 501;
}
);
},
{
export = 0;
glyphname = T.ss02;
lastChange = "2024-04-11 12:56:10 +0000";
layers = (
{
layerId = "6F9C6BB4-2DCF-443B-A55D-9CE049090094";
shapes = (
{
closed = 0;
nodes = (
(319,700,l),
(294,0,l)
);
},
{
closed = 0;
nodes = (
(36,701,l),
(576,700,l)
);
}
);
width = 611;
}
);
},
{
export = 0;
glyphname = U.ss02;
lastChange = "2024-04-11 12:56:10 +0000";
layers = (
{
layerId = "6F9C6BB4-2DCF-443B-A55D-9CE049090094";
shapes = (
{
closed = 0;
nodes = (
(532,0,l),
(499,0,o),
(498,38,o),
(501,119,cs),
(523,700,l)
);
},
{
closed = 0;
nodes = (
(149,700,l),
(132,173,ls),
(129,68,o),
(187,0,o),
(259,0,cs),
(335,0,o),
(440,105,o),
(506,230,c)
);
},
{
closed = 0;
nodes = (
(638,150,ls),
(609,50,o),
(566,0,o),
(532,0,c)
);
}
);
width = 638;
}
);
},
{
export = 0;
glyphname = V.ss02;
lastChange = "2024-04-11 12:56:10 +0000";
layers = (
{
layerId = "6F9C6BB4-2DCF-443B-A55D-9CE049090094";
shapes = (
{
closed = 0;
nodes = (
(39,700,l),
(192,0,l),
(258,78,o),
(478,455,o),
(445,700,cs)
);
}
);
width = 492;
}
);
},
{
export = 0;
glyphname = W.ss02;
lastChange = "2024-04-11 12:56:10 +0000";
layers = (
{
layerId = "6F9C6BB4-2DCF-443B-A55D-9CE049090094";
shapes = (
{
closed = 0;
nodes = (
(39,700,l),
(192,0,l),
(258,78,o),
(478,455,o),
(445,700,c),
(598,0,l),
(664,78,o),
(884,455,o),
(851,700,cs)
);
}
);
width = 898;
}
);
},
{
export = 0;
glyphname = X.ss02;
lastChange = "2024-04-11 12:56:10 +0000";
layers = (
{
layerId = "6F9C6BB4-2DCF-443B-A55D-9CE049090094";
shapes = (
{
closed = 0;
nodes = (
(101,0,l),
(552,700,l)
);
},
{
closed = 0;
nodes = (
(567,0,l),
(527,0,o),
(254,470,o),
(121,700,c)
);
},
{
closed = 0;
nodes = (
(673,150,ls),
(644,50,o),
(601,0,o),
(567,0,c)
);
}
);
width = 673;
}
);
},
{
export = 0;
glyphname = Y.ss02;
lastChange = "2024-04-11 12:56:10 +0000";
layers = (
{
layerId = "6F9C6BB4-2DCF-443B-A55D-9CE049090094";
shapes = (
{
closed = 0;
nodes = (
(79,705,l),
(61,173,ls),
(57,68,o),
(65,0,o),
(137,0,cs),
(213,0,o),
(371,192,o),
(437,317,c)
);
},
{
closed = 0;
nodes = (
(585,151,l),
(572,88,o),
(323,-25,o),
(323,-244,cs),
(323,-305,o),
(345,-347,o),
(384,-347,cs),
(436,-347,o),
(439,-285,o),
(437,-104,cs),
(435,51,o),
(430,206,o),
(437,361,cs),
(453,700,l)
);
}
);
width = 585;
}
);
},
{
export = 0;
glyphname = Z.ss02;
lastChange = "2024-04-11 12:56:10 +0000";
layers = (
{
layerId = "6F9C6BB4-2DCF-443B-A55D-9CE049090094";
shapes = (
{
closed = 0;
nodes = (
(44,-7,l),
(103,26,o),
(397,0,o),
(464,0,cs),
(498,0,o),
(555,50,o),
(614,150,cs)
);
},
{
closed = 0;
nodes = (
(518,733,l),
(19,-40,l)
);
},
{
closed = 0;
nodes = (
(26,700,l),
(497,700,l)
);
}
);
width = 614;
}
);
},
{
export = 0;
glyphname = A.ss03;
lastChange = "2024-04-11 12:56:10 +0000";
layers = (
{
background = {
shapes = (
{
closed = 0;
nodes = (
(443,248,l),
(728,248,l)
);
},
{
closed = 0;
nodes = (
(752,700,l),
(472,261,o),
(307,1,o),
(183,1,cs),
(37,8,o),
(33,141,o),
(187,141,cs),
(271,141,o),
(403,80,o),
(493,-145,c)
);
},
{
closed = 0;
nodes = (
(950,230,l),
(888,83,o),
(794,0,o),
(759,0,cs),
(713,0,o),
(721,147,o),
(740,476,cs),
(744,552,o),
(747,604,o),
(752,700,c),
(676,700,o),
(594,682,o),
(525,667,cs),
(416,643,o),
(341,626,o),
(378,700,c)
);
}
);
};
layerId = "6F9C6BB4-2DCF-443B-A55D-9CE049090094";
shapes = (
{
closed = 0;
nodes = (
(443,248,l),
(728,248,l)
);
},
{
closed = 0;
nodes = (
(752,700,l),
(376,141,o),
(292,1,o),
(164,1,c),
(104,4,o),
(73,40,o),
(73,74,cs),
(73,108,o),
(110,141,o),
(187,141,cs),
(271,141,o),
(403,80,o),
(493,-145,c)
);
},
{
closed = 0;
nodes = (
(950,230,l),
(888,83,o),
(794,0,o),
(759,0,cs),
(713,0,o),
(721,147,o),
(740,476,cs),
(752,700,l),
(676,700,o),
(594,682,o),
(525,667,cs),
(416,643,o),
(281,604,o),
(241,700,c)
);
}
);
width = 945;
}
);
},
{
export = 0;
glyphname = C.ss03;
lastChange = "2024-04-11 12:56:10 +0000";
layers = (
{
background = {
shapes = (
{
closed = 0;
nodes = (
(600,230,l),
(524,105,o),
(404,0,o),
(316,0,cs),
(234,0,o),
(177,84,o),
(170,213,cs),
(159,415,o),
(234,700,o),
(372,700,cs),
(510,700,o),
(576,714,o),
(576,610,cs),
(576,501,o),
(430,411,o),
(310,411,cs),
(230,411,o),
(143,449,o),
(72,562,c)
);
}
);
};
layerId = "6F9C6BB4-2DCF-443B-A55D-9CE049090094";
shapes = (
{
closed = 0;
nodes = (
(600,230,l),
(524,105,o),
(404,0,o),
(316,0,cs),
(234,0,o),
(177,84,o),
(170,213,cs),
(155,490,o),
(309,697,o),
(504,697,cs),
(547,697,o),
(577,671,o),
(577,612,cs),
(578,487,o),
(437,412,o),
(291,412,cs),
(211,412,o),
(130,434,o),
(70,484,c)
);
}
);
width = 595;
}
);
},
{
export = 0;
glyphname = H.ss03;
lastChange = "2024-04-11 12:56:10 +0000";
layers = (
{
background = {
shapes = (
{
closed = 0;
nodes = (
(299,350,l),
(713,350,l)
);
},
{
closed = 0;
nodes = (
(927,230,l),
(865,83,o),
(771,0,o),
(736,0,cs),
(703,0,o),
(702,38,o),
(705,119,cs),
(727,630,ls),
(729,684,o),
(721,793,o),
(777,793,cs),
(801,793,o),
(819,773,o),
(819,750,cs),
(819,576,o),
(299,829,o),
(194,829,cs),
(149,829,o),
(129,738,o),
(157,684,c)
);
},
{
closed = 0;
nodes = (
(310,653,l),
(293,192,ls),
(289,90,o),
(254,0,o),
(173,1,cs),
(107,2,o),
(73,37,o),
(73,72,cs),
(73,107,o),
(110,141,o),
(187,141,cs),
(271,141,o),
(403,80,o),
(493,-145,c)
);
}
);
};
layerId = "6F9C6BB4-2DCF-443B-A55D-9CE049090094";
shapes = (
{
closed = 0;
nodes = (
(299,350,l),
(713,350,l)
);
},
{
closed = 0;
nodes = (
(927,230,l),
(865,83,o),
(771,0,o),
(736,0,cs),
(703,0,o),
(702,38,o),
(705,119,cs),
(727,630,ls),
(729,684,o),
(721,793,o),
(777,793,cs),
(801,793,o),
(819,773,o),
(819,750,cs),
(819,705,o),
(786,689,o),
(733,689,cs),
(587,689,o),
(362,817,o),
(222,817,cs),
(178,817,o),
(141,805,o),
(118,771,c)
);
},
{
closed = 0;
nodes = (
(310,653,l),
(293,192,ls),
(289,90,o),
(254,0,o),
(173,1,cs),
(107,2,o),
(73,37,o),
(73,72,cs),
(73,107,o),
(110,141,o),
(187,141,cs),
(271,141,o),
(403,80,o),
(493,-145,c)
);
}
);
width = 922;
}
);
},
{
export = 0;
glyphname = L.ss03;
lastChange = "2024-04-11 12:56:10 +0000";
layers = (
{
layerId = "6F9C6BB4-2DCF-443B-A55D-9CE049090094";
shapes = (
{
closed = 0;
nodes = (
(458,0,l),
(191,0,ls),
(164,0,o),
(162,12,o),
(163,39,cs),
(184,588,ls),
(188,699,o),
(182,700,o),
(88,700,c)
);
}
);
width = 546;
}
);
},
{
export = 0;
glyphname = M.ss03;
lastChange = "2024-04-11 12:56:10 +0000";
layers = (
{
background = {
shapes = (
{
closed = 0;
nodes = (
(1264,230,l),
(1202,83,o),
(1108,0,o),
(1073,0,cs),
(1016,0,o),
(1040,189,o),
(1066,700,c),
(931,273,o),
(781,104,o),
(715,54,c),
(660,144,o),
(597,335,o),
(581,700,c),
(375,113,ls),
(346,30,o),
(313,1,o),
(244,1,cs),
(166,1,o),
(84,65,o),
(84,101,cs),
(84,159,o),
(401,206,o),
(582,-145,c)
);
}
);
};
layerId = "6F9C6BB4-2DCF-443B-A55D-9CE049090094";
shapes = (
{
closed = 0;
nodes = (
(1264,230,l),
(1202,83,o),
(1108,0,o),
(1073,0,cs),
(1016,0,o),
(1040,189,o),
(1066,700,c),
(931,273,o),
(781,104,o),
(715,54,c),
(660,144,o),
(597,335,o),
(581,700,c),
(380,128,o),
(363,-8,o),
(182,1,cs),
(36,8,o),
(32,141,o),
(186,141,cs),
(270,141,o),
(402,80,o),
(492,-145,c)
);
},
{
closed = 0;
nodes = (
(581,700,l),
(522,700,o),
(458,682,o),
(404,667,cs),
(319,643,o),
(213,604,o),
(182,700,c)
);
}
);
width = 1259;
}
);
},
{
export = 0;
glyphname = T.ss03;
lastChange = "2024-04-11 12:56:10 +0000";
layers = (
{
background = {
shapes = (
{
closed = 0;
nodes = (
(128,634,l),
(108,692,o),
(156,709,o),
(197,709,cs),
(309,709,o),
(443,690,o),
(537,690,cs),
(578,690,o),
(626,707,o),
(606,765,c)
);
},
{
closed = 0;
nodes = (
(402,700,l),
(377,0,l)
);
}
);
};
layerId = "6F9C6BB4-2DCF-443B-A55D-9CE049090094";
shapes = (
{
closed = 0;
nodes = (
(77,634,l),
(57,692,o),
(105,709,o),
(146,709,cs),
(284,709,o),
(449,690,o),
(566,690,cs),
(632,690,o),
(658,732,o),
(618,759,c)
);
},
{
closed = 0;
nodes = (
(367,700,l),
(342,0,l)
);
}
);
width = 702;
}
);
},
{
export = 0;
glyphname = A.ss04;
kernLeft = A;
kernRight = A;
lastChange = "2024-04-11 12:56:10 +0000";
layers = (
{
anchors = (
{
name = bottom;
pos = (287,0);
},
{
name = ogonek;
pos = (526,-5);
},
{
name = top;
pos = (287,650);
}
);
background = {
shapes = (
{
closed = 0;
nodes = (
(407,0,l),
(442,700,l)
);
}
);
};
layerId = "6F9C6BB4-2DCF-443B-A55D-9CE049090094";
shapes = (
{
attr = {
lineCapEnd = "1";
lineCapStart = "1";
};
closed = 0;
nodes = (
(526,0,l),
(296,700,l),
(295,700,l),
(45,0,ls)
);
},
{
attr = {
lineCapEnd = "1";
lineCapStart = "1";
};
closed = 0;
nodes = (
(137,228,l),
(440,228,l)
);
}
);
width = 571;
}
);
},
{
export = 0;
glyphname = AE.ss04;
kernLeft = A;
kernRight = E;
lastChange = "2024-04-11 12:56:10 +0000";
layers = (
{
anchors = (
{
name = bottom;
pos = (241,0);
},
{
name = ogonek;
pos = (499,10);
},
{
name = top;
pos = (241,650);
},
{
name = topleft;
pos = (532,700);
}
);
layerId = "6F9C6BB4-2DCF-443B-A55D-9CE049090094";
shapes = (
{
attr = {
identifier = ID0x7fadab0a7ef0;
lineCapEnd = "1";
lineCapStart = "1";
};
closed = 0;
nodes = (
(487,700,l),
(401,700,l),
(400,700,l),
(89,0,ls)
);
},
{
attr = {
identifier = ID0x7fadab0a7ef0;
lineCapEnd = "1";
lineCapStart = "1";
};
closed = 0;
nodes = (
(181,228,l),
(746,394,l)
);
},
{
attr = {
identifier = ID0x7fadab051540;
lineCapEnd = "1";
lineCapStart = "1";
};
closed = 0;
nodes = (
(779,0,l),
(485,0,l),
(487,700,l),
(770,700,l)
);
}
);
width = 870;
}
);
metricLeft = A;
metricRight = E;
},
{
export = 0;
glyphname = B.ss04;
kernLeft = H;
kernRight = B;
lastChange = "2024-04-11 12:56:10 +0000";
layers = (
{
background = {
shapes = (
{
closed = 0;
nodes = (
(146,0,l),
(93,0,o),
(106,64,o),
(114,152,cs),
(164,700,l)
);
},
{
closed = 0;
nodes = (
(47,700,l),
(107,700,o),
(237,700,o),
(286,700,cs),
(335,700,o),
(427,696,o),
(427,567,cs),
(427,406,o),
(278,358,o),
(213,358,c),
(300,360,ls),
(351,360,o),
(447,355,o),
(447,220,cs),
(447,51,o),
(291,1,o),
(223,1,cs)
);
}
);
};
layerId = "6F9C6BB4-2DCF-443B-A55D-9CE049090094";
shapes = (
{
attr = {
lineCapEnd = "1";
lineCapStart = "1";
};
closed = 0;
nodes = (
(129,361,l),
(352,361,o),
(447,351,o),
(447,220,cs),
(447,51,o),
(307,0,o),
(153,0,cs),
(115,0,l),
(129,700,l),
(286,700,l),
(335,700,o),
(427,696,o),
(427,571,cs),
(427,416,o),
(300,360,o),
(129,360,c)
);
}
);
width = 541;
}
);
metricLeft = H;
},
{
export = 0;
glyphname = C.ss04;
kernLeft = O;
kernRight = C;
lastChange = "2024-04-11 12:56:10 +0000";
layers = (
{
anchors = (
{
name = bottom;
pos = (298,0);
},
{
name = top;
pos = (298,700);
}
);
background = {
shapes = (
{
closed = 0;
nodes = (
(488,681,l),
(441,694,o),
(379,700,o),
(321,700,cs),
(183,700,o),
(108,415,o),
(119,213,cs),
(126,84,o),
(183,0,o),
(265,0,cs),
(353,0,o),
(495,152,o),
(549,230,c)
);
}
);
};
layerId = "6F9C6BB4-2DCF-443B-A55D-9CE049090094";
shapes = (
{
attr = {
lineCapEnd = "1";
lineCapStart = "1";
};
closed = 0;
nodes = (
(512,679,l),
(453,693,o),
(402,700,o),
(357,700,cs),
(174,700,o),
(98,583,o),
(98,326,cs),
(98,138,o),
(172,0,o),
(310,0,cs),
(370,0,o),
(440,25,o),
(523,82,cs)
);
}
);
width = 583;
}
);
metricLeft = O;
},
{
export = 0;
glyphname = D.ss04;
kernLeft = H;
kernRight = O;
lastChange = "2024-04-11 12:56:10 +0000";
layers = (
{
background = {
shapes = (
{
closed = 0;
nodes = (
(46,700,l),
(106,700,o),
(236,700,o),
(285,700,cs),
(334,700,o),
(426,696,o),
(426,571,c)
);
},
{
closed = 0;
nodes = (
(446,220,l),
(446,51,o),
(284,0,o),
(130,0,cs),
(103,0,o),
(100,12,o),
(102,39,cs),
(163,700,l)
);
},
{
closed = 0;
nodes = (
(190,20,l),
(244,7,o),
(291,1,o),
(329,1,cs),
(423,1,o),
(498,141,o),
(532,267,cs),
(581,453,o),
(572,701,o),
(430,701,cs),
(372,701,o),
(308,658,o),
(243,596,c)
);
}
);
};
layerId = "6F9C6BB4-2DCF-443B-A55D-9CE049090094";
shapes = (
{
attr = {
lineCapEnd = "1";
lineCapStart = "1";
};
closed = 0;
nodes = (
(128,700,l),
(285,700,l),
(484,700,o),
(572,578,o),
(572,435,cs),
(572,178,o),
(403,0,o),
(130,0,c),
(115,0,l),
(128,700,l)
);
}
);
width = 670;
}
);
metricLeft = H;
metricRight = O;
},
{
export = 0;
glyphname = Eth.ss04;
kernLeft = Eth;
kernRight = O;
lastChange = "2024-04-11 12:56:10 +0000";
layers = (
{
layerId = "6F9C6BB4-2DCF-443B-A55D-9CE049090094";
shapes = (
{
ref = D;
},
{
closed = 0;
nodes = (
(-11,361,l),
(419,361,l)
);
}
);
width = 733;
}
);
metricRight = D;
},
{
export = 0;
glyphname = E.ss04;
kernLeft = H;
kernRight = E;
lastChange = "2024-04-11 12:56:10 +0000";
layers = (
{
anchors = (
{
name = bottom;
pos = (264,0);
},
{
name = ogonek;
pos = (489,10);
},
{
name = top;
pos = (264,650);
},
{
name = topleft;
pos = (2,700);
}
);
layerId = "6F9C6BB4-2DCF-443B-A55D-9CE049090094";
shapes = (
{
attr = {
lineCapEnd = "1";
lineCapStart = "1";
};
closed = 0;
nodes = (
(409,0,l),
(115,0,l),
(129,700,l),
(412,700,l)
);
},
{
attr = {
lineCapEnd = "1";
lineCapStart = "1";
};
closed = 0;
nodes = (
(122,344,l),
(376,344,l)
);
}
);
width = 482;
}
);
metricLeft = H;
},
{
export = 0;
glyphname = F.ss04;
kernLeft = H;
kernRight = F;
lastChange = "2024-04-11 12:56:10 +0000";
layers = (
{
layerId = "6F9C6BB4-2DCF-443B-A55D-9CE049090094";
shapes = (
{
attr = {
lineCapEnd = "1";
lineCapStart = "1";
};
closed = 0;
nodes = (
(115,0,l),
(129,700,l),
(412,700,l)
);
},
{
attr = {
lineCapEnd = "1";
lineCapStart = "1";
};
closed = 0;
nodes = (
(122,344,l),
(376,344,l)
);
}
);
width = 492;
}
);
metricLeft = H;
},
{
export = 0;
glyphname = G.ss04;
kernLeft = O;
kernRight = B;
lastChange = "2024-04-11 12:56:10 +0000";
layers = (
{
background = {
shapes = (
{
closed = 0;
nodes = (
(485,361,l),
(334,361,l)
);
},
{
closed = 0;
nodes = (
(469,679,l),
(423,691,o),
(342,700,o),
(307,700,cs),
(139,700,o),
(93,562,o),
(93,326,cs),
(93,80,o),
(185,0,o),
(288,0,cs),
(387,0,o),
(485,154,o),
(485,270,cs)
);
}
);
};
layerId = "6F9C6BB4-2DCF-443B-A55D-9CE049090094";
shapes = (
{
attr = {
lineCapEnd = "1";
lineCapStart = "1";
};
closed = 0;
nodes = (
(512,679,l),
(453,693,o),
(402,700,o),
(357,700,cs),
(174,700,o),
(98,583,o),
(98,326,cs),
(98,138,o),
(172,0,o),
(310,0,cs),
(439,0,o),
(537,152,o),
(529,341,c),
(292,341,l)
);
}
);
width = 589;
}
);
metricLeft = O;
},
{
export = 0;
glyphname = H.ss04;
kernLeft = H;
kernRight = H;
lastChange = "2024-04-11 12:56:10 +0000";
layers = (
{
background = {
shapes = (
{
closed = 0;
nodes = (
(23,320,l),
(553,320,l)
);
},
{
closed = 0;
nodes = (
(108,699,l),
(161,699,o),
(151,635,o),
(148,547,cs),
(127,-1,l)
);
},
{
closed = 0;
nodes = (
(767,230,l),
(705,83,o),
(611,0,o),
(576,0,cs),
(543,0,o),
(542,38,o),
(545,119,cs),
(567,700,l)
);
}
);
};
layerId = "6F9C6BB4-2DCF-443B-A55D-9CE049090094";
shapes = (
{
attr = {
lineCapEnd = "1";
lineCapStart = "1";
};
closed = 0;
nodes = (
(136,320,l),
(515,320,l)
);
},
{
attr = {
lineCapEnd = "1";
lineCapStart = "1";
};
closed = 0;
nodes = (
(133,700,l),
(120,0,l)
);
},
{
attr = {
lineCapEnd = "1";
lineCapStart = "1";
};
closed = 0;
nodes = (
(533,700,l),
(520,0,l)
);
}
);
width = 653;
}
);
},
{
export = 0;
glyphname = I.ss04;
kernLeft = I;
kernRight = I;
lastChange = "2024-04-11 12:56:10 +0000";
layers = (
{
anchors = (
{
name = bottom;
pos = (199,0);
},
{
name = ogonek;
pos = (395,10);
},
{
name = top;
pos = (199,650);
},
{
name = topleft;
pos = (-26,700);
}
);
background = {
shapes = (
{
closed = 0;
nodes = (
(96,170,l),
(71,69,o),
(110,0,o),
(192,0,cs),
(297,0,o),
(388,114,o),
(393,251,cs),
(409,700,l),
(141,700,l)
);
}
);
};
layerId = "6F9C6BB4-2DCF-443B-A55D-9CE049090094";
shapes = (
{
attr = {
lineCapEnd = "1";
lineCapStart = "1";
};
closed = 0;
nodes = (
(208,700,l),
(195,0,l)
);
},
{
attr = {
lineCapEnd = "1";
lineCapStart = "1";
};
closed = 0;
nodes = (
(107,700,l),
(307,700,l)
);
},
{
attr = {
lineCapEnd = "1";
lineCapStart = "1";
};
closed = 0;
nodes = (
(90,0,l),
(300,0,l)
);
}
);
width = 397;
}
);
},
{
export = 0;
glyphname = IJ.ss04;
kernLeft = I;
kernRight = J;
lastChange = "2024-04-11 12:56:10 +0000";
layers = (
{
background = {
shapes = (
{
pos = (-6,0);
ref = I;
}
);
};
layerId = "6F9C6BB4-2DCF-443B-A55D-9CE049090094";
shapes = (
{
attr = {
identifier = ID0x7fadab45f450;
lineCapEnd = "1";
lineCapStart = "1";
};
closed = 0;
nodes = (
(202,700,l),
(195,320,l)
);
},
{
attr = {
identifier = ID0x7fadab45f450;
lineCapEnd = "1";
lineCapStart = "1";
};
closed = 0;
nodes = (
(101,700,l),
(301,700,l)
);
},
{
attr = {
identifier = ID0x7fadab45f450;
lineCapEnd = "1";
lineCapStart = "1";
};
closed = 0;
nodes = (
(90,320,l),
(300,320,l)
);
},
{
pos = (146,0);
ref = J;
}
);
width = 713;
}
);
metricLeft = I;
metricRight = J;
},
{
export = 0;
glyphname = J.ss04;
kernLeft = J;
kernRight = J;
lastChange = "2024-04-11 12:56:10 +0000";
layers = (
{
anchors = (
{
name = bottom;
pos = (213,0);
},
{
name = top;
pos = (314,650);
}
);
background = {
shapes = (
{
closed = 0;
nodes = (
(349,151,l),
(336,88,o),
(87,-25,o),
(87,-244,cs),
(87,-305,o),
(109,-347,o),
(148,-347,cs),
(200,-347,o),
(203,-285,o),
(201,-104,cs),
(199,51,o),
(194,206,o),
(201,361,cs),
(217,700,l),
(217,700,o),
(181,228,o),
(40,128,c)
);
}
);
};
layerId = "6F9C6BB4-2DCF-443B-A55D-9CE049090094";
shapes = (
{
attr = {
lineCapEnd = "1";
lineCapStart = "1";
};
closed = 0;
nodes = (
(48,239,l),
(39,82,o),
(89,0,o),
(193,0,cs),
(282,0,o),
(341,80,o),
(343,212,cs),
(351,700,l)
);
}
);
width = 426;
}
);
},
{
export = 0;
glyphname = K.ss04;
kernLeft = H;
kernRight = K;
lastChange = "2024-04-11 12:56:10 +0000";
layers = (
{
background = {
shapes = (
{
closed = 0;
nodes = (
(407,0,l),
(113,0,l),
(127,700,l),
(410,700,l)
);
},
{
closed = 0;
nodes = (
(120,344,l),
(374,344,l)
);
}
);
};
layerId = "6F9C6BB4-2DCF-443B-A55D-9CE049090094";
shapes = (
{
attr = {
lineCapEnd = "1";
lineCapStart = "1";
};
closed = 0;
nodes = (
(451,700,l),
(134,348,l),
(490,0,l)
);
},
{
attr = {
lineCapEnd = "1";
lineCapStart = "1";
};
closed = 0;
nodes = (
(127,700,l),
(115,0,l)
);
}
);
width = 530;
}
);
metricLeft = H;
},
{
export = 0;
glyphname = L.ss04;
kernLeft = H;
kernRight = L;
lastChange = "2024-04-11 12:56:10 +0000";
layers = (
{
background = {
shapes = (
{
closed = 0;
nodes = (
(30,700,l),
(411,700,l)
);
},
{
closed = 0;
nodes = (
(399,0,l),
(132,0,l),
(105,0,o),
(103,12,o),
(104,39,cs),
(130,700,l)
);
},
{
closed = 0;
nodes = (
(114,344,l),
(371,344,l)
);
}
);
};
layerId = "6F9C6BB4-2DCF-443B-A55D-9CE049090094";
shapes = (
{
attr = {
lineCapEnd = "1";
lineCapStart = "1";
};
closed = 0;
nodes = (
(409,0,l),
(115,0,l),
(129,700,l)
);
}
);
width = 419;
}
);
metricLeft = H;
},
{
export = 0;
glyphname = M.ss04;
kernLeft = H;
kernRight = H;
lastChange = "2024-04-11 12:56:10 +0000";
layers = (
{
background = {
shapes = (
{
closed = 0;
nodes = (
(332,700,l),
(126,113,ls),
(97,30,o),
(64,1,o),
(-5,1,c)
);
},
{
closed = 0;
nodes = (
(817,686,l),
(682,268,o),
(532,103,o),
(466,54,c),
(411,142,o),
(348,329,o),
(332,686,c)
);
},
{
closed = 0;
nodes = (
(1015,230,l),
(953,83,o),
(859,0,o),
(824,0,cs),
(767,0,o),
(791,189,o),
(817,700,c)
);
}
);
};
layerId = "6F9C6BB4-2DCF-443B-A55D-9CE049090094";
shapes = (
{
attr = {
lineCapEnd = "1";
lineCapStart = "1";
};
closed = 0;
nodes = (
(115,-1,l),
(165,699,l),
(166,699,l),
(467,82,l),
(468,82,l),
(789,699,l),
(790,699,l),
(820,0,l)
);
}
);
width = 935;
}
);
metricLeft = H;
metricRight = H;
},
{
export = 0;
glyphname = N.ss04;
kernLeft = H;
kernRight = H;
lastChange = "2024-04-11 12:56:10 +0000";
layers = (
{
anchors = (
{
name = bottom;
pos = (329,0);
},
{
name = top;
pos = (329,650);
}
);
background = {
shapes = (
{
closed = 0;
nodes = (
(546,700,l),
(522,0,l),
(131,699,l),
(110,112,ls),
(107,29,o),
(83,0,o),
(14,0,c)
);
}
);
};
layerId = "6F9C6BB4-2DCF-443B-A55D-9CE049090094";
shapes = (
{
attr = {
lineCapEnd = "1";
lineCapStart = "1";
};
closed = 0;
nodes = (
(541,700,l),
(529,0,l),
(528,0,l),
(130,699,l),
(129,699,l),
(115,2,l)
);
}
);
width = 656;
}
);
metricLeft = H;
metricRight = H;
},
{
export = 0;
glyphname = O.ss04;
kernLeft = O;
kernRight = O;
lastChange = "2024-04-11 12:56:10 +0000";
layers = (
{
anchors = (
{
name = bottom;
pos = (338,0);
},
{
name = center;
pos = (338,350);
},
{
name = ogonek;
pos = (633,10);
},
{
name = top;
pos = (358,650);
},
{
name = topleft;
pos = (-12,700);
},
{
name = topright;
pos = (687,700);
}
);
background = {
shapes = (
{
closed = 0;
nodes = (
(172,170,l),
(131,170,o),
(88,203,o),
(82,265,cs),
(65,463,o),
(167,700,o),
(365,700,cs),
(514,700,o),
(592,578,o),
(604,435,cs),
(621,237,o),
(514,0,o),
(310,0,cs),
(232,0,o),
(170,30,o),
(131,77,c)
);
}
);
};
layerId = "6F9C6BB4-2DCF-443B-A55D-9CE049090094";
shapes = (
{
attr = {
lineCapEnd = "1";
lineCapStart = "1";
};
closed = 0;
nodes = (
(359,700,l),
(515,700,o),
(602,565,o),
(605,394,cs),
(609,205,o),
(506,0,o),
(316,0,cs),
(160,0,o),
(73,135,o),
(70,306,cs),
(66,495,o),
(169,700,o),
(359,700,c)
);
}
);
width = 675;
}
);
},
{
export = 0;
glyphname = Oslash.ss04;
kernLeft = O;
kernRight = O;
lastChange = "2024-04-11 12:56:10 +0000";
layers = (
{
layerId = "6F9C6BB4-2DCF-443B-A55D-9CE049090094";
shapes = (
{
pos = (61,0);
ref = O;
},
{
attr = {
identifier = ID0x7fadb183f0a0;
lineCapEnd = "1";
lineCapStart = "1";
};
closed = 0;
nodes = (
(698,700,l),
(98,0,l)
);
}
);
width = 873;
}
);
metricLeft = O;
metricRight = O;
},
{
export = 0;
glyphname = OE.ss04;
kernLeft = O;
kernRight = E;
lastChange = "2024-04-11 12:56:10 +0000";
layers = (
{
anchors = (
{
name = bottom;
pos = (415,0);
},
{
name = center;
pos = (415,350);
},
{
name = ogonek;
pos = (710,10);
},
{
name = top;
pos = (415,650);
},
{
name = topleft;
pos = (65,700);
},
{
name = topright;
pos = (764,700);
}
);
background = {
shapes = (
{
attr = {
identifier = ID0x7fadae80b090;
lineCapEnd = "1";
lineCapStart = "1";
};
closed = 0;
nodes = (
(796,0,l),
(502,0,l),
(516,700,l),
(799,700,l)
);
},
{
attr = {
identifier = ID0x7fadae80b090;
lineCapEnd = "1";
lineCapStart = "1";
};
closed = 0;
nodes = (
(509,344,l),
(763,344,l)
);
},
{
attr = {
identifier = ID0x7fe542542670;
lineCapEnd = "1";
lineCapStart = "1";
};
closed = 1;
nodes = (
(543,700,o),
(630,565,o),
(633,394,cs),
(637,205,o),
(534,0,o),
(344,0,cs),
(188,0,o),
(101,135,o),
(98,306,cs),
(94,495,o),
(197,700,o),
(387,700,cs)
);
}
);
};
layerId = "6F9C6BB4-2DCF-443B-A55D-9CE049090094";
shapes = (
{
attr = {
identifier = ID0x7fe542542670;
lineCapEnd = "1";
lineCapStart = "1";
};
closed = 0;
nodes = (
(504,60,l),
(461,23,o),
(407,0,o),
(344,0,cs),
(188,0,o),
(101,135,o),
(98,306,cs),
(94,495,o),
(197,700,o),
(387,700,cs),
(437,700,o),
(481,686,o),
(516,661,c)
);
},
{
attr = {
identifier = ID0x7fadae80b090;
lineCapEnd = "1";
lineCapStart = "1";
};
closed = 0;
nodes = (
(796,0,l),
(502,0,l),
(516,700,l),
(799,700,l)
);
},
{
attr = {
identifier = ID0x7fadae80b090;
lineCapEnd = "1";
lineCapStart = "1";
};
closed = 0;
nodes = (
(509,344,l),
(763,344,l)
);
}
);
width = 890;
}
);
metricLeft = O;
metricRight = E;
},
{
export = 0;
glyphname = P.ss04;
kernLeft = H;
kernRight = F;
lastChange = "2024-04-11 12:56:10 +0000";
layers = (
{
background = {
shapes = (
{
pos = (48,0);
ref = B;
}
);
};
layerId = "6F9C6BB4-2DCF-443B-A55D-9CE049090094";
shapes = (
{
attr = {
lineCapEnd = "1";
lineCapStart = "1";
};
closed = 0;
nodes = (
(115,-1,l),
(130,700,l),
(297,700,l),
(410,700,o),
(469,646,o),
(469,543,cs),
(469,402,o),
(340,304,o),
(126,304,c)
);
}
);
width = 549;
}
);
metricLeft = H;
},
{
export = 0;
glyphname = Thorn.ss04;
kernLeft = H;
kernRight = Thorn;
lastChange = "2024-04-11 12:56:10 +0000";
layers = (
{
layerId = "6F9C6BB4-2DCF-443B-A55D-9CE049090094";
shapes = (
{
attr = {
identifier = ID0x7fadab497160;
lineCapEnd = "1";
lineCapStart = "1";
};
closed = 0;
nodes = (
(115,-1,l),
(130,700,l)
);
},
{
attr = {
identifier = ID0x7fadab497160;
lineCapEnd = "1";
lineCapStart = "1";
};
closed = 0;
nodes = (
(130,560,l),
(297,560,ls),
(410,560,o),
(469,506,o),
(469,403,cs),
(469,262,o),
(340,164,o),
(126,164,c)
);
}
);
width = 563;
}
);
metricLeft = H;
metricRight = P;
},
{
export = 0;
glyphname = Q.ss04;
kernLeft = O;
kernRight = Q;
lastChange = "2024-04-11 12:56:10 +0000";
layers = (
{
background = {
shapes = (
{
closed = 0;
nodes = (
(529,500,l),
(595,500,o),
(625,449,o),
(625,383,cs),
(625,226,o),
(521,0,o),
(346,0,cs),
(190,0,o),
(105,135,o),
(105,306,cs),
(105,495,o),
(211,700,o),
(401,700,cs),
(479,700,o),
(541,670,o),
(580,623,cs)
);
}
);
};
layerId = "6F9C6BB4-2DCF-443B-A55D-9CE049090094";
shapes = (
{
attr = {
lineCapEnd = "1";
lineCapStart = "1";
};
closed = 0;
nodes = (
(390,183,l),
(642,-58,l)
);
},
{
ref = O;
}
);
width = 692;
}
);
metricLeft = O;
},
{
export = 0;
glyphname = R.ss04;
kernLeft = H;
kernRight = R;
lastChange = "2024-04-11 12:56:10 +0000";
layers = (
{
background = {
shapes = (
{
pos = (48,0);
ref = B;
}
);
};
layerId = "6F9C6BB4-2DCF-443B-A55D-9CE049090094";
shapes = (
{
attr = {
lineCapEnd = "1";
lineCapStart = "1";
};
closed = 0;
nodes = (
(115,0,l),
(130,700,l),
(302,700,l),
(402,700,o),
(470,661,o),
(470,569,cs),
(470,428,o),
(356,338,o),
(127,338,c)
);
},
{
attr = {
lineCapEnd = "1";
lineCapStart = "1";
};
closed = 0;
nodes = (
(134,338,l),
(489,0,l)
);
}
);
width = 539;
}
);
metricLeft = H;
},
{
export = 0;
glyphname = S.ss04;
kernLeft = S;
kernRight = B;
lastChange = "2024-04-11 12:56:10 +0000";
layers = (
{
background = {
shapes = (
{
attr = {
lineCapEnd = "1";
lineCapStart = "1";
};
closed = 0;
nodes = (
(80,31,l),
(107,12,o),
(155,0,o),
(206,0,cs),
(309,0,o),
(426,49,o),
(423,188,cs),
(421,274,o),
(340,321,o),
(258,367,cs),
(180,411,o),
(97,464,o),
(97,556,cs),
(97,648,o),
(184,699,o),
(276,699,cs),
(319,699,o),
(363,688,o),
(400,664,cs)
);
}
);
};
hints = (
{
horizontal = 1;
origin = (0,0);
settings = {
deltaV = {
"{100, 100, 0, 0, 0, 0}" = {
"62" = 0;
};
};
};
type = TTDelta;
},
{
horizontal = 1;
origin = (0,0);
settings = {
deltaV = {
"{100, 100, 0, 0, 0, 0}" = {
"62" = 0;
};
};
};
type = TTDelta;
},
{
horizontal = 1;
origin = (0,0);
settings = {
deltaV = {
"{100, 100, 0, 0, 0, 0}" = {
"62" = 0;
};
};
};
type = TTDelta;
},
{
horizontal = 1;
origin = (0,3);
settings = {
deltaV = {
"{100, 100, 0, 0, 0, 0}" = {
"62" = 0;
};
};
};
type = TTDelta;
},
{
horizontal = 1;
origin = (0,6);
settings = {
deltaV = {
"{100, 100, 0, 0, 0, 0}" = {
"62" = 0;
};
};
};
type = TTDelta;
},
{
horizontal = 1;
origin = (0,6);
settings = {
deltaV = {
"{100, 100, 0, 0, 0, 0}" = {
"62" = 0;
};
};
};
type = TTDelta;
},
{
horizontal = 1;
origin = (0,6);
settings = {
deltaV = {
"{100, 100, 0, 0, 0, 0}" = {
"62" = 0;
};
};
};
type = TTDelta;
},
{
horizontal = 1;
origin = (0,9);
settings = {
deltaV = {
"{100, 100, 0, 0, 0, 0}" = {
"62" = 0;
};
};
};
type = TTDelta;
},
{
horizontal = 1;
origin = (0,9);
settings = {
deltaV = {
"{100, 100, 0, 0, 0, 0}" = {
"62" = 0;
};
};
};
type = TTDelta;
},
{
horizontal = 1;
origin = (0,9);
settings = {
deltaV = {
"{100, 100, 0, 0, 0, 0}" = {
"62" = 0;
};
};
};
type = TTDelta;
},
{
horizontal = 1;
origin = (0,9);
settings = {
deltaV = {
"{100, 100, 0, 0, 0, 0}" = {
"62" = 0;
};
};
};
type = TTDelta;
},
{
horizontal = 1;
origin = (0,9);
settings = {
deltaV = {
"{100, 100, 0, 0, 0, 0}" = {
"62" = 0;
};
};
};
type = TTDelta;
},
{
horizontal = 1;
origin = (0,9);
settings = {
deltaV = {
"{100, 100, 0, 0, 0, 0}" = {
"62" = 0;
};
};
};
type = TTDelta;
}
);
layerId = "6F9C6BB4-2DCF-443B-A55D-9CE049090094";
shapes = (
{
attr = {
lineCapEnd = "1";
lineCapStart = "1";
};
closed = 0;
nodes = (
(80,31,l),
(171,-27,o),
(427,-20,o),
(423,188,cs),
(419,364,o),
(97,368,o),
(97,556,cs),
(97,693,o),
(287,737,o),
(400,664,cs)
);
}
);
width = 503;
}
);
},
{
export = 0;
glyphname = Germandbls.ss04;
kernLeft = H;
kernRight = S;
lastChange = "2024-04-11 12:56:10 +0000";
layers = (
{
hints = (
{
horizontal = 1;
settings = {
deltaV = {
"{100, 100, 0, 0, 0, 0}" = {
"62" = 0;
};
};
};
type = TTDelta;
},
{
horizontal = 1;
settings = {
deltaV = {
"{100, 100, 0, 0, 0, 0}" = {
"62" = 0;
};
};
};
type = TTDelta;
},
{
horizontal = 1;
settings = {
deltaV = {
"{100, 100, 0, 0, 0, 0}" = {
"62" = 0;
};
};
};
type = TTDelta;
},
{
horizontal = 1;
settings = {
deltaV = {
"{100, 100, 0, 0, 0, 0}" = {
"62" = 0;
};
};
};
type = TTDelta;
},
{
horizontal = 1;
settings = {
deltaV = {
"{100, 100, 0, 0, 0, 0}" = {
"62" = 0;
};
};
};
type = TTDelta;
},
{
horizontal = 1;
settings = {
deltaV = {
"{100, 100, 0, 0, 0, 0}" = {
"62" = 0;
};
};
};
type = TTDelta;
},
{
horizontal = 1;
settings = {
deltaV = {
"{100, 100, 0, 0, 0, 0}" = {
"62" = 0;
};
};
};
type = TTDelta;
},
{
horizontal = 1;
settings = {
deltaV = {
"{100, 100, 0, 0, 0, 0}" = {
"62" = 0;
};
};
};
type = TTDelta;
},
{
horizontal = 1;
settings = {
deltaV = {
"{100, 100, 0, 0, 0, 0}" = {
"62" = 0;
};
};
};
type = TTDelta;
},
{
horizontal = 1;
settings = {
deltaV = {
"{100, 100, 0, 0, 0, 0}" = {
"62" = 0;
};
};
};
type = TTDelta;
},
{
horizontal = 1;
settings = {
deltaV = {
"{100, 100, 0, 0, 0, 0}" = {
"62" = 0;
};
};
};
type = TTDelta;
},
{
horizontal = 1;
settings = {
deltaV = {
"{100, 100, 0, 0, 0, 0}" = {
"62" = 0;
};
};
};
type = TTDelta;
},
{
horizontal = 1;
settings = {
deltaV = {
"{100, 100, 0, 0, 0, 0}" = {
"62" = 0;
};
};
};
type = TTDelta;
}
);
layerId = "6F9C6BB4-2DCF-443B-A55D-9CE049090094";
shapes = (
{
attr = {
identifier = ID0x7fadb0841000;
lineCapEnd = "1";
lineCapStart = "1";
};
closed = 0;
nodes = (
(275,25,l),
(350,-22,o),
(560,-16,o),
(556,154,cs),
(553,298,o),
(289,301,o),
(289,455,cs),
(289,567,o),
(416,625,o),
(535,700,c),
(128,700,l),
(115,0,l)
);
}
);
width = 649;
}
);
metricLeft = H;
metricRight = S;
},
{
export = 0;
glyphname = T.ss04;
kernLeft = T;
kernRight = T;
lastChange = "2024-04-11 12:56:10 +0000";
layers = (
{
background = {
shapes = (
{
closed = 0;
nodes = (
(76,634,l),
(56,692,o),
(104,709,o),
(145,709,cs),
(257,709,o),
(391,690,o),
(485,690,cs),
(526,690,o),
(574,707,o),
(554,765,c)
);
},
{
closed = 0;
nodes = (
(350,700,l),
(325,0,l)
);
}
);
};
layerId = "6F9C6BB4-2DCF-443B-A55D-9CE049090094";
shapes = (
{
attr = {
lineCapEnd = "1";
lineCapStart = "1";
};
closed = 0;
nodes = (
(290,700,l),
(277,0,l)
);
},
{
attr = {
lineCapEnd = "1";
lineCapStart = "1";
};
closed = 0;
nodes = (
(10,701,l),
(550,700,l)
);
}
);
width = 560;
}
);
},
{
export = 0;
glyphname = U.ss04;
kernLeft = U;
kernRight = U;
lastChange = "2024-04-11 12:56:10 +0000";
layers = (
{
anchors = (
{
name = bottom;
pos = (313,0);
},
{
name = ogonek;
pos = (583,10);
},
{
name = top;
pos = (313,650);
},
{
name = topright;
pos = (631,700);
}
);
layerId = "6F9C6BB4-2DCF-443B-A55D-9CE049090094";
shapes = (
{
attr = {
lineCapEnd = "1";
lineCapStart = "1";
};
closed = 0;
nodes = (
(110,700,l),
(100,220,ls),
(96,89,o),
(171,0,o),
(298,0,cs),
(422,0,o),
(515,87,o),
(518,220,cs),
(529,700,l)
);
}
);
width = 629;
}
);
},
{
export = 0;
glyphname = V.ss04;
kernLeft = V;
kernRight = V;
lastChange = "2024-04-11 12:56:10 +0000";
layers = (
{
background = {
shapes = (
{
pos = (-44,0);
ref = U;
}
);
};
layerId = "6F9C6BB4-2DCF-443B-A55D-9CE049090094";
shapes = (
{
attr = {
lineCapEnd = "1";
lineCapStart = "1";
};
closed = 0;
nodes = (
(41,700,l),
(270,1,l),
(271,1,l),
(522,700,ls)
);
}
);
width = 562;
}
);
},
{
export = 0;
glyphname = W.ss04;
kernLeft = V;
kernRight = V;
lastChange = "2024-04-11 12:56:10 +0000";
layers = (
{
anchors = (
{
name = bottom;
pos = (554,0);
},
{
name = top;
pos = (554,650);
}
);
background = {
shapes = (
{
attr = {
lineCapEnd = "1";
lineCapStart = "1";
};
closed = 0;
nodes = (
(89,700,l),
(319,0,l),
(89,700,l)
);
}
);
};
layerId = "6F9C6BB4-2DCF-443B-A55D-9CE049090094";
shapes = (
{
attr = {
lineCapEnd = "1";
lineCapStart = "1";
};
closed = 0;
nodes = (
(1019,700,ls),
(769,0,l),
(554,700,l),
(319,0,l),
(89,700,l)
);
}
);
width = 1108;
}
);
metricLeft = V;
metricRight = V;
},
{
export = 0;
glyphname = X.ss04;
kernLeft = X;
kernRight = X;
lastChange = "2024-04-11 12:56:10 +0000";
layers = (
{
background = {
shapes = (
{
closed = 0;
nodes = (
(-30,320,l),
(487,320,l)
);
},
{
closed = 0;
nodes = (
(701,230,l),
(639,83,o),
(545,0,o),
(510,0,cs),
(477,0,o),
(476,38,o),
(479,119,cs),
(501,700,l)
);
},
{
pos = (-64,0);
ref = baston.caps;
}
);
};
layerId = "6F9C6BB4-2DCF-443B-A55D-9CE049090094";
shapes = (
{
attr = {
lineCapEnd = "1";
lineCapStart = "1";
};
closed = 0;
nodes = (
(40,0,l),
(521,700,l)
);
},
{
attr = {
lineCapEnd = "1";
lineCapStart = "1";
};
closed = 0;
nodes = (
(506,0,l),
(60,700,l)
);
}
);
width = 561;
}
);
},
{
export = 0;
glyphname = Y.ss04;
kernLeft = Y;
kernRight = Y;
lastChange = "2024-04-11 12:56:10 +0000";
layers = (
{
anchors = (
{
name = bottom;
pos = (273,0);
},
{
name = top;
pos = (273,650);
},
{
name = topleft;
pos = (20,700);
}
);
layerId = "6F9C6BB4-2DCF-443B-A55D-9CE049090094";
shapes = (
{
attr = {
lineCapEnd = "1";
lineCapStart = "1";
};
closed = 0;
nodes = (
(506,700,l),
(256,300,l)
);
},
{
attr = {
lineCapEnd = "1";
lineCapStart = "1";
};
closed = 0;
nodes = (
(40,700,l),
(256,300,l),
(251,0,l)
);
}
);
width = 546;
}
);
},
{
export = 0;
glyphname = Z.ss04;
kernLeft = Z;
kernRight = Z;
lastChange = "2024-04-11 12:56:10 +0000";
layers = (
{
background = {
shapes = (
{
closed = 0;
nodes = (
(650,230,l),
(588,83,o),
(495,-4,o),
(459,-4,cs),
(413,-4,o),
(348,6,o),
(274,6,cs),
(201,6,o),
(131,6,o),
(52,0,c)
);
},
{
closed = 0;
nodes = (
(620,740,l),
(22,-40,l)
);
},
{
closed = 0;
nodes = (
(119,700,l),
(222,686,o),
(424,688,o),
(590,700,c)
);
}
);
};
layerId = "6F9C6BB4-2DCF-443B-A55D-9CE049090094";
shapes = (
{
attr = {
lineCapEnd = "1";
lineCapStart = "1";
};
closed = 0;
nodes = (
(500,695,l),
(40,4,l)
);
},
{
attr = {
lineCapEnd = "1";
lineCapStart = "1";
};
closed = 0;
nodes = (
(50,700,l),
(500,700,l)
);
},
{
attr = {
lineCapEnd = "1";
lineCapStart = "1";
};
closed = 0;
nodes = (
(40,0,l),
(490,0,l)
);
}
);
width = 540;
}
);
},
{
glyphname = ae;
lastChange = "2024-04-11 14:20:00 +0000";
layers = (
{
anchors = (
{
name = bottom;
pos = (265,0);
},
{
name = ogonek;
pos = (477,10);
},
{
name = top;
pos = (338,360);
}
);
layerId = "6F9C6BB4-2DCF-443B-A55D-9CE049090094";
shapes = (
{
ref = _conect.left;
},
{
alignment = -1;
pos = (143,0);
ref = _part.bucle;
},
{
attr = {
identifier = ID0x7fb65c362e90;
};
closed = 1;
nodes = (
(506,19,o),
(454,63,o),
(454,168,cs),
(454,357,l),
(408,357,l),
(408,168,ls),
(408,35,o),
(480,-29,o),
(632,-29,c),
(642,-13,o),
(642,3,o),
(632,19,c)
);
},
{
closed = 1;
nodes = (
(454,289,o),
(523,340,o),
(569,340,cs),
(650,340,o),
(609,184,o),
(432,192,c),
(430,144,l),
(672,133,o),
(719,388,o),
(569,388,cs),
(501,388,o),
(408,319,o),
(408,175,c),
(454,175,l)
);
}
);
width = 632;
}
);
unicode = 230;
},
{
glyphname = eth;
lastChange = "2024-04-11 12:56:10 +0000";
layers = (
{
layerId = "6F9C6BB4-2DCF-443B-A55D-9CE049090094";
shapes = (
{
ref = d;
},
{
closed = 0;
nodes = (
(196,553,l),
(552,553,l)
);
}
);
width = 551;
}
);
unicode = 240;
},
{
color = 0;
glyphname = e;
kernLeft = e;
kernRight = e;
lastChange = "2024-04-11 12:56:19 +0000";
layers = (
{
anchors = (
{
name = bottom;
pos = (155,0);
},
{
name = ogonek;
pos = (279,10);
}
);
background = {
shapes = (
{
closed = 0;
nodes = (
(195,364,ls),
(138,364,o),
(99,289,o),
(99,207,cs),
(99,76,o),
(201,-5,o),
(298,-5,cs)
);
}
);
};
guides = (
{
pos = (156,364);
}
);
layerId = "6F9C6BB4-2DCF-443B-A55D-9CE049090094";
shapes = (
{
ref = _conect.right.e;
},
{
pos = (206,0);
ref = _e.base;
}
);
width = 391;
}
);
unicode = 101;
},
{
color = 0;
glyphname = f;
kernLeft = l;
kernRight = g;
lastChange = "2024-04-11 12:56:19 +0000";
layers = (
{
background = {
shapes = (
{
attr = {
identifier = ID0x7f82cd9921d0;
lineCapEnd = "1";
lineCapStart = "1";
};
closed = 0;
nodes = (
(184,182,l),
(227,280,o),
(284,475,o),
(284,592,cs),
(284,656,o),
(268,700,o),
(222,700,cs),
(137,700,o),
(125,572,o),
(125,517,cs),
(125,300,o),
(238,82,o),
(218,-203,cs),
(212,-283,o),
(177,-352,o),
(124,-352,cs),
(88,-352,o),
(57,-304,o),
(62,-241,cs),
(67,-166,o),
(133,-69,o),
(284,-5,c)
);
}
);
};
layerId = "6F9C6BB4-2DCF-443B-A55D-9CE049090094";
shapes = (
{
ref = _conect.left.ascendente;
},
{
attr = {
identifier = ID0x7f82cd9921d0;
};
closed = 1;
nodes = (
(165,-43,o),
(62,-110,o),
(44,-238,cs),
(29,-344,o),
(79,-397,o),
(129,-397,cs),
(200,-397,o),
(239,-305,o),
(246,-205,cs),
(255,-69,o),
(236,54,o),
(211,165,c),
(167,155,l),
(190,44,o),
(209,-71,o),
(200,-201,cs),
(194,-288,o),
(163,-349,o),
(129,-349,cs),
(107,-349,o),
(79,-319,o),
(90,-244,cs),
(104,-142,o),
(188,-85,o),
(347,-22,c),
(350,0,o),
(344,14,o),
(331,22,c)
);
},
{
pos = (181,0);
ref = _bucle.ascendente;
}
);
width = 339;
}
);
unicode = 102;
},
{
glyphname = idotless;
kernLeft = a;
lastChange = "2024-04-11 12:56:10 +0000";
layers = (
{
anchors = (
{
name = bottom;
pos = (51,0);
},
{
name = ogonek;
pos = (101,0);
},
{
name = top;
pos = (0,360);
}
);
background = {
shapes = (
{
attr = {
identifier = ID0x7ff0482cad10;
lineCapEnd = 1;
lineCapStart = 1;
};
closed = 0;
nodes = (
(-6,360,l),
(-20,267,o),
(-46,180,o),
(-46,180,cs)
);
},
{
attr = {
identifier = ID0x7f8325d1efa0;
lineCapEnd = "1";
lineCapStart = "1";
};
closed = 0;
nodes = (
(-3,360,l),
(-3,150,ls)
);
}
);
};
layerId = "6F9C6BB4-2DCF-443B-A55D-9CE049090094";
shapes = (
{
alignment = -1;
ref = _conect.right;
},
{
attr = {
identifier = ID0x7fe6d54b4b70;
};
closed = 1;
nodes = (
(23,378,l),
(8,388,o),
(-8,388,o),
(-23,378,c),
(-23,180,l),
(23,180,l)
);
}
);
width = 120;
}
);
unicode = 305;
},
{
glyphname = jdotless;
kernLeft = a;
lastChange = "2024-04-11 12:56:10 +0000";
layers = (
{
anchors = (
{
name = bottom;
pos = (9,-349);
},
{
name = top;
pos = (0,360);
}
);
background = {
anchors = (
{
name = bottom;
pos = (55,-349);
},
{
name = ogonek;
pos = (270,0);
},
{
name = top;
pos = (55,360);
}
);
shapes = (
{
alignment = -1;
pos = (-59,0);
ref = _bucle.decendente;
},
{
alignment = -1;
pos = (19,0);
ref = _entrada.i;
}
);
};
layerId = "6F9C6BB4-2DCF-443B-A55D-9CE049090094";
shapes = (
{
ref = _bucle.decendente;
},
{
attr = {
identifier = ID0x7fe6d54b4b70;
};
closed = 1;
nodes = (
(23,378,l),
(8,388,o),
(-8,388,o),
(-23,378,c),
(-23,368,l),
(23,368,l)
);
}
);
width = 103;
}
);
unicode = 567;
},
{
glyphname = oslash;
lastChange = "2024-04-11 12:56:10 +0000";
layers = (
{
layerId = "6F9C6BB4-2DCF-443B-A55D-9CE049090094";
shapes = (
{
ref = o;
},
{
attr = {
identifier = ID0x7fb6629fdce0;
lineCapEnd = "1";
lineCapStart = "1";
};
closed = 0;
nodes = (
(482,550,l),
(128,-150,l)
);
}
);
width = 502;
}
);
unicode = 248;
},
{
glyphname = oe;
lastChange = "2024-04-11 12:56:10 +0000";
layers = (
{
anchors = (
{
name = bottom;
pos = (250,0);
},
{
name = center;
pos = (250,180);
},
{
name = ogonek;
pos = (450,10);
},
{
name = top;
pos = (313,360);
},
{
name = topright;
pos = (480,360);
}
);
background = {
shapes = (
{
closed = 0;
nodes = (
(348,359,l),
(338,362,o),
(326,364,o),
(314,364,cs),
(218,364,o),
(160,286,o),
(160,178,cs),
(160,86,o),
(214,-6,o),
(314,-6,cs),
(389,-6,o),
(464,61,o),
(464,180,cs),
(464,346,o),
(301,423,o),
(301,295,cs),
(301,181,o),
(380,136,o),
(467,136,cs),
(540,136,o),
(665,207,o),
(665,302,cs),
(665,337,o),
(644,364,o),
(602,364,cs),
(545,364,o),
(464,304,o),
(464,175,cs),
(464,59,o),
(560,-5,o),
(665,-5,c)
);
}
);
};
layerId = "6F9C6BB4-2DCF-443B-A55D-9CE049090094";
shapes = (
{
ref = _conect.left;
},
{
closed = 1;
nodes = (
(570,19,o),
(487,75,o),
(487,175,cs),
(487,289,o),
(556,340,o),
(602,340,cs),
(630,340,o),
(642,325,o),
(642,302,cs),
(642,224,o),
(531,160,o),
(467,160,cs),
(389,160,o),
(324,197,o),
(324,295,cs),
(324,388,o),
(441,307,o),
(441,180,cs),
(441,74,o),
(377,18,o),
(314,18,cs),
(230,18,o),
(183,96,o),
(183,178,cs),
(183,275,o),
(232,340,o),
(314,340,cs),
(324,340,o),
(333,339,o),
(341,336,c),
(355,382,l),
(343,385,o),
(328,388,o),
(314,388,cs),
(204,388,o),
(137,297,o),
(137,178,cs),
(137,76,o),
(198,-30,o),
(314,-30,cs),
(401,-30,o),
(487,48,o),
(487,180,cs),
(487,379,o),
(278,458,o),
(278,295,cs),
(278,165,o),
(370,112,o),
(467,112,cs),
(549,112,o),
(688,190,o),
(688,302,cs),
(688,349,o),
(658,388,o),
(602,388,cs),
(534,388,o),
(441,319,o),
(441,175,cs),
(441,43,o),
(550,-29,o),
(665,-29,c),
(675,-13,o),
(675,3,o),
(665,19,c)
);
}
);
width = 665;
}
);
unicode = 339;
},
{
glyphname = thorn;
lastChange = "2024-04-11 12:56:10 +0000";
layers = (
{
layerId = "6F9C6BB4-2DCF-443B-A55D-9CE049090094";
shapes = (
{
ref = _conect.left.long;
},
{
alignment = -1;
pos = (186,0);
ref = _arco3;
},
{
attr = {
identifier = ID0x7fb6623a3b60;
};
closed = 1;
nodes = (
(209,725,l),
(194,735,o),
(178,735,o),
(163,725,c),
(163,-370,l),
(178,-380,o),
(194,-380,o),
(209,-370,c)
);
},
{
pos = (420,0);
ref = _conect.right;
}
);
width = 540;
}
);
unicode = 254;
},
{
glyphname = germandbls;
lastChange = "2024-04-11 12:56:10 +0000";
layers = (
{
anchors = (
{
name = bottom;
pos = (144,0);
},
{
name = center;
pos = (144,180);
},
{
name = top;
pos = (144,360);
},
{
name = topright;
pos = (267,710);
}
);
annotations = (
{
pos = (281.213,312.266);
type = Text;
},
{
pos = (271.141,326.041);
type = Text;
}
);
background = {
shapes = (
{
closed = 0;
nodes = (
(176,-173,l),
(192,700,l)
);
},
{
attr = {
identifier = ID0x7fadae4621b0;
lineCapEnd = 1;
lineCapStart = 1;
};
closed = 0;
nodes = (
(180,61,l),
(180,235,o),
(247,699,o),
(409,699,cs),
(461,699,o),
(487,649,o),
(487,588,cs),
(487,486,o),
(417,354,o),
(281,360,c),
(458,373,o),
(535,268,o),
(535,170,cs),
(535,71,o),
(456,-19,o),
(323,31,c)
);
},
{
closed = 0;
nodes = (
(293,46,l),
(353,10,o),
(455,-5,o),
(582,-5,c)
);
}
);
};
layerId = "6F9C6BB4-2DCF-443B-A55D-9CE049090094";
shapes = (
{
ref = _conect.left.long;
},
{
closed = 1;
nodes = (
(153,-173,l),
(168,-183,o),
(184,-183,o),
(199,-173,c),
(215,700,l),
(200,710,o),
(184,710,o),
(169,700,c)
);
},
{
attr = {
identifier = ID0x7fadae4621b0;
};
closed = 1;
nodes = (
(433,336,o),
(510,477,o),
(510,588,cs),
(510,658,o),
(477,723,o),
(409,723,cs),
(223,723,o),
(157,238,o),
(157,61,c),
(203,61,l),
(203,231,o),
(271,675,o),
(409,675,cs),
(445,675,o),
(464,640,o),
(464,588,cs),
(464,495,o),
(401,384,o),
(281,384,c),
(271,368,o),
(271,352,o),
(281,336,c)
);
},
{
closed = 1;
nodes = (
(457,19,o),
(360,34,o),
(305,67,c),
(287,60,o),
(279,46,o),
(281,25,c),
(346,-14,o),
(453,-29,o),
(582,-29,c),
(582,19,l)
);
},
{
attr = {
identifier = ID0x7fadae4621b0;
};
closed = 1;
nodes = (
(465,-38,o),
(558,57,o),
(558,170,cs),
(558,281,o),
(472,384,o),
(281,384,c),
(281,336,l),
(444,336,o),
(512,255,o),
(512,170,cs),
(512,52,o),
(414,8,o),
(305,67,c),
(315,19,l)
);
}
);
width = 582;
}
);
unicode = 223;
},
{
glyphname = saltillo;
lastChange = "2024-04-11 14:21:28 +0000";
layers = (
{
anchors = (
{
name = top;
pos = (162,580);
}
);
layerId = "6F9C6BB4-2DCF-443B-A55D-9CE049090094";
shapes = (
{
attr = {
identifier = ID0x7fb6623c2950;
};
closed = 1;
nodes = (
(194,479,o),
(197,344,o),
(91,244,c),
(89,223,o),
(99,211,o),
(123,210,c),
(247,326,o),
(242,489,o),
(197,565,c),
(178,567,o),
(164,559,o),
(157,541,c)
);
}
);
width = 312;
}
);
unicode = 42892;
},
{
glyphname = a.fina;
lastChange = "2024-04-11 12:56:10 +0000";
layers = (
{
background = {
shapes = (
{
ref = _conect.left;
},
{
pos = (158,0);
ref = _a.base;
},
{
attr = {
identifier = ID0x7fdbcbec0790;
lineCapEnd = "1";
lineCapStart = "1";
};
closed = 0;
nodes = (
(429,150,l),
(429,16,o),
(479,-5,o),
(530,-5,cs),
(560,-5,o),
(578,14,o),
(600,51,c)
);
}
);
};
layerId = "6F9C6BB4-2DCF-443B-A55D-9CE049090094";
shapes = (
{
ref = a;
},
{
pos = (551,0);
ref = _final;
}
);
width = 674;
}
);
},
{
glyphname = c.init;
lastChange = "2024-04-11 12:56:10 +0000";
layers = (
{
background = {
shapes = (
{
attr = {
identifier = ID0x7fba9c16c3a0;
lineCapEnd = 1;
lineCapStart = 1;
strokeHeight = 45;
strokeWidth = 40;
};
closed = 0;
nodes = (
(511,355,l),
(480,368,o),
(449,374,o),
(420,374,cs),
(326,374,o),
(252,309,o),
(252,180,cs),
(252,-8,o),
(389,-5,o),
(471,-5,cs),
(530,-5,o),
(611,53,o),
(621,179,c)
);
}
);
};
layerId = "6F9C6BB4-2DCF-443B-A55D-9CE049090094";
shapes = (
{
ref = c;
}
);
width = 411;
}
);
metricLeft = a;
metricRight = a;
},
{
glyphname = f.init;
lastChange = "2024-04-11 12:56:10 +0000";
layers = (
{
background = {
shapes = (
{
attr = {
identifier = ID0x7ff03cfdb690;
lineCapEnd = "1";
lineCapStart = "1";
strokeHeight = 45;
strokeWidth = 40;
};
closed = 0;
nodes = (
(649,178,l),
(690,289,o),
(740,450,o),
(740,573,cs),
(740,652,o),
(723,709,o),
(679,709,cs),
(627,709,o),
(610,639,o),
(610,539,cs),
(610,322,o),
(693,-39,o),
(693,-146,cs),
(693,-302,o),
(661,-354,o),
(628,-354,cs),
(596,-354,o),
(564,-304,o),
(564,-239,cs),
(564,-174,o),
(596,-93,o),
(689,-33,cs),
(742,1,o),
(828,58,o),
(865,179,c)
);
}
);
};
layerId = "6F9C6BB4-2DCF-443B-A55D-9CE049090094";
shapes = (
{
ref = f;
}
);
width = 339;
}
);
metricLeft = a.init;
metricRight = a;
},
{
glyphname = l.init;
lastChange = "2024-04-11 15:07:19 +0000";
layers = (
{
background = {
shapes = (
{
attr = {
lineCapEnd = 1;
lineCapStart = 1;
strokeHeight = 45;
strokeWidth = 40;
};
closed = 0;
nodes = (
(245,170,l),
(203,71,o),
(142,-5,o),
(61,-5,c)
);
},
{
pos = (222,0);
ref = l;
}
);
};
guides = (
{
angle = 84.5324;
pos = (81,351);
}
);
layerId = "6F9C6BB4-2DCF-443B-A55D-9CE049090094";
shapes = (
{
alignment = -1;
ref = l;
}
);
width = 343;
}
);
metricLeft = a.init;
metricRight = a;
},
{
glyphname = p.init;
lastChange = "2024-04-11 12:56:10 +0000";
layers = (
{
background = {
shapes = (
{
closed = 0;
nodes = (
(163,-349,l),
(163,360,l),
(149,307,o),
(134,250,o),
(105,150,c)
);
},
{
closed = 0;
nodes = (
(163,154,l),
(177,344,o),
(242,360,o),
(277,360,cs),
(332,360,o),
(357,319,o),
(357,227,cs),
(357,100,ls),
(357,30,o),
(380,0,o),
(410,0,c)
);
}
);
};
layerId = "6F9C6BB4-2DCF-443B-A55D-9CE049090094";
shapes = (
{
ref = p;
}
);
width = 540;
}
);
metricLeft = a;
metricRight = a;
},
{
glyphname = q.init;
lastChange = "2024-04-11 12:56:10 +0000";
layers = (
{
background = {
shapes = (
{
alignment = -1;
pos = (193,0);
ref = _part.bucle;
},
{
attr = {
identifier = ID0x7fba9a38cdf0;
lineCapEnd = 1;
lineCapStart = 1;
strokeHeight = 45;
strokeWidth = 40;
};
closed = 0;
nodes = (
(481,100,l),
(481,61,o),
(494,-5,o),
(551,-5,c)
);
},
{
attr = {
lineCapEnd = 1;
lineCapStart = 1;
strokeHeight = 45;
strokeWidth = 40;
};
closed = 0;
nodes = (
(481,356,l),
(481,-349,ls)
);
},
{
attr = {
lineCapEnd = "1";
lineCapStart = "1";
strokeHeight = 45;
strokeWidth = 40;
};
closed = 0;
nodes = (
(574,-178,l),
(369,-178,ls)
);
},
{
alignment = -1;
pos = (60,0);
ref = _trazo.entra;
}
);
};
layerId = "6F9C6BB4-2DCF-443B-A55D-9CE049090094";
shapes = (
{
ref = q;
}
);
width = 551;
}
);
metricLeft = a;
metricRight = a;
},
{
glyphname = r.init;
lastChange = "2024-04-11 12:56:10 +0000";
layers = (
{
background = {
shapes = (
{
attr = {
lineCapEnd = 1;
lineCapStart = 1;
strokeHeight = 45;
strokeWidth = 40;
};
closed = 0;
nodes = (
(531,-5,l),
(440,-5,o),
(420,114,o),
(420,194,cs),
(420,258,o),
(425,297,o),
(429,322,cs),
(435,364,o),
(435,364,o),
(395,359,cs),
(308,349,o),
(264,359,o),
(237,389,c)
);
},
{
attr = {
lineCapEnd = "1";
lineCapStart = "1";
strokeHeight = 45;
strokeWidth = 40;
};
closed = 0;
nodes = (
(230,179,l),
(238,276,o),
(234,393,o),
(234,393,c)
);
}
);
};
layerId = "6F9C6BB4-2DCF-443B-A55D-9CE049090094";
shapes = (
{
ref = r;
}
);
width = 505;
}
);
metricLeft = a;
metricRight = a;
},
{
glyphname = s.init;
kernLeft = a;
kernRight = s;
lastChange = "2024-04-11 12:56:10 +0000";
layers = (
{
background = {
shapes = (
{
attr = {
lineCapEnd = 1;
lineCapStart = 1;
strokeHeight = 45;
strokeWidth = 40;
};
closed = 0;
nodes = (
(227,360,l),
(227,223,o),
(400,249,o),
(400,109,cs),
(400,54,o),
(360,8,o),
(304,8,cs),
(304,8,o),
(230,57,o),
(220,29,c),
(278,-1,o),
(338,-10,o),
(380,-10,cs),
(472,-10,o),
(581,34,o),
(592,179,c)
);
},
{
attr = {
identifier = ID0x7f8862385790;
lineCapEnd = 1;
lineCapStart = 1;
strokeHeight = 45;
strokeWidth = 40;
};
closed = 0;
nodes = (
(14,-4,l),
(142,-4,o),
(212,305,o),
(229,370,c)
);
}
);
};
layerId = "6F9C6BB4-2DCF-443B-A55D-9CE049090094";
shapes = (
{
ref = s;
}
);
width = 552;
}
);
metricLeft = a;
metricRight = a;
},
{
glyphname = u.init;
lastChange = "2024-04-11 12:56:10 +0000";
layers = (
{
background = {
shapes = (
{
closed = 0;
nodes = (
(532,150,l),
(507,50,o),
(456,0,o),
(408,0,cs),
(333,0,o),
(301,59,o),
(301,182,cs),
(301,359,l)
);
},
{
pos = (331,0);
ref = _part.bucle;
}
);
};
layerId = "6F9C6BB4-2DCF-443B-A55D-9CE049090094";
shapes = (
{
ref = u;
}
);
width = 577;
}
);
metricLeft = a;
metricRight = a;
},
{
glyphname = w.init;
kernLeft = lc_o;
lastChange = "2024-04-11 12:56:10 +0000";
layers = (
{
background = {
shapes = (
{
closed = 1;
nodes = (
(752,327,qs),
(768,327,o),
(795,293,qs),
(826,254,o),
(832,205,q),
(796,226,o),
(745,282,o),
(745,317,qs),
(745,327,o)
);
},
{
closed = 1;
nodes = (
(934,178,qs),
(915,178,o),
(893,182,q),
(889,183,o),
(873,187,o),
(869,188,q),
(861,263,o),
(821,316,qs),
(785,364,o),
(748,364,qs),
(709,364,o),
(709,317,qs),
(709,274,o),
(746,228,qs),
(774,192,o),
(833,164,q),
(828,106,o),
(793,67,qs),
(764,34,o),
(725,34,qs),
(677,34,o),
(612,122,o),
(612,181,qs),
(612,360,l),
(575,360,l),
(575,164,ls),
(575,111,o),
(535,67,qs),
(505,34,o),
(467,34,qs),
(420,34,o),
(354,122,o),
(354,181,qs),
(354,270,ls),
(354,361,o),
(282,361,qs),
(236,361,o),
(214,324,qs),
(156,225,l),
(187,206,l),
(241,300,ls),
(255,324,o),
(278,324,qs),
(318,324,o),
(318,280,qs),
(318,181,ls),
(318,105,o),
(405,-2,o),
(467,-2,qs),
(553,-2,o),
(593,93,q),
(639,-2,o),
(725,-2,qs),
(779,-2,o),
(859,87,o),
(868,151,q),
(874,149,o),
(885,147,qs),
(911,143,o),
(933,143,qs),
(1015,143,o),
(1051,206,q),
(1020,225,l),
(994,178,o)
);
}
);
};
guides = (
{
angle = 85;
lockAngle = 1;
pos = (583,227);
}
);
layerId = "6F9C6BB4-2DCF-443B-A55D-9CE049090094";
shapes = (
{
ref = w;
}
);
width = 979;
}
);
metricLeft = v;
metricRight = o;
},
{
glyphname = x.init;
kernLeft = a;
kernRight = c;
lastChange = "2024-04-11 15:07:19 +0000";
layers = (
{
background = {
anchors = (
{
name = bottom;
pos = (708,0);
},
{
name = top;
pos = (678,360);
}
);
shapes = (
{
attr = {
identifier = ID0x7faded1a7c00;
lineCapEnd = 1;
lineCapStart = 1;
strokeHeight = 45;
strokeWidth = 40;
};
closed = 0;
nodes = (
(255,360,l),
(255,223,o),
(428,249,o),
(428,109,cs),
(428,54,o),
(388,8,o),
(332,8,cs),
(332,8,o),
(258,57,o),
(248,29,c),
(276,15,o),
(306,14,o),
(332,8,cs)
);
},
{
attr = {
identifier = ID0x7faded1a7c00;
lineCapEnd = 1;
lineCapStart = 1;
strokeHeight = 45;
strokeWidth = 40;
};
closed = 0;
nodes = (
(42,-4,l),
(170,-4,o),
(240,305,o),
(257,370,c)
);
},
{
attr = {
identifier = ID0x7fade9b16650;
lineCapEnd = 1;
lineCapStart = 1;
strokeHeight = 45;
strokeWidth = 40;
};
closed = 0;
nodes = (
(684,355,l),
(653,368,o),
(622,374,o),
(593,374,cs),
(499,374,o),
(425,309,o),
(425,180,cs),
(425,-71,o),
(774,-79,o),
(794,179,c)
);
}
);
};
layerId = "6F9C6BB4-2DCF-443B-A55D-9CE049090094";
shapes = (
{
alignment = -1;
ref = x;
}
);
width = 723;
}
);
metricLeft = a;
metricRight = a;
},
{
glyphname = y.init;
lastChange = "2024-04-11 12:56:10 +0000";
layers = (
{
background = {
shapes = (
{
closed = 0;
nodes = (
(492,360,l),
(489,270,ls),
(483,102,o),
(411,1,o),
(352,1,cs),
(314,1,o),
(282,25,o),
(282,90,c)
);
},
{
pos = (166,0);
ref = trazo.entrada.curvo;
},
{
pos = (365,0);
ref = bucle.descendente;
}
);
};
layerId = "6F9C6BB4-2DCF-443B-A55D-9CE049090094";
shapes = (
{
ref = y;
}
);
width = 560;
}
);
metricLeft = a;
metricRight = a;
},
{
glyphname = z.init;
lastChange = "2024-04-11 12:56:10 +0000";
layers = (
{
background = {
shapes = (
{
pos = (60,0);
ref = _trazo.entra;
},
{
attr = {
lineCapEnd = "1";
lineCapStart = "1";
strokeHeight = 45;
strokeWidth = 40;
};
closed = 0;
nodes = (
(187,389,l),
(207,367,o),
(271,355,o),
(338,355,cs),
(360,355,o),
(506,360,o),
(506,360,c),
(507,357,l),
(426,254,o),
(362,151,o),
(280,48,c),
(426,0,o),
(457,-56,o),
(457,-196,cs),
(457,-295,o),
(412,-349,o),
(371,-349,cs),
(338,-349,o),
(308,-311,o),
(308,-249,cs),
(308,-146,o),
(421,-4,o),
(528,-4,c)
);
},
{
attr = {
lineCapEnd = "1";
lineCapStart = "1";
strokeHeight = 45;
strokeWidth = 40;
};
closed = 0;
nodes = (
(210,179,l),
(218,276,o),
(184,393,o),
(184,393,c)
);
}
);
};
layerId = "6F9C6BB4-2DCF-443B-A55D-9CE049090094";
shapes = (
{
ref = z;
}
);
width = 459;
}
);
metricLeft = a;
metricRight = a;
},
{
glyphname = e.left.b;
kernLeft = lc_round;
lastChange = "2024-04-11 12:56:10 +0000";
layers = (
{
anchors = (
{
name = bottom;
pos = (109,0);
},
{
name = ogonek;
pos = (195,10);
},
{
name = top;
pos = (143,360);
}
);
background = {
shapes = (
{
closed = 0;
nodes = (
(157,-5,l),
(73,-5,o),
(1,58,o),
(1,175,cs),
(1,304,o),
(82,364,o),
(139,364,cs),
(263,364,o),
(221,158,o),
(1,168,c)
);
}
);
};
guides = (
{
pos = (156,364);
}
);
layerId = "6F9C6BB4-2DCF-443B-A55D-9CE049090094";
shapes = (
{
closed = 1;
nodes = (
(102,19,o),
(24,75,o),
(24,175,cs),
(24,289,o),
(93,340,o),
(139,340,cs),
(220,340,o),
(179,184,o),
(2,192,c),
(0,144,l),
(242,133,o),
(289,388,o),
(139,388,cs),
(71,388,o),
(-22,319,o),
(-22,175,cs),
(-22,43,o),
(82,-29,o),
(197,-29,c),
(207,-13,o),
(207,3,o),
(197,19,c)
);
}
);
width = 197;
}
);
},
{
glyphname = s.left.b;
lastChange = "2024-04-11 12:56:10 +0000";
layers = (
{
background = {
shapes = (
{
attr = {
lineCapEnd = "1";
lineCapStart = "1";
};
closed = 0;
nodes = (
(48,29,l),
(147,-14,o),
(375,-59,o),
(440,180,c)
);
}
);
};
layerId = "6F9C6BB4-2DCF-443B-A55D-9CE049090094";
shapes = (
{
ref = _conect.left.b.i;
},
{
pos = (68,0);
ref = _s.base;
},
{
pos = (291,0);
ref = _conector.saleida.s;
}
);
width = 384;
}
);
metricRight = a;
},
{
glyphname = e.left.g;
lastChange = "2024-04-11 12:56:10 +0000";
layers = (
{
anchors = (
{
name = bottom;
pos = (181,0);
},
{
name = ogonek;
pos = (317,10);
},
{
name = top;
pos = (227,360);
}
);
background = {
shapes = (
{
attr = {
identifier = ID0x7fe6d54b4b70;
lineCapEnd = "1";
lineCapStart = "1";
};
closed = 0;
nodes = (
(40,-2,l),
(84,31,o),
(132,54,o),
(170,78,c)
);
},
{
attr = {
identifier = ID0x7fc01609cca0;
lineCapEnd = "1";
lineCapStart = "1";
};
closed = 0;
nodes = (
(196,55,l),
(323,162,o),
(328,364,o),
(217,364,cs),
(90,364,o),
(73,-5,o),
(351,-5,cs)
);
}
);
};
layerId = "6F9C6BB4-2DCF-443B-A55D-9CE049090094";
shapes = (
{
closed = 1;
nodes = (
(207,19,o),
(152,126,o),
(152,221,cs),
(152,287,o),
(179,340,o),
(217,340,cs),
(254,340,o),
(273,315,o),
(273,274,cs),
(273,138,o),
(99,67,o),
(-9,22,c),
(-13,0,o),
(-7,-14,o),
(9,-22,c),
(117,23,o),
(319,104,o),
(319,274,cs),
(319,337,o),
(284,388,o),
(217,388,cs),
(146,388,o),
(106,306,o),
(106,221,cs),
(106,108,o),
(175,-29,o),
(351,-29,c),
(361,-13,o),
(361,3,o),
(351,19,c)
);
}
);
width = 351;
}
);
},
{
glyphname = s.left.g;
lastChange = "2024-04-11 12:56:10 +0000";
layers = (
{
background = {
shapes = (
{
attr = {
lineCapEnd = "1";
lineCapStart = "1";
};
closed = 0;
nodes = (
(190,20,l),
(238,-5,o),
(353,-15,o),
(430,-5,cs),
(505,5,o),
(548,58,o),
(588,180,c)
);
}
);
};
layerId = "6F9C6BB4-2DCF-443B-A55D-9CE049090094";
shapes = (
{
ref = _conect.left.long.g;
},
{
pos = (226,0);
ref = _s.base;
},
{
pos = (449,0);
ref = _conector.saleida.s;
}
);
width = 542;
}
);
},
{
glyphname = e.left.o;
kernLeft = lc_round;
lastChange = "2024-04-11 12:56:10 +0000";
layers = (
{
anchors = (
{
name = bottom;
pos = (145,0);
},
{
name = ogonek;
pos = (260,10);
},
{
name = top;
pos = (205,360);
}
);
background = {
shapes = (
{
closed = 0;
nodes = (
(289,-5,ls),
(278,-7,o),
(267,-7,o),
(257,-7,cs),
(32,-7,o),
(49,363,o),
(221,363,cs),
(256,363,o),
(288,332,o),
(288,274,cs),
(288,160,o),
(165,112,o),
(0,112,cs),
(-96,112,o),
(-201,174,o),
(-201,295,cs)
);
}
);
};
layerId = "6F9C6BB4-2DCF-443B-A55D-9CE049090094";
shapes = (
{
closed = 1;
nodes = (
(356,68,o),
(362,387,o),
(203,387,cs),
(118,387,o),
(63,292,o),
(63,196,cs),
(63,89,o),
(131,-29,o),
(309,-29,c),
(319,-13,o),
(319,3,o),
(309,19,c),
(163,19,o),
(109,109,o),
(109,196,cs),
(109,272,o),
(150,339,o),
(203,339,cs),
(299,339,o),
(287,116,o),
(0,116,c),
(-10,100,o),
(-10,84,o),
(0,68,c)
);
}
);
width = 309;
}
);
},
{
glyphname = zero;
lastChange = "2024-04-11 14:28:13 +0000";
layers = (
{
background = {
shapes = (
{
attr = {
lineCapEnd = "1";
lineCapStart = "1";
strokeHeight = 45;
strokeWidth = 40;
};
closed = 1;
nodes = (
(53,495,o),
(156,700,o),
(346,700,cs),
(502,700,o),
(589,565,o),
(592,394,cs),
(596,205,o),
(493,0,o),
(303,0,cs),
(147,0,o),
(60,135,o),
(57,306,cs)
);
}
);
};
layerId = "6F9C6BB4-2DCF-443B-A55D-9CE049090094";
shapes = (
{
closed = 1;
nodes = (
(481,676,o),
(549,533,o),
(549,348,cs),
(549,162,o),
(481,19,o),
(345,19,cs),
(209,19,o),
(141,162,o),
(141,348,cs),
(141,533,o),
(209,676,o),
(345,676,c),
(345,724,l),
(175,724,o),
(95,551,o),
(95,348,cs),
(95,144,o),
(175,-29,o),
(345,-29,cs),
(515,-29,o),
(595,144,o),
(595,348,cs),
(595,551,o),
(515,724,o),
(345,724,c),
(345,676,l)
);
}
);
width = 690;
}
);
unicode = 48;
},
{
glyphname = one;
lastChange = "2024-04-11 14:28:13 +0000";
layers = (
{
annotations = (
{
pos = (280,728);
type = Text;
},
{
pos = (254.076,700.262);
type = Text;
},
{
pos = (245,711);
type = Text;
}
);
layerId = "6F9C6BB4-2DCF-443B-A55D-9CE049090094";
shapes = (
{
closed = 1;
nodes = (
(298,-34,o),
(314,-34,o),
(329,-24,c),
(344,790,l),
(389,755,l),
(273,755,l),
(308,766,l),
(240,645,o),
(166,532,o),
(84,435,c),
(86,415,o),
(98,405,o),
(120,405,c),
(190,488,o),
(256,585,o),
(317,688,c),
(296,700,l),
(283,-24,l)
);
}
);
width = 453;
}
);
unicode = 49;
},
{
glyphname = two;
lastChange = "2024-04-11 14:28:13 +0000";
layers = (
{
hints = (
{
horizontal = 1;
origin = (0,11);
settings = {
deltaV = {
"{100, 100, 0, 0, 0, 0}" = {
"62" = 0;
};
};
};
type = TTDelta;
},
{
horizontal = 1;
origin = (0,11);
settings = {
deltaV = {
"{100, 100, 0, 0, 0, 0}" = {
"62" = 0;
};
};
};
type = TTDelta;
},
{
horizontal = 1;
origin = (0,11);
settings = {
deltaV = {
"{100, 100, 0, 0, 0, 0}" = {
"62" = 0;
};
};
};
type = TTDelta;
},
{
horizontal = 1;
origin = (0,11);
settings = {
deltaV = {
"{100, 100, 0, 0, 0, 0}" = {
"62" = 0;
};
};
};
type = TTDelta;
},
{
horizontal = 1;
origin = (0,7);
settings = {
deltaV = {
"{100, 100, 0, 0, 0, 0}" = {
"62" = 0;
};
};
};
type = TTDelta;
},
{
horizontal = 1;
origin = (0,7);
settings = {
deltaV = {
"{100, 100, 0, 0, 0, 0}" = {
"62" = 0;
};
};
};
type = TTDelta;
},
{
horizontal = 1;
origin = (0,7);
settings = {
deltaV = {
"{100, 100, 0, 0, 0, 0}" = {
"62" = 0;
};
};
};
type = TTDelta;
},
{
horizontal = 1;
origin = (0,0,0,2);
settings = {
deltaV = {
"{100, 100, 0, 0, 0, 0}" = {
"62" = 0;
};
};
};
stem = 1000;
type = TTDelta;
},
{
horizontal = 1;
origin = (0,0,0,2);
settings = {
deltaV = {
"{100, 100, 0, 0, 0, 0}" = {
"62" = 0;
};
};
};
stem = 1000;
type = TTDelta;
},
{
horizontal = 1;
origin = (0,0,0,2);
settings = {
deltaV = {
"{100, 100, 0, 0, 0, 0}" = {
"62" = 0;
};
};
};
stem = 1000;
type = TTDelta;
},
{
horizontal = 1;
origin = (0,0,0,2);
settings = {
deltaV = {
"{100, 100, 0, 0, 0, 0}" = {
"62" = 0;
};
};
};
stem = 1000;
type = TTDelta;
},
{
horizontal = 1;
origin = (0,0,0,2);
settings = {
deltaV = {
"{100, 100, 0, 0, 0, 0}" = {
"62" = 0;
};
};
};
stem = 1000;
type = TTDelta;
},
{
horizontal = 1;
origin = (0,0,0,2);
settings = {
deltaV = {
"{100, 100, 0, 0, 0, 0}" = {
"62" = 0;
};
};
};
stem = 1000;
type = TTDelta;
}
);
layerId = "6F9C6BB4-2DCF-443B-A55D-9CE049090094";
shapes = (
{
attr = {
identifier = ID0x7fea05e04080;
};
closed = 1;
nodes = (
(137,24,l),
(153,-11,l),
(283,146,ls),
(450,348,o),
(513,441,o),
(513,556,cs),
(513,664,o),
(413,723,o),
(311,723,cs),
(266,723,o),
(187,711,o),
(144,684,c),
(143,661,o),
(151,647,o),
(170,644,c),
(201,665,o),
(270,675,o),
(311,675,cs),
(393,675,o),
(467,632,o),
(467,556,cs),
(467,459,o),
(412,376,o),
(247,176,cs),
(53,-59,l),
(37,-24,l),
(528,-24,l),
(538,-8,o),
(538,8,o),
(528,24,c)
);
}
);
width = 621;
}
);
unicode = 50;
},
{
glyphname = three;
lastChange = "2024-04-11 14:28:13 +0000";
layers = (
{
annotations = (
{
pos = (129,258);
type = Text;
}
);
hints = (
{
horizontal = 1;
origin = (0,0);
settings = {
deltaV = {
"{100, 100, 0, 0, 0, 0}" = {
"62" = 0;
};
};
};
type = TTDelta;
},
{
horizontal = 1;
origin = (0,0);
settings = {
deltaV = {
"{100, 100, 0, 0, 0, 0}" = {
"62" = 0;
};
};
};
type = TTDelta;
},
{
horizontal = 1;
origin = (0,0);
settings = {
deltaV = {
"{100, 100, 0, 0, 0, 0}" = {
"62" = 0;
};
};
};
type = TTDelta;
},
{
horizontal = 1;
origin = (2,6);
settings = {
deltaV = {
"{100, 100, 0, 0, 0, 0}" = {
"62" = 0;
};
};
};
type = TTDelta;
},
{
horizontal = 1;
origin = (0,28);
settings = {
deltaV = {
"{100, 100, 0, 0, 0, 0}" = {
"62" = 0;
};
};
};
type = TTDelta;
},
{
horizontal = 1;
origin = (0,28);
settings = {
deltaV = {
"{100, 100, 0, 0, 0, 0}" = {
"62" = 0;
};
};
};
type = TTDelta;
},
{
horizontal = 1;
origin = (0,28);
settings = {
deltaV = {
"{100, 100, 0, 0, 0, 0}" = {
"62" = 0;
};
};
};
type = TTDelta;
},
{
horizontal = 1;
origin = (0,42);
settings = {
deltaV = {
"{100, 100, 0, 0, 0, 0}" = {
"62" = 0;
};
};
};
type = TTDelta;
},
{
horizontal = 1;
origin = (0,42);
settings = {
deltaV = {
"{100, 100, 0, 0, 0, 0}" = {
"62" = 0;
};
};
};
type = TTDelta;
},
{
horizontal = 1;
origin = (0,42);
settings = {
deltaV = {
"{100, 100, 0, 0, 0, 0}" = {
"62" = 0;
};
};
};
type = TTDelta;
},
{
horizontal = 1;
origin = (0,42);
settings = {
deltaV = {
"{100, 100, 0, 0, 0, 0}" = {
"62" = 0;
};
};
};
type = TTDelta;
},
{
horizontal = 1;
origin = (0,42);
settings = {
deltaV = {
"{100, 100, 0, 0, 0, 0}" = {
"62" = 0;
};
};
};
type = TTDelta;
},
{
horizontal = 1;
origin = (0,42);
settings = {
deltaV = {
"{100, 100, 0, 0, 0, 0}" = {
"62" = 0;
};
};
};
type = TTDelta;
}
);
layerId = "6F9C6BB4-2DCF-443B-A55D-9CE049090094";
shapes = (
{
closed = 1;
nodes = (
(344,336,o),
(441,299,o),
(443,188,cs),
(445,62,o),
(347,19,o),
(252,19,cs),
(193,19,o),
(139,33,o),
(110,53,c),
(91,50,o),
(83,36,o),
(84,13,c),
(121,-13,o),
(185,-29,o),
(252,-29,cs),
(363,-29,o),
(491,27,o),
(489,188,cs),
(487,332,o),
(367,380,o),
(181,384,c),
(183,337,l),
(328,357,o),
(466,389,o),
(463,556,cs),
(462,665,o),
(360,723,o),
(259,723,cs),
(212,723,o),
(164,711,o),
(123,684,c),
(122,661,o),
(130,647,o),
(149,644,c),
(180,665,o),
(220,675,o),
(259,675,cs),
(342,675,o),
(416,631,o),
(417,556,cs),
(420,422,o),
(305,402,o),
(155,382,c),
(146,367,o),
(146,351,o),
(157,336,c)
);
}
);
width = 579;
}
);
unicode = 51;
},
{
glyphname = four;
lastChange = "2024-04-11 14:28:13 +0000";
layers = (
{
layerId = "6F9C6BB4-2DCF-443B-A55D-9CE049090094";
shapes = (
{
attr = {
identifier = ID0x7fe9ed50ee20;
};
closed = 1;
nodes = (
(473,450,l),
(458,460,o),
(442,460,o),
(427,450,c),
(427,-24,l),
(442,-34,o),
(458,-34,o),
(473,-24,c)
);
},
{
closed = 1;
nodes = (
(143,263,l),
(219,696,l),
(204,709,o),
(188,711,o),
(173,704,c),
(87,215,l),
(563,215,l),
(573,231,o),
(573,247,o),
(563,263,c)
);
}
);
width = 654;
}
);
unicode = 52;
},
{
glyphname = five;
lastChange = "2024-04-11 14:28:13 +0000";
layers = (
{
layerId = "6F9C6BB4-2DCF-443B-A55D-9CE049090094";
shapes = (
{
closed = 1;
nodes = (
(113,725,l),
(113,315,l),
(96,354,l),
(129,367,o),
(210,391,o),
(293,391,cs),
(422,391,o),
(461,306,o),
(461,211,cs),
(461,109,o),
(419,19,o),
(276,19,cs),
(211,19,o),
(152,34,o),
(120,56,c),
(101,51,o),
(93,37,o),
(94,16,c),
(134,-12,o),
(203,-29,o),
(276,-29,cs),
(453,-29,o),
(507,93,o),
(507,211,cs),
(507,322,o),
(456,439,o),
(293,439,cs),
(236,439,o),
(177,427,o),
(135,416,c),
(159,377,l),
(159,677,l),
(481,677,l),
(491,693,o),
(491,709,o),
(481,725,c)
);
}
);
width = 599;
}
);
unicode = 53;
},
{
glyphname = six;
lastChange = "2024-04-11 14:28:13 +0000";
layers = (
{
layerId = "6F9C6BB4-2DCF-443B-A55D-9CE049090094";
shapes = (
{
attr = {
identifier = ID0x7fe9ed5b6e30;
};
closed = 1;
nodes = (
(200,357,o),
(272,397,o),
(333,397,cs),
(426,397,o),
(477,301,o),
(475,204,cs),
(474,109,o),
(420,19,o),
(306,19,cs),
(189,19,o),
(135,160,o),
(142,352,cs),
(149,539,o),
(214,681,o),
(331,681,cs),
(358,681,o),
(400,674,o),
(419,662,c),
(437,665,o),
(445,679,o),
(443,702,c),
(414,720,o),
(364,729,o),
(331,729,cs),
(179,729,o),
(103,556,o),
(96,354,cs),
(89,146,o),
(152,-29,o),
(306,-29,cs),
(452,-29,o),
(520,89,o),
(521,204,cs),
(523,319,o),
(458,445,o),
(333,445,cs),
(256,445,o),
(170,397,o),
(104,291,c),
(142,265,l)
);
}
);
width = 611;
}
);
metricLeft = zero;
unicode = 54;
},
{
glyphname = seven;
lastChange = "2024-04-11 14:28:13 +0000";
layers = (
{
background = {
shapes = (
{
attr = {
identifier = ID0x7fe9ed852dc0;
lineCapEnd = 1;
lineCapStart = 1;
};
closed = 0;
nodes = (
(461,695,l),
(173,4,l)
);
},
{
attr = {
identifier = ID0x7fe9ed852dc0;
lineCapEnd = 1;
lineCapStart = 1;
};
closed = 0;
nodes = (
(111,700,l),
(461,700,l)
);
},
{
attr = {
identifier = ID0x7fe9ed852dc0;
lineCapEnd = "1";
lineCapStart = "1";
};
closed = 0;
nodes = (
(162,340,l),
(429,340,l)
);
}
);
};
layerId = "6F9C6BB4-2DCF-443B-A55D-9CE049090094";
shapes = (
{
attr = {
identifier = ID0x7fe9ed852dc0;
};
closed = 1;
nodes = (
(525,765,l),
(552,724,l),
(91,724,l),
(81,708,o),
(81,692,o),
(91,676,c),
(480,676,l),
(453,717,l),
(135,-24,l),
(151,-34,o),
(168,-34,o),
(184,-24,c)
);
},
{
attr = {
identifier = ID0x7fe9ed852dc0;
};
closed = 1;
nodes = (
(172,364,l),
(162,348,o),
(162,332,o),
(172,316,c),
(439,316,l),
(449,332,o),
(449,348,o),
(439,364,c)
);
}
);
width = 590;
}
);
unicode = 55;
},
{
glyphname = eight;
lastChange = "2024-04-11 14:28:13 +0000";
layers = (
{
background = {
shapes = (
{
attr = {
identifier = ID0x7fe9ef5fe080;
lineCapEnd = "1";
lineCapStart = "1";
};
closed = 0;
nodes = (
(372,352,ls),
(450,408,o),
(489,485,o),
(489,552,cs),
(489,632,o),
(433,699,o),
(325,699,cs),
(233,699,o),
(148,648,o),
(153,556,cs),
(158,464,o),
(244,411,o),
(324,367,cs),
(408,321,o),
(491,274,o),
(498,188,cs),
(509,44,o),
(394,-5,o),
(311,-5,cs),
(181,-5,o),
(114,76,o),
(114,174,cs),
(114,252,o),
(162,339,o),
(260,392,cs)
);
}
);
};
hints = (
{
horizontal = 1;
place = (0,0);
settings = {
deltaV = {
"{100, 100, 0, 0, 0, 0}" = {
"62" = 0;
};
};
};
type = TTDelta;
},
{
horizontal = 1;
place = (0,0);
settings = {
deltaV = {
"{100, 100, 0, 0, 0, 0}" = {
"62" = 0;
};
};
};
type = TTDelta;
},
{
horizontal = 1;
place = (0,0);
settings = {
deltaV = {
"{100, 100, 0, 0, 0, 0}" = {
"62" = 0;
};
};
};
type = TTDelta;
},
{
horizontal = 1;
place = (174,0);
settings = {
deltaV = {
"{100, 100, 0, 0, 0, 0}" = {
"62" = 0;
};
};
};
type = TTDelta;
},
{
horizontal = 1;
place = (511,0);
settings = {
deltaV = {
"{100, 100, 0, 0, 0, 0}" = {
"62" = 0;
};
};
};
type = TTDelta;
},
{
horizontal = 1;
place = (511,0);
settings = {
deltaV = {
"{100, 100, 0, 0, 0, 0}" = {
"62" = 0;
};
};
};
type = TTDelta;
},
{
horizontal = 1;
place = (511,0);
settings = {
deltaV = {
"{100, 100, 0, 0, 0, 0}" = {
"62" = 0;
};
};
};
type = TTDelta;
},
{
horizontal = 1;
place = (699,0);
settings = {
deltaV = {
"{100, 100, 0, 0, 0, 0}" = {
"62" = 0;
};
};
};
type = TTDelta;
},
{
horizontal = 1;
place = (699,0);
settings = {
deltaV = {
"{100, 100, 0, 0, 0, 0}" = {
"62" = 0;
};
};
};
type = TTDelta;
},
{
horizontal = 1;
place = (699,0);
settings = {
deltaV = {
"{100, 100, 0, 0, 0, 0}" = {
"62" = 0;
};
};
};
type = TTDelta;
},
{
horizontal = 1;
place = (699,0);
settings = {
deltaV = {
"{100, 100, 0, 0, 0, 0}" = {
"62" = 0;
};
};
};
type = TTDelta;
},
{
horizontal = 1;
place = (699,0);
settings = {
deltaV = {
"{100, 100, 0, 0, 0, 0}" = {
"62" = 0;
};
};
};
type = TTDelta;
},
{
horizontal = 1;
place = (699,0);
settings = {
deltaV = {
"{100, 100, 0, 0, 0, 0}" = {
"62" = 0;
};
};
};
type = TTDelta;
}
);
layerId = "6F9C6BB4-2DCF-443B-A55D-9CE049090094";
shapes = (
{
attr = {
identifier = ID0x7fe9ef5fe080;
};
closed = 1;
nodes = (
(146,338,o),
(91,249,o),
(91,167,cs),
(91,62,o),
(177,-30,o),
(307,-30,cs),
(435,-30,o),
(526,65,o),
(526,170,cs),
(526,247,o),
(476,326,o),
(362,371,cs),
(268,408,ls),
(189,439,o),
(153,497,o),
(153,550,cs),
(153,617,o),
(209,680,o),
(313,680,cs),
(415,680,o),
(466,619,o),
(466,551,cs),
(466,480,o),
(412,402,o),
(290,376,c),
(275,430,l),
(346,341,l),
(458,382,o),
(512,470,o),
(512,551,cs),
(512,644,o),
(442,728,o),
(313,728,cs),
(181,728,o),
(107,643,o),
(107,550,cs),
(107,477,o),
(155,401,o),
(252,364,cs),
(346,327,ls),
(442,288,o),
(480,227,o),
(480,170,cs),
(480,93,o),
(411,18,o),
(307,18,cs),
(202,18,o),
(137,89,o),
(137,167,cs),
(137,239,o),
(191,317,o),
(328,356,c),
(361,300,l),
(270,386,l)
);
}
);
width = 618;
}
);
unicode = 56;
},
{
glyphname = nine;
lastChange = "2024-04-11 14:28:13 +0000";
layers = (
{
background = {
shapes = (
{
pos = (1,0);
ref = nine.alt;
}
);
};
layerId = "6F9C6BB4-2DCF-443B-A55D-9CE049090094";
shapes = (
{
attr = {
identifier = ID0x7fe9ed288520;
};
closed = 1;
nodes = (
(398,381,o),
(332,352,o),
(269,352,cs),
(186,352,o),
(136,433,o),
(136,518,cs),
(136,604,o),
(186,685,o),
(300,685,cs),
(377,685,o),
(448,642,o),
(444,565,cs),
(417,-24,l),
(432,-34,o),
(448,-34,o),
(463,-24,c),
(490,566,ls),
(495,676,o),
(397,733,o),
(300,733,cs),
(154,733,o),
(90,624,o),
(90,518,cs),
(90,413,o),
(154,304,o),
(269,304,cs),
(344,304,o),
(424,339,o),
(476,408,c),
(440,436,l)
);
}
);
width = 592;
}
);
unicode = 57;
},
{
glyphname = eight.alt;
lastChange = "2024-04-11 12:56:10 +0000";
layers = (
{
hints = (
{
horizontal = 1;
place = (0,0);
settings = {
deltaV = {
"{100, 100, 0, 0, 0, 0}" = {
"62" = 0;
};
};
};
type = TTDelta;
},
{
horizontal = 1;
place = (0,0);
settings = {
deltaV = {
"{100, 100, 0, 0, 0, 0}" = {
"62" = 0;
};
};
};
type = TTDelta;
},
{
horizontal = 1;
place = (0,0);
settings = {
deltaV = {
"{100, 100, 0, 0, 0, 0}" = {
"62" = 0;
};
};
};
type = TTDelta;
},
{
horizontal = 1;
place = (174,0);
settings = {
deltaV = {
"{100, 100, 0, 0, 0, 0}" = {
"62" = 0;
};
};
};
type = TTDelta;
},
{
horizontal = 1;
place = (511,0);
settings = {
deltaV = {
"{100, 100, 0, 0, 0, 0}" = {
"62" = 0;
};
};
};
type = TTDelta;
},
{
horizontal = 1;
place = (511,0);
settings = {
deltaV = {
"{100, 100, 0, 0, 0, 0}" = {
"62" = 0;
};
};
};
type = TTDelta;
},
{
horizontal = 1;
place = (511,0);
settings = {
deltaV = {
"{100, 100, 0, 0, 0, 0}" = {
"62" = 0;
};
};
};
type = TTDelta;
},
{
horizontal = 1;
place = (699,0);
settings = {
deltaV = {
"{100, 100, 0, 0, 0, 0}" = {
"62" = 0;
};
};
};
type = TTDelta;
},
{
horizontal = 1;
place = (699,0);
settings = {
deltaV = {
"{100, 100, 0, 0, 0, 0}" = {
"62" = 0;
};
};
};
type = TTDelta;
},
{
horizontal = 1;
place = (699,0);
settings = {
deltaV = {
"{100, 100, 0, 0, 0, 0}" = {
"62" = 0;
};
};
};
type = TTDelta;
},
{
horizontal = 1;
place = (699,0);
settings = {
deltaV = {
"{100, 100, 0, 0, 0, 0}" = {
"62" = 0;
};
};
};
type = TTDelta;
},
{
horizontal = 1;
place = (699,0);
settings = {
deltaV = {
"{100, 100, 0, 0, 0, 0}" = {
"62" = 0;
};
};
};
type = TTDelta;
},
{
horizontal = 1;
place = (699,0);
settings = {
deltaV = {
"{100, 100, 0, 0, 0, 0}" = {
"62" = 0;
};
};
};
type = TTDelta;
}
);
layerId = "6F9C6BB4-2DCF-443B-A55D-9CE049090094";
shapes = (
{
attr = {
identifier = ID0x7fe9ef5fe080;
lineCapEnd = "1";
lineCapStart = "1";
};
closed = 0;
nodes = (
(347,352,ls),
(425,408,o),
(464,485,o),
(464,552,cs),
(464,632,o),
(408,699,o),
(300,699,cs),
(208,699,o),
(123,648,o),
(128,556,cs),
(133,464,o),
(219,411,o),
(299,367,cs),
(383,321,o),
(466,274,o),
(473,188,cs),
(484,44,o),
(369,-5,o),
(286,-5,cs),
(156,-5,o),
(89,76,o),
(89,174,cs),
(89,252,o),
(137,339,o),
(235,392,cs)
);
}
);
width = 571;
}
);
},
{
glyphname = nine.alt;
lastChange = "2024-04-11 12:56:10 +0000";
layers = (
{
layerId = "6F9C6BB4-2DCF-443B-A55D-9CE049090094";
shapes = (
{
attr = {
identifier = ID0x7fe9ed288520;
lineCapEnd = 1;
lineCapStart = 1;
};
closed = 0;
nodes = (
(153,18,l),
(177,3,o),
(223,-5,o),
(253,-5,cs),
(388,-5,o),
(465,106,o),
(465,357,cs),
(465,552,o),
(414,710,o),
(278,710,cs),
(148,710,o),
(87,606,o),
(86,501,cs),
(84,395,o),
(142,289,o),
(251,289,cs),
(320,289,o),
(386,314,o),
(461,375,c)
);
}
);
width = 570;
}
);
},
{
glyphname = zero.numr;
lastChange = "2024-04-11 14:28:13 +0000";
layers = (
{
layerId = "6F9C6BB4-2DCF-443B-A55D-9CE049090094";
shapes = (
{
closed = 0;
nodes = (
(231,748,l),
(139,748,o),
(95,669,o),
(95,572,cs),
(95,474,o),
(139,395,o),
(231,395,cs),
(323,395,o),
(367,474,o),
(367,572,cs),
(367,669,o),
(323,748,o),
(231,748,c)
);
}
);
width = 462;
}
);
metricLeft = zero;
metricRight = zero;
},
{
glyphname = one.numr;
lastChange = "2024-04-11 12:56:10 +0000";
layers = (
{
layerId = "6F9C6BB4-2DCF-443B-A55D-9CE049090094";
shapes = (
{
attr = {
identifier = ID0x7fc5b2035410;
lineCapEnd = 1;
lineCapStart = 1;
};
closed = 0;
nodes = (
(152,750,l),
(144,400,l)
);
},
{
attr = {
identifier = ID0x7fc5b2035410;
lineCapEnd = 1;
lineCapStart = 1;
};
closed = 0;
nodes = (
(33,610,l),
(75,652,o),
(114,699,o),
(150,750,c)
);
}
);
width = 226;
}
);
},
{
glyphname = two.numr;
lastChange = "2024-04-11 14:28:13 +0000";
layers = (
{
hints = (
{
horizontal = 1;
origin = (0,10);
settings = {
deltaV = {
"{100, 100, 0, 0, 0, 0}" = {
"62" = 0;
};
};
};
type = TTDelta;
},
{
horizontal = 1;
origin = (0,10);
settings = {
deltaV = {
"{100, 100, 0, 0, 0, 0}" = {
"62" = 0;
};
};
};
type = TTDelta;
},
{
horizontal = 1;
origin = (0,10);
settings = {
deltaV = {
"{100, 100, 0, 0, 0, 0}" = {
"62" = 0;
};
};
};
type = TTDelta;
},
{
horizontal = 1;
origin = (0,10);
settings = {
deltaV = {
"{100, 100, 0, 0, 0, 0}" = {
"62" = 0;
};
};
};
type = TTDelta;
},
{
horizontal = 1;
origin = (0,6);
settings = {
deltaV = {
"{100, 100, 0, 0, 0, 0}" = {
"62" = 0;
};
};
};
type = TTDelta;
},
{
horizontal = 1;
origin = (0,6);
settings = {
deltaV = {
"{100, 100, 0, 0, 0, 0}" = {
"62" = 0;
};
};
};
type = TTDelta;
},
{
horizontal = 1;
origin = (0,6);
settings = {
deltaV = {
"{100, 100, 0, 0, 0, 0}" = {
"62" = 0;
};
};
};
type = TTDelta;
},
{
horizontal = 1;
origin = (0,0);
settings = {
deltaV = {
"{100, 100, 0, 0, 0, 0}" = {
"62" = 0;
};
};
};
type = TTDelta;
},
{
horizontal = 1;
origin = (0,0);
settings = {
deltaV = {
"{100, 100, 0, 0, 0, 0}" = {
"62" = 0;
};
};
};
type = TTDelta;
},
{
horizontal = 1;
origin = (0,0);
settings = {
deltaV = {
"{100, 100, 0, 0, 0, 0}" = {
"62" = 0;
};
};
};
type = TTDelta;
},
{
horizontal = 1;
origin = (0,0);
settings = {
deltaV = {
"{100, 100, 0, 0, 0, 0}" = {
"62" = 0;
};
};
};
type = TTDelta;
},
{
horizontal = 1;
origin = (0,0);
settings = {
deltaV = {
"{100, 100, 0, 0, 0, 0}" = {
"62" = 0;
};
};
};
type = TTDelta;
},
{
horizontal = 1;
origin = (0,0);
settings = {
deltaV = {
"{100, 100, 0, 0, 0, 0}" = {
"62" = 0;
};
};
};
type = TTDelta;
}
);
layerId = "6F9C6BB4-2DCF-443B-A55D-9CE049090094";
shapes = (
{
attr = {
identifier = ID0x7fc5b20358d0;
lineCapEnd = 1;
lineCapStart = 1;
};
closed = 0;
nodes = (
(97,732,l),
(119,744,o),
(164,750,o),
(190,750,cs),
(245,750,o),
(297,724,o),
(297,678,cs),
(297,625,o),
(262,581,o),
(162,481,cs),
(82,400,l),
(320,400,l)
);
}
);
width = 406;
}
);
metricLeft = two;
metricRight = two;
},
{
glyphname = three.numr;
lastChange = "2024-04-11 12:56:10 +0000";
layers = (
{
hints = (
{
horizontal = 1;
origin = (1,9);
settings = {
deltaV = {
"{100, 100, 0, 0, 0, 0}" = {
"62" = 0;
};
};
};
type = TTDelta;
},
{
horizontal = 1;
origin = (1,9);
settings = {
deltaV = {
"{100, 100, 0, 0, 0, 0}" = {
"62" = 0;
};
};
};
type = TTDelta;
},
{
horizontal = 1;
origin = (1,9);
settings = {
deltaV = {
"{100, 100, 0, 0, 0, 0}" = {
"62" = 0;
};
};
};
type = TTDelta;
},
{
horizontal = 1;
origin = (2,6);
settings = {
deltaV = {
"{100, 100, 0, 0, 0, 0}" = {
"62" = 0;
};
};
};
type = TTDelta;
},
{
horizontal = 1;
origin = (0,6);
settings = {
deltaV = {
"{100, 100, 0, 0, 0, 0}" = {
"62" = 0;
};
};
};
type = TTDelta;
},
{
horizontal = 1;
origin = (0,6);
settings = {
deltaV = {
"{100, 100, 0, 0, 0, 0}" = {
"62" = 0;
};
};
};
type = TTDelta;
},
{
horizontal = 1;
origin = (0,6);
settings = {
deltaV = {
"{100, 100, 0, 0, 0, 0}" = {
"62" = 0;
};
};
};
type = TTDelta;
},
{
horizontal = 1;
origin = (0,0);
settings = {
deltaV = {
"{100, 100, 0, 0, 0, 0}" = {
"62" = 0;
};
};
};
type = TTDelta;
},
{
horizontal = 1;
origin = (0,0);
settings = {
deltaV = {
"{100, 100, 0, 0, 0, 0}" = {
"62" = 0;
};
};
};
type = TTDelta;
},
{
horizontal = 1;
origin = (0,0);
settings = {
deltaV = {
"{100, 100, 0, 0, 0, 0}" = {
"62" = 0;
};
};
};
type = TTDelta;
},
{
horizontal = 1;
origin = (0,0);
settings = {
deltaV = {
"{100, 100, 0, 0, 0, 0}" = {
"62" = 0;
};
};
};
type = TTDelta;
},
{
horizontal = 1;
origin = (0,0);
settings = {
deltaV = {
"{100, 100, 0, 0, 0, 0}" = {
"62" = 0;
};
};
};
type = TTDelta;
},
{
horizontal = 1;
origin = (0,0);
settings = {
deltaV = {
"{100, 100, 0, 0, 0, 0}" = {
"62" = 0;
};
};
};
type = TTDelta;
}
);
layerId = "6F9C6BB4-2DCF-443B-A55D-9CE049090094";
shapes = (
{
attr = {
identifier = ID0x7fc5b2035e20;
lineCapEnd = 2;
lineCapStart = 2;
};
closed = 0;
nodes = (
(57,730,l),
(79,742,o),
(105,747,o),
(131,747,cs),
(186,747,o),
(239,722,o),
(240,676,cs),
(241,598,o),
(161,587,o),
(70,577,c)
);
},
{
attr = {
identifier = ID0x7fc5b2035e20;
lineCapEnd = 2;
lineCapStart = 2;
};
closed = 0;
nodes = (
(70,578,l),
(186,578,o),
(254,557,o),
(255,492,cs),
(256,420,o),
(189,395,o),
(127,395,cs),
(89,395,o),
(54,403,o),
(34,414,c)
);
}
);
width = 305;
}
);
},
{
glyphname = four.numr;
lastChange = "2024-04-11 14:28:13 +0000";
layers = (
{
layerId = "6F9C6BB4-2DCF-443B-A55D-9CE049090094";
shapes = (
{
attr = {
identifier = ID0x7fc5b20362e0;
lineCapEnd = 1;
lineCapStart = 1;
};
closed = 0;
nodes = (
(288,625,l),
(288,400,l)
);
},
{
attr = {
identifier = ID0x7fc5b20362e0;
lineCapEnd = 1;
lineCapStart = 1;
};
closed = 0;
nodes = (
(135,750,l),
(87,520,l),
(355,520,l)
);
}
);
width = 439;
}
);
metricLeft = four;
metricRight = four;
},
{
glyphname = five.numr;
lastChange = "2024-04-11 12:56:10 +0000";
layers = (
{
layerId = "6F9C6BB4-2DCF-443B-A55D-9CE049090094";
shapes = (
{
attr = {
identifier = ID0x7fc5b20367a0;
lineCapEnd = "2";
lineCapStart = "2";
};
closed = 0;
nodes = (
(50,416,l),
(72,403,o),
(110,395,o),
(152,395,cs),
(248,395,o),
(277,448,o),
(277,503,cs),
(277,555,o),
(250,605,o),
(162,605,cs),
(127,605,o),
(92,599,o),
(68,594,c),
(68,748,l),
(275,748,l)
);
}
);
width = 321;
}
);
},
{
glyphname = six.numr;
lastChange = "2024-04-11 14:28:13 +0000";
layers = (
{
layerId = "6F9C6BB4-2DCF-443B-A55D-9CE049090094";
shapes = (
{
attr = {
identifier = ID0x7fc5b2036c60;
lineCapEnd = 1;
lineCapStart = 1;
};
closed = 0;
nodes = (
(282,739,l),
(267,746,o),
(240,750,o),
(222,750,cs),
(141,750,o),
(99,671,o),
(95,574,cs),
(90,474,o),
(125,395,o),
(207,395,cs),
(285,395,o),
(321,447,o),
(322,500,cs),
(323,553,o),
(288,608,o),
(223,608,cs),
(182,608,o),
(134,586,o),
(97,537,c)
);
}
);
width = 412;
}
);
metricLeft = six;
metricRight = six;
},
{
glyphname = seven.numr;
lastChange = "2024-04-11 12:56:10 +0000";
layers = (
{
layerId = "6F9C6BB4-2DCF-443B-A55D-9CE049090094";
shapes = (
{
attr = {
identifier = ID0x7fc5b2037120;
lineCapEnd = 1;
lineCapStart = 1;
};
closed = 0;
nodes = (
(34,748,l),
(262,748,l),
(80,395,l)
);
},
{
attr = {
identifier = ID0x7fc5b2037120;
lineCapEnd = "1";
lineCapStart = "1";
};
closed = 0;
nodes = (
(77,568,l),
(237,568,l)
);
}
);
width = 296;
}
);
},
{
glyphname = eight.numr;
lastChange = "2024-04-11 14:28:13 +0000";
layers = (
{
hints = (
{
horizontal = 1;
place = (115,0);
settings = {
deltaV = {
"{100, 100, 0, 0, 0, 0}" = {
"62" = 0;
};
};
};
type = TTDelta;
},
{
horizontal = 1;
place = (115,0);
settings = {
deltaV = {
"{100, 100, 0, 0, 0, 0}" = {
"62" = 0;
};
};
};
type = TTDelta;
},
{
horizontal = 1;
place = (115,0);
settings = {
deltaV = {
"{100, 100, 0, 0, 0, 0}" = {
"62" = 0;
};
};
};
type = TTDelta;
},
{
horizontal = 1;
place = (219,0);
settings = {
deltaV = {
"{100, 100, 0, 0, 0, 0}" = {
"62" = 0;
};
};
};
type = TTDelta;
},
{
horizontal = 1;
place = (422,0);
settings = {
deltaV = {
"{100, 100, 0, 0, 0, 0}" = {
"62" = 0;
};
};
};
type = TTDelta;
},
{
horizontal = 1;
place = (422,0);
settings = {
deltaV = {
"{100, 100, 0, 0, 0, 0}" = {
"62" = 0;
};
};
};
type = TTDelta;
},
{
horizontal = 1;
place = (422,0);
settings = {
deltaV = {
"{100, 100, 0, 0, 0, 0}" = {
"62" = 0;
};
};
};
type = TTDelta;
},
{
horizontal = 1;
place = (534,0);
settings = {
deltaV = {
"{100, 100, 0, 0, 0, 0}" = {
"62" = 0;
};
};
};
type = TTDelta;
},
{
horizontal = 1;
place = (534,0);
settings = {
deltaV = {
"{100, 100, 0, 0, 0, 0}" = {
"62" = 0;
};
};
};
type = TTDelta;
},
{
horizontal = 1;
place = (534,0);
settings = {
deltaV = {
"{100, 100, 0, 0, 0, 0}" = {
"62" = 0;
};
};
};
type = TTDelta;
},
{
horizontal = 1;
place = (534,0);
settings = {
deltaV = {
"{100, 100, 0, 0, 0, 0}" = {
"62" = 0;
};
};
};
type = TTDelta;
},
{
horizontal = 1;
place = (534,0);
settings = {
deltaV = {
"{100, 100, 0, 0, 0, 0}" = {
"62" = 0;
};
};
};
type = TTDelta;
},
{
horizontal = 1;
place = (534,0);
settings = {
deltaV = {
"{100, 100, 0, 0, 0, 0}" = {
"62" = 0;
};
};
};
type = TTDelta;
}
);
layerId = "6F9C6BB4-2DCF-443B-A55D-9CE049090094";
shapes = (
{
attr = {
identifier = ID0x7fc5b20375e0;
lineCapEnd = "1";
lineCapStart = "1";
};
closed = 0;
nodes = (
(225,579,ls),
(287,598,o),
(316,637,o),
(316,673,cs),
(316,713,o),
(280,749,o),
(210,749,cs),
(139,749,o),
(100,712,o),
(100,672,cs),
(100,641,o),
(126,607,o),
(178,590,cs),
(235,572,ls),
(298,551,o),
(324,516,o),
(324,482,cs),
(324,437,o),
(276,394,o),
(207,394,cs),
(136,394,o),
(91,435,o),
(91,481,cs),
(91,517,o),
(120,557,o),
(189,579,cs)
);
}
);
width = 416;
}
);
metricLeft = eight;
metricRight = eight;
},
{
glyphname = nine.numr;
lastChange = "2024-04-11 14:28:13 +0000";
layers = (
{
layerId = "6F9C6BB4-2DCF-443B-A55D-9CE049090094";
shapes = (
{
attr = {
identifier = ID0x7fc5b2037aa0;
lineCapEnd = 1;
lineCapStart = 1;
};
closed = 0;
nodes = (
(286,395,l),
(302,680,ls),
(305,727,o),
(254,752,o),
(202,752,cs),
(124,752,o),
(90,705,o),
(90,657,cs),
(90,609,o),
(124,562,o),
(183,562,cs),
(225,562,o),
(269,578,o),
(297,609,c)
);
}
);
width = 404;
}
);
metricLeft = nine;
metricRight = nine;
},
{
glyphname = fraction;
lastChange = "2024-04-11 12:56:10 +0000";
layers = (
{
layerId = "6F9C6BB4-2DCF-443B-A55D-9CE049090094";
shapes = (
{
closed = 0;
nodes = (
(-180,0,l),
(417,710,l)
);
}
);
width = 237;
}
);
unicode = 8260;
},
{
glyphname = fraction.alt;
lastChange = "2024-04-11 12:56:10 +0000";
layers = (
{
layerId = "6F9C6BB4-2DCF-443B-A55D-9CE049090094";
shapes = (
{
closed = 0;
nodes = (
(110,331,l),
(490,331,l)
);
}
);
width = 600;
}
);
},
{
glyphname = comma;
lastChange = "2024-04-11 12:56:10 +0000";
layers = (
{
anchors = (
{
name = top;
pos = (132,91);
}
);
background = {
shapes = (
{
attr = {
lineCapEnd = 1;
lineCapStart = 1;
};
closed = 0;
nodes = (
(107,-192,l),
(222,-114,o),
(218,35,o),
(177,104,c)
);
}
);
};
layerId = "6F9C6BB4-2DCF-443B-A55D-9CE049090094";
shapes = (
{
closed = 1;
nodes = (
(188,19,o),
(178,-114,o),
(68,-172,c),
(65,-190,o),
(72,-205,o),
(90,-215,c),
(225,-142,o),
(238,22,o),
(201,104,c),
(184,107,o),
(169,101,o),
(159,83,c)
);
}
);
width = 312;
}
);
unicode = 44;
},
{
glyphname = exclamdown;
lastChange = "2024-04-11 12:56:10 +0000";
layers = (
{
layerId = "6F9C6BB4-2DCF-443B-A55D-9CE049090094";
shapes = (
{
pos = (116,0);
ref = dotaccentcomb;
},
{
closed = 1;
nodes = (
(168,329,l),
(153,340,o),
(137,340,o),
(122,331,c),
(109,-151,l),
(124,-162,o),
(140,-162,o),
(155,-153,c)
);
}
);
width = 280;
}
);
unicode = 161;
},
{
glyphname = questiondown;
lastChange = "2024-04-11 12:56:10 +0000";
layers = (
{
background = {
shapes = (
{
pos = (189,0);
ref = dotaccentcomb;
},
{
attr = {
lineCapEnd = "1";
lineCapStart = "1";
};
closed = 0;
nodes = (
(218,360,l),
(205,-152,l)
);
}
);
};
layerId = "6F9C6BB4-2DCF-443B-A55D-9CE049090094";
shapes = (
{
attr = {
identifier = ID0x7fdbb38b5c70;
};
closed = 1;
nodes = (
(339,259,o),
(325,247,o),
(263,219,cs),
(167,175,o),
(117,133,o),
(117,25,cs),
(117,-148,o),
(297,-171,o),
(393,-148,c),
(400,-131,o),
(396,-115,o),
(383,-102,c),
(305,-120,o),
(163,-105,o),
(163,25,cs),
(163,107,o),
(195,135,o),
(283,175,cs),
(349,205,o),
(385,229,o),
(385,331,c),
(370,341,o),
(354,341,o),
(339,331,c)
);
},
{
pos = (329,0);
ref = dotaccentcomb;
}
);
width = 568;
}
);
unicode = 191;
},
{
glyphname = periodcentered;
lastChange = "2024-04-11 12:56:10 +0000";
layers = (
{
anchors = (
{
name = _centerright;
pos = (159,320);
},
{
name = top;
pos = (159,360);
}
);
background = {
anchors = (
{
name = _centerright;
pos = (159,320);
},
{
name = top;
pos = (159,360);
}
);
shapes = (
{
closed = 1;
nodes = (
(177,276,o),
(188,289,o),
(188,318,cs),
(188,344,o),
(177,360,o),
(158,360,cs),
(140,360,o),
(129,346,o),
(129,318,cs),
(129,291,o),
(139,276,o),
(158,276,cs)
);
}
);
};
layerId = "6F9C6BB4-2DCF-443B-A55D-9CE049090094";
shapes = (
{
closed = 1;
nodes = (
(180,267,o),
(193,283,o),
(193,317,cs),
(193,348,o),
(180,367,o),
(158,367,cs),
(137,367,o),
(124,350,o),
(124,317,cs),
(124,285,o),
(135,267,o),
(158,267,cs)
);
}
);
width = 316;
}
);
unicode = 183;
},
{
glyphname = bullet;
lastChange = "2024-04-11 12:56:10 +0000";
layers = (
{
layerId = "6F9C6BB4-2DCF-443B-A55D-9CE049090094";
shapes = (
{
closed = 1;
nodes = (
(223,252,o),
(249,280,o),
(249,318,cs),
(249,357,o),
(221,384,o),
(184,384,cs),
(147,384,o),
(123,356,o),
(123,318,cs),
(123,277,o),
(148,252,o),
(184,252,cs)
);
}
);
width = 371;
}
);
unicode = 8226;
},
{
glyphname = asterisk;
lastChange = "2024-04-11 12:56:10 +0000";
layers = (
{
background = {
shapes = (
{
closed = 1;
nodes = (
(55,552,l),
(45,536,o),
(45,520,o),
(55,504,c),
(442,504,l),
(452,520,o),
(452,536,o),
(442,552,c)
);
},
{
closed = 1;
nodes = (
(172,707,l),
(132,683,l),
(325,348,l),
(365,372,l)
);
},
{
closed = 1;
nodes = (
(131,372,l),
(171,348,l),
(366,683,l),
(326,707,l)
);
}
);
};
layerId = "6F9C6BB4-2DCF-443B-A55D-9CE049090094";
shapes = (
{
closed = 1;
nodes = (
(55,552,l),
(45,536,o),
(45,520,o),
(55,504,c),
(442,504,l),
(452,520,o),
(452,536,o),
(442,552,c)
);
},
{
closed = 1;
nodes = (
(173,708,l),
(154,708,o),
(140,700,o),
(131,684,c),
(324,348,l),
(343,348,o),
(357,356,o),
(366,372,c)
);
},
{
closed = 1;
nodes = (
(367,683,l),
(357,700,o),
(343,708,o),
(325,708,c),
(130,373,l),
(140,356,o),
(154,348,o),
(172,348,c)
);
}
);
width = 496;
}
);
unicode = 42;
},
{
glyphname = numbersign;
lastChange = "2024-04-11 12:56:10 +0000";
layers = (
{
background = {
shapes = (
{
closed = 1;
nodes = (
(375,700,l),
(360,700,o),
(344,700,o),
(329,700,c),
(254,0,l),
(269,0,o),
(285,0,o),
(300,0,c)
);
},
{
closed = 1;
nodes = (
(595,700,l),
(580,700,o),
(564,700,o),
(549,700,c),
(474,0,l),
(489,0,o),
(505,0,o),
(520,0,c)
);
},
{
closed = 1;
nodes = (
(726,423,l),
(726,439,o),
(726,455,o),
(726,471,c),
(140,471,l),
(140,455,o),
(140,439,o),
(140,423,c)
);
},
{
closed = 1;
nodes = (
(709,223,l),
(709,239,o),
(709,255,o),
(709,271,c),
(123,271,l),
(123,255,o),
(123,239,o),
(123,223,c)
);
}
);
};
layerId = "6F9C6BB4-2DCF-443B-A55D-9CE049090094";
shapes = (
{
closed = 1;
nodes = (
(385,700,l),
(370,710,o),
(354,710,o),
(339,700,c),
(264,0,l),
(279,-10,o),
(295,-10,o),
(310,0,c)
);
},
{
closed = 1;
nodes = (
(709,223,l),
(719,239,o),
(719,255,o),
(709,271,c),
(123,271,l),
(113,255,o),
(113,239,o),
(123,223,c)
);
},
{
closed = 1;
nodes = (
(586,700,l),
(571,710,o),
(555,710,o),
(540,700,c),
(465,0,l),
(480,-10,o),
(496,-10,o),
(511,0,c)
);
},
{
closed = 1;
nodes = (
(726,423,l),
(736,439,o),
(736,455,o),
(726,471,c),
(140,471,l),
(130,455,o),
(130,439,o),
(140,423,c)
);
}
);
width = 851;
}
);
unicode = 35;
},
{
glyphname = slash;
lastChange = "2024-04-11 12:56:10 +0000";
layers = (
{
layerId = "6F9C6BB4-2DCF-443B-A55D-9CE049090094";
shapes = (
{
closed = 1;
nodes = (
(366,691,l),
(357,707,o),
(343,713,o),
(324,709,c),
(57,9,l),
(67,-7,o),
(81,-13,o),
(99,-9,c)
);
}
);
width = 424;
}
);
unicode = 47;
},
{
glyphname = backslash;
lastChange = "2024-04-11 12:56:10 +0000";
layers = (
{
background = {
shapes = (
{
attr = {
lineCapEnd = "1";
lineCapStart = "1";
};
closed = 0;
nodes = (
(80,700,l),
(321,0,l)
);
}
);
};
layerId = "6F9C6BB4-2DCF-443B-A55D-9CE049090094";
shapes = (
{
closed = 1;
nodes = (
(342,-13,o),
(356,-7,o),
(366,9,c),
(99,709,l),
(80,713,o),
(66,707,o),
(57,691,c),
(324,-9,l)
);
}
);
width = 400;
}
);
unicode = 92;
},
{
glyphname = hyphen;
lastChange = "2024-04-11 12:56:10 +0000";
layers = (
{
layerId = "6F9C6BB4-2DCF-443B-A55D-9CE049090094";
shapes = (
{
closed = 1;
nodes = (
(40,214,l),
(30,198,o),
(30,182,o),
(40,166,c),
(297,166,l),
(307,182,o),
(307,198,o),
(297,214,c)
);
}
);
width = 337;
}
);
unicode = 45;
},
{
glyphname = endash;
lastChange = "2024-04-11 12:56:10 +0000";
layers = (
{
layerId = "6F9C6BB4-2DCF-443B-A55D-9CE049090094";
shapes = (
{
closed = 0;
nodes = (
(33,190,l),
(490,190,l)
);
},
{
closed = 1;
nodes = (
(40,214,l),
(30,198,o),
(30,182,o),
(40,166,c),
(483,166,l),
(493,182,o),
(493,198,o),
(483,214,c)
);
}
);
width = 523;
}
);
metricLeft = hyphen;
metricRight = hyphen;
unicode = 8211;
},
{
glyphname = emdash;
lastChange = "2024-04-11 12:56:10 +0000";
layers = (
{
layerId = "6F9C6BB4-2DCF-443B-A55D-9CE049090094";
shapes = (
{
closed = 0;
nodes = (
(30,190,l),
(730,190,l)
);
},
{
closed = 1;
nodes = (
(37,214,l),
(27,198,o),
(27,182,o),
(37,166,c),
(723,166,l),
(733,182,o),
(733,198,o),
(723,214,c)
);
}
);
width = 760;
}
);
unicode = 8212;
},
{
glyphname = underscore;
lastChange = "2024-04-11 12:56:10 +0000";
layers = (
{
layerId = "6F9C6BB4-2DCF-443B-A55D-9CE049090094";
shapes = (
{
closed = 0;
nodes = (
(40,-64,l),
(397,-64,l)
);
},
{
closed = 1;
nodes = (
(47,-41,l),
(37,-57,o),
(37,-73,o),
(47,-89,c),
(390,-89,l),
(400,-73,o),
(400,-57,o),
(390,-41,c)
);
}
);
width = 437;
}
);
unicode = 95;
},
{
glyphname = parenleft;
lastChange = "2024-04-11 12:56:10 +0000";
layers = (
{
background = {
shapes = (
{
attr = {
lineCapEnd = "1";
lineCapStart = "1";
};
closed = 0;
nodes = (
(266,700,l),
(126,471,o),
(96,206,o),
(279,0,c)
);
}
);
};
layerId = "6F9C6BB4-2DCF-443B-A55D-9CE049090094";
shapes = (
{
closed = 1;
nodes = (
(96,204,o),
(109,505,o),
(303,724,c),
(302,745,o),
(290,755,o),
(269,756,c),
(61,521,o),
(46,190,o),
(255,-46,c),
(276,-45,o),
(288,-35,o),
(289,-14,c)
);
}
);
width = 391;
}
);
unicode = 40;
},
{
glyphname = braceleft;
lastChange = "2024-04-11 12:56:10 +0000";
layers = (
{
layerId = "6F9C6BB4-2DCF-443B-A55D-9CE049090094";
shapes = (
{
closed = 1;
nodes = (
(127,2,o),
(208,140,o),
(208,266,cs),
(208,323,o),
(179,372,o),
(136,381,c),
(136,345,l),
(185,364,o),
(208,408,o),
(208,459,cs),
(208,585,o),
(127,723,o),
(271,723,c),
(281,739,o),
(281,755,o),
(271,771,c),
(68,771,o),
(162,562,o),
(162,459,cs),
(162,422,o),
(145,395,o),
(90,382,c),
(90,343,l),
(145,330,o),
(162,303,o),
(162,266,cs),
(162,163,o),
(68,-46,o),
(271,-46,c),
(281,-30,o),
(281,-14,o),
(271,2,c)
);
}
);
width = 372;
}
);
unicode = 123;
},
{
glyphname = bracketleft;
lastChange = "2024-04-11 12:56:10 +0000";
layers = (
{
layerId = "6F9C6BB4-2DCF-443B-A55D-9CE049090094";
shapes = (
{
closed = 1;
nodes = (
(145,8,l),
(190,-37,l),
(190,745,l),
(145,700,l),
(305,700,l),
(315,716,o),
(315,732,o),
(305,748,c),
(99,748,l),
(144,793,l),
(144,-85,l),
(99,-40,l),
(305,-40,l),
(315,-24,o),
(315,-8,o),
(305,8,c)
);
}
);
width = 472;
}
);
unicode = 91;
},
{
glyphname = guilsinglleft;
lastChange = "2024-04-11 12:56:10 +0000";
layers = (
{
layerId = "6F9C6BB4-2DCF-443B-A55D-9CE049090094";
shapes = (
{
closed = 1;
nodes = (
(61,209,l),
(61,151,l),
(292,341,l),
(292,364,o),
(282,376,o),
(262,379,c),
(-13,151,l),
(-13,209,l),
(262,-19,l),
(282,-16,o),
(292,-4,o),
(292,19,c)
);
}
);
width = 340;
}
);
unicode = 8249;
},
{
glyphname = quotesingle;
lastChange = "2024-04-11 12:56:10 +0000";
layers = (
{
background = {
shapes = (
{
closed = 0;
nodes = (
(109,399,l),
(138,480,o),
(150,541,o),
(150,576,cs),
(150,600,o),
(137,630,o),
(94,630,c)
);
}
);
};
layerId = "6F9C6BB4-2DCF-443B-A55D-9CE049090094";
shapes = (
{
pos = (28,594);
ref = comma;
}
);
width = 367;
}
);
unicode = 39;
},
{
glyphname = baht;
lastChange = "2024-04-11 12:56:10 +0000";
layers = (
{
layerId = "6F9C6BB4-2DCF-443B-A55D-9CE049090094";
shapes = (
{
attr = {
lineCapEnd = "1";
lineCapStart = "1";
};
closed = 0;
nodes = (
(293,800,l),
(263,-100,l)
);
}
);
width = 546;
}
);
unicode = 3647;
},
{
glyphname = at;
lastChange = "2024-04-11 12:56:10 +0000";
layers = (
{
anchors = (
{
name = bottom;
pos = (962,0);
},
{
name = center;
pos = (962,350);
},
{
name = ogonek;
pos = (1257,10);
},
{
name = top;
pos = (962,650);
},
{
name = topleft;
pos = (612,700);
},
{
name = topright;
pos = (1311,700);
}
);
background = {
shapes = (
{
attr = {
identifier = ID0x7fa77d345e60;
lineCapEnd = 1;
lineCapStart = 1;
};
closed = 0;
nodes = (
(389,555,l),
(598,555,o),
(715,413,o),
(720,232,c),
(624,-5,l),
(558,-5,o),
(504,37,o),
(504,150,c)
);
},
{
attr = {
identifier = ID0x7fa77d345e60;
lineCapEnd = 1;
lineCapStart = 1;
};
closed = 0;
nodes = (
(330,-183,l),
(121,-183,o),
(4,-41,o),
(-1,140,cs),
(-6,339,o),
(133,555,o),
(389,555,c)
);
}
);
};
layerId = "6F9C6BB4-2DCF-443B-A55D-9CE049090094";
shapes = (
{
pos = (263,0);
ref = _a.base;
},
{
closed = 1;
nodes = (
(538,-103,o),
(803,-83,o),
(803,232,cs),
(803,425,o),
(671,579,o),
(449,579,cs),
(178,579,o),
(31,349,o),
(36,139,cs),
(41,-53,o),
(167,-207,o),
(390,-207,cs),
(452,-207,o),
(508,-195,o),
(556,-173,cs),
(564,-169,o),
(570,-161,o),
(570,-152,cs),
(570,-138,o),
(559,-128,o),
(546,-128,cs),
(542,-128,o),
(539,-129,o),
(536,-130,cs),
(495,-148,o),
(446,-159,o),
(390,-159,cs),
(195,-159,o),
(87,-29,o),
(82,141,cs),
(77,329,o),
(208,531,o),
(449,531,cs),
(645,531,o),
(757,401,o),
(757,232,cs),
(757,-33,o),
(557,-44,o),
(557,171,c),
(522,128,l)
);
}
);
width = 837;
}
);
unicode = 64;
},
{
glyphname = ampersand;
lastChange = "2024-04-11 12:56:10 +0000";
layers = (
{
anchors = (
{
name = bottom;
pos = (522,0);
},
{
name = center;
pos = (64,180);
},
{
name = ogonek;
pos = (-103,10);
},
{
name = top;
pos = (522,700);
},
{
name = topright;
pos = (187,710);
}
);
background = {
shapes = (
{
attr = {
identifier = ID0x7fa77d1a5b30;
lineCapEnd = 1;
lineCapStart = 1;
};
closed = 0;
nodes = (
(116,679,l),
(57,693,o),
(6,700,o),
(-39,700,cs),
(-222,700,o),
(-298,583,o),
(-298,326,cs),
(-298,138,o),
(-224,0,o),
(-86,0,cs),
(-26,0,o),
(44,25,o),
(127,82,cs)
);
}
);
};
hints = (
{
horizontal = 1;
settings = {
deltaV = {
"{100, 100, 0, 0, 0, 0}" = {
"62" = 0;
};
};
};
type = TTDelta;
},
{
horizontal = 1;
settings = {
deltaV = {
"{100, 100, 0, 0, 0, 0}" = {
"62" = 0;
};
};
};
type = TTDelta;
},
{
horizontal = 1;
settings = {
deltaV = {
"{100, 100, 0, 0, 0, 0}" = {
"62" = 0;
};
};
};
type = TTDelta;
},
{
horizontal = 1;
settings = {
deltaV = {
"{100, 100, 0, 0, 0, 0}" = {
"62" = 0;
};
};
};
type = TTDelta;
},
{
horizontal = 1;
settings = {
deltaV = {
"{100, 100, 0, 0, 0, 0}" = {
"62" = 0;
};
};
};
type = TTDelta;
},
{
horizontal = 1;
settings = {
deltaV = {
"{100, 100, 0, 0, 0, 0}" = {
"62" = 0;
};
};
};
type = TTDelta;
},
{
horizontal = 1;
settings = {
deltaV = {
"{100, 100, 0, 0, 0, 0}" = {
"62" = 0;
};
};
};
type = TTDelta;
},
{
horizontal = 1;
settings = {
deltaV = {
"{100, 100, 0, 0, 0, 0}" = {
"62" = 0;
};
};
};
type = TTDelta;
},
{
horizontal = 1;
settings = {
deltaV = {
"{100, 100, 0, 0, 0, 0}" = {
"62" = 0;
};
};
};
type = TTDelta;
},
{
horizontal = 1;
settings = {
deltaV = {
"{100, 100, 0, 0, 0, 0}" = {
"62" = 0;
};
};
};
type = TTDelta;
},
{
horizontal = 1;
settings = {
deltaV = {
"{100, 100, 0, 0, 0, 0}" = {
"62" = 0;
};
};
};
type = TTDelta;
},
{
horizontal = 1;
settings = {
deltaV = {
"{100, 100, 0, 0, 0, 0}" = {
"62" = 0;
};
};
};
type = TTDelta;
},
{
horizontal = 1;
settings = {
deltaV = {
"{100, 100, 0, 0, 0, 0}" = {
"62" = 0;
};
};
};
type = TTDelta;
}
);
layerId = "6F9C6BB4-2DCF-443B-A55D-9CE049090094";
shapes = (
{
closed = 0;
nodes = (
(374,323,l),
(368,120,o),
(338,-5,o),
(188,-5,cs),
(83,-5,o),
(-8,59,o),
(-8,215,cs),
(-8,344,o),
(73,404,o),
(130,404,cs),
(245,404,o),
(203,198,o),
(-8,208,c),
(226,208,o),
(366,237,o),
(520,301,c)
);
},
{
closed = 0;
nodes = (
(374,481,l),
(374,387,ls),
(374,65,o),
(400,-5,o),
(520,-5,cs),
(592,-5,o),
(635,41,o),
(643,93,c)
);
}
);
width = 616;
}
);
metricLeft = e;
metricRight = t;
unicode = 38;
},
{
glyphname = paragraph;
lastChange = "2024-04-11 12:56:10 +0000";
layers = (
{
anchors = (
{
name = bottom;
pos = (444,0);
},
{
name = center;
pos = (444,180);
},
{
name = top;
pos = (444,360);
},
{
name = topright;
pos = (567,710);
}
);
background = {
shapes = (
{
attr = {
identifier = ID0x7feca72af860;
lineCapEnd = 1;
lineCapStart = 1;
};
closed = 0;
nodes = (
(389,345,l),
(360,358,o),
(323,364,o),
(297,364,cs),
(191,364,o),
(100,311,o),
(100,180,cs),
(100,42,o),
(207,-5,o),
(290,-5,cs),
(450,-5,o),
(480,157,o),
(486,360,c)
);
},
{
closed = 0;
nodes = (
(434,-165,l),
(454,-65,o),
(486,95,o),
(486,377,cs),
(486,609,l)
);
},
{
closed = 0;
nodes = (
(297,-195,l),
(324,-95,o),
(367,65,o),
(387,347,cs),
(403,579,l)
);
}
);
};
layerId = "6F9C6BB4-2DCF-443B-A55D-9CE049090094";
shapes = (
{
attr = {
identifier = ID0x7feca72af860;
lineCapEnd = 1;
lineCapStart = 1;
};
closed = 0;
nodes = (
(343,359,l),
(326,362,o),
(310,364,o),
(297,364,cs),
(191,364,o),
(100,311,o),
(100,180,cs),
(100,42,o),
(207,-5,o),
(290,-5,cs),
(709,-5,o),
(608,1026,o),
(529,587,cs),
(477,299,o),
(457,-71,o),
(486,-299,c)
);
},
{
closed = 0;
nodes = (
(362,-195,l),
(409,64,o),
(434,322,o),
(421,571,c)
);
}
);
width = 581;
}
);
unicode = 182;
},
{
glyphname = section;
lastChange = "2024-04-11 12:56:10 +0000";
layers = (
{
background = {
shapes = (
{
pos = (30,0);
ref = S;
},
{
pos = (30,-170);
ref = S;
}
);
};
hints = (
{
horizontal = 1;
origin = (0,0);
settings = {
deltaV = {
"{100, 100, 0, 0, 0, 0}" = {
"62" = 0;
};
};
};
type = TTDelta;
},
{
horizontal = 1;
origin = (0,0);
settings = {
deltaV = {
"{100, 100, 0, 0, 0, 0}" = {
"62" = 0;
};
};
};
type = TTDelta;
},
{
horizontal = 1;
origin = (0,0);
settings = {
deltaV = {
"{100, 100, 0, 0, 0, 0}" = {
"62" = 0;
};
};
};
type = TTDelta;
},
{
horizontal = 1;
origin = (0,3);
settings = {
deltaV = {
"{100, 100, 0, 0, 0, 0}" = {
"62" = 0;
};
};
};
type = TTDelta;
},
{
horizontal = 1;
origin = (1,0);
settings = {
deltaV = {
"{100, 100, 0, 0, 0, 0}" = {
"62" = 0;
};
};
};
type = TTDelta;
},
{
horizontal = 1;
origin = (1,0);
settings = {
deltaV = {
"{100, 100, 0, 0, 0, 0}" = {
"62" = 0;
};
};
};
type = TTDelta;
},
{
horizontal = 1;
origin = (1,0);
settings = {
deltaV = {
"{100, 100, 0, 0, 0, 0}" = {
"62" = 0;
};
};
};
type = TTDelta;
},
{
horizontal = 1;
origin = (1,0);
settings = {
deltaV = {
"{100, 100, 0, 0, 0, 0}" = {
"62" = 0;
};
};
};
type = TTDelta;
},
{
horizontal = 1;
origin = (1,0);
settings = {
deltaV = {
"{100, 100, 0, 0, 0, 0}" = {
"62" = 0;
};
};
};
type = TTDelta;
},
{
horizontal = 1;
origin = (1,0);
settings = {
deltaV = {
"{100, 100, 0, 0, 0, 0}" = {
"62" = 0;
};
};
};
type = TTDelta;
},
{
horizontal = 1;
origin = (1,0);
settings = {
deltaV = {
"{100, 100, 0, 0, 0, 0}" = {
"62" = 0;
};
};
};
type = TTDelta;
},
{
horizontal = 1;
origin = (1,0);
settings = {
deltaV = {
"{100, 100, 0, 0, 0, 0}" = {
"62" = 0;
};
};
};
type = TTDelta;
},
{
horizontal = 1;
origin = (1,0);
settings = {
deltaV = {
"{100, 100, 0, 0, 0, 0}" = {
"62" = 0;
};
};
};
type = TTDelta;
}
);
layerId = "6F9C6BB4-2DCF-443B-A55D-9CE049090094";
shapes = (
{
attr = {
identifier = ID0x7fa77dec6560;
lineCapEnd = 1;
lineCapStart = 1;
};
closed = 0;
nodes = (
(418,59,l),
(466,92,o),
(490,133,o),
(490,207,cs),
(490,338,o),
(397,364,o),
(306,389,cs),
(217,413,o),
(130,437,o),
(130,556,cs),
(130,669,o),
(284,746,o),
(430,664,cs)
);
},
{
attr = {
identifier = ID0x7fa77dec6560;
lineCapEnd = "1";
lineCapStart = "1";
};
closed = 0;
nodes = (
(163,462,ls),
(106,436,o),
(62,379,o),
(62,311,cs),
(62,193,o),
(154,174,o),
(250,149,cs),
(397,111,o),
(442,51,o),
(442,-12,cs),
(442,-93,o),
(377,-170,o),
(241,-170,cs),
(146,-170,o),
(60,-134,o),
(60,-39,cs),
(60,-6,o),
(73,27,o),
(99,51,c)
);
}
);
width = 503;
}
);
unicode = 167;
},
{
glyphname = copyright;
lastChange = "2024-04-11 12:56:10 +0000";
layers = (
{
anchors = (
{
name = bottom;
pos = (284,0);
},
{
name = top;
pos = (284,700);
}
);
background = {
shapes = (
{
attr = {
identifier = ID0x7fa780fa43a0;
lineCapEnd = 1;
lineCapStart = 1;
};
closed = 0;
nodes = (
(473,527,l),
(436,535,o),
(404,538,o),
(375,538,cs),
(261,538,o),
(213,475,o),
(213,337,cs),
(213,236,o),
(260,162,o),
(346,162,cs),
(384,162,o),
(428,176,o),
(480,206,cs)
);
},
{
closed = 0;
nodes = (
(370,0,l),
(563,0,o),
(720,157,o),
(720,350,cs),
(720,543,o),
(563,700,o),
(370,700,cs),
(177,700,o),
(20,543,o),
(20,350,cs),
(20,157,o),
(177,0,o),
(370,0,c)
);
}
);
};
layerId = "6F9C6BB4-2DCF-443B-A55D-9CE049090094";
shapes = (
{
attr = {
identifier = ID0x7fa780fa43a0;
lineCapEnd = 1;
lineCapStart = 1;
};
closed = 0;
nodes = (
(473,527,l),
(436,535,o),
(404,538,o),
(375,538,cs),
(261,538,o),
(213,475,o),
(213,337,cs),
(213,236,o),
(260,162,o),
(346,162,cs),
(384,162,o),
(428,176,o),
(480,206,cs)
);
},
{
closed = 0;
nodes = (
(364,0,l),
(557,0,o),
(717,157,o),
(720,350,cs),
(723,543,o),
(569,700,o),
(376,700,cs),
(183,700,o),
(23,543,o),
(20,350,cs),
(17,157,o),
(171,0,o),
(364,0,c)
);
}
);
width = 740;
}
);
unicode = 169;
},
{
glyphname = registered;
lastChange = "2024-04-11 12:56:10 +0000";
layers = (
{
layerId = "6F9C6BB4-2DCF-443B-A55D-9CE049090094";
shapes = (
{
attr = {
identifier = ID0x7fa77d0908b0;
lineCapEnd = 1;
lineCapStart = 1;
};
closed = 0;
nodes = (
(178,349,l),
(186,603,l),
(269,603,ls),
(318,603,o),
(351,589,o),
(351,555,cs),
(351,504,o),
(295,472,o),
(184,472,c)
);
},
{
attr = {
identifier = ID0x7fa77d0908b0;
lineCapEnd = 1;
lineCapStart = 1;
};
closed = 0;
nodes = (
(243,476,l),
(360,349,l)
);
},
{
closed = 0;
nodes = (
(252,249,l),
(376,249,o),
(479,350,o),
(481,474,cs),
(483,599,o),
(384,700,o),
(259,700,cs),
(135,700,o),
(32,599,o),
(30,474,cs),
(28,350,o),
(127,249,o),
(252,249,c)
);
}
);
width = 511;
}
);
unicode = 174;
},
{
glyphname = trademark;
lastChange = "2024-04-11 12:56:10 +0000";
layers = (
{
layerId = "6F9C6BB4-2DCF-443B-A55D-9CE049090094";
shapes = (
{
attr = {
identifier = ID0x7fc9e2faeca0;
lineCapEnd = 1;
lineCapStart = 1;
};
closed = 0;
nodes = (
(150,701,l),
(144,350,l)
);
},
{
attr = {
identifier = ID0x7fc9e2faeca0;
lineCapEnd = 1;
lineCapStart = 1;
};
closed = 0;
nodes = (
(-1,701,l),
(290,701,l)
);
},
{
attr = {
identifier = ID0x7fc9e2faedc0;
lineCapEnd = 1;
lineCapStart = 1;
};
closed = 0;
nodes = (
(361,350,l),
(387,700,l),
(388,700,l),
(551,391,l),
(551,391,l),
(725,700,l),
(725,700,l),
(742,350,l)
);
}
);
width = 831;
}
);
unicode = 8482;
},
{
glyphname = degree;
lastChange = "2024-04-11 12:56:10 +0000";
layers = (
{
layerId = "6F9C6BB4-2DCF-443B-A55D-9CE049090094";
shapes = (
{
closed = 0;
nodes = (
(168,700,l),
(89,700,o),
(50,639,o),
(50,567,cs),
(50,492,o),
(89,433,o),
(168,433,cs),
(247,433,o),
(286,492,o),
(286,567,cs),
(286,639,o),
(247,700,o),
(168,700,c)
);
}
);
userData = {
assembly = "NPUSHB[ ]	/* 17 values pushed */
1 29 29 64 30 17 6 0 25 17 9 3 12 21 1 25 70 
SROUND[ ]	/* SuperRound */
MDAP[1]	/* MoveDirectAbsPt */
SHZ[1]	/* ShiftZoneByLastPoint */
RTG[ ]	/* RoundToGrid */
SVTCA[0]	/* SetFreedomAndProjectionVectorToAxis */
MDAP[1]	/* MoveDirectAbsPt */
MDAP[1]	/* MoveDirectAbsPt */
SVTCA[1]	/* SetFreedomAndProjectionVectorToAxis */
MDAP[0]	/* MoveDirectAbsPt */
MDAP[0]	/* MoveDirectAbsPt */
MDAP[0]	/* MoveDirectAbsPt */
MDAP[0]	/* MoveDirectAbsPt */
SVTCA[0]	/* SetFreedomAndProjectionVectorToAxis */
MDAP[0]	/* MoveDirectAbsPt */
MDAP[0]	/* MoveDirectAbsPt */
IUP[1]	/* InterpolateUntPts */
IUP[0]	/* InterpolateUntPts */
SVTCA[1]	/* SetFreedomAndProjectionVectorToAxis */
MD[0]	/* MeasureDistance */
ROUND[00]	/* Round */
PUSHW[ ]	/* 2 values pushed */
25 29 
MD[0]	/* MeasureDistance */
ROUND[00]	/* Round */
SUB[ ]	/* Subtract */
PUSHB[ ]	/* 1 value pushed */
64 
GT[ ]	/* GreaterThan */
IF[ ]	/* If */
SHPIX[ ]	/* ShiftZoneByPixel */
SRP1[ ]	/* SetRefPoint1 */
SHZ[1]	/* ShiftZoneByLastPoint */
PUSHW[ ]	/* 2 values pushed */
29 -64 
SHPIX[ ]	/* ShiftZoneByPixel */
EIF[ ]	/* EndIf */";
};
width = 336;
}
);
note = degree;
unicode = 176;
},
{
glyphname = bar;
lastChange = "2024-04-11 12:56:10 +0000";
layers = (
{
layerId = "6F9C6BB4-2DCF-443B-A55D-9CE049090094";
shapes = (
{
attr = {
lineCapEnd = "1";
lineCapStart = "1";
};
closed = 0;
nodes = (
(213,800,l),
(200,-100,l)
);
}
);
width = 413;
}
);
unicode = 124;
},
{
glyphname = brokenbar;
lastChange = "2024-04-11 12:56:10 +0000";
layers = (
{
background = {
shapes = (
{
ref = bar;
}
);
};
guides = (
{
pos = (150,449);
},
{
pos = (150,249);
}
);
layerId = "6F9C6BB4-2DCF-443B-A55D-9CE049090094";
shapes = (
{
attr = {
identifier = ID0x7fa77dd31a40;
lineCapEnd = "1";
lineCapStart = "1";
};
closed = 0;
nodes = (
(213,800,l),
(208,449,l)
);
},
{
attr = {
identifier = ID0x7fa77dd31a40;
lineCapEnd = "1";
lineCapStart = "1";
};
closed = 0;
nodes = (
(205,249,l),
(200,-100,l)
);
}
);
width = 413;
}
);
metricLeft = bar;
metricRight = bar;
unicode = 166;
},
{
glyphname = dagger;
lastChange = "2024-04-11 12:56:10 +0000";
layers = (
{
layerId = "6F9C6BB4-2DCF-443B-A55D-9CE049090094";
shapes = (
{
closed = 0;
nodes = (
(247,710,l),
(237,249,l)
);
},
{
attr = {
lineCapEnd = "1";
lineCapStart = "1";
};
closed = 0;
nodes = (
(48,528,l),
(435,528,l)
);
}
);
width = 482;
}
);
metricLeft = asterisk;
metricRight = asterisk;
unicode = 8224;
},
{
glyphname = daggerdbl;
lastChange = "2024-04-11 12:56:10 +0000";
layers = (
{
layerId = "6F9C6BB4-2DCF-443B-A55D-9CE049090094";
shapes = (
{
closed = 0;
nodes = (
(254,710,l),
(244,249,l)
);
},
{
attr = {
identifier = ID0x7fa77ceed000;
lineCapEnd = "1";
lineCapStart = "1";
};
closed = 0;
nodes = (
(55,558,l),
(442,558,l)
);
},
{
attr = {
identifier = ID0x7fa77ceed000;
lineCapEnd = "1";
lineCapStart = "1";
};
closed = 0;
nodes = (
(55,398,l),
(442,398,l)
);
}
);
width = 496;
}
);
unicode = 8225;
},
{
glyphname = ampersand.alt;
lastChange = "2024-04-11 14:30:14 +0000";
layers = (
{
anchors = (
{
name = bottom;
pos = (820,0);
},
{
name = center;
pos = (362,180);
},
{
name = top;
pos = (820,700);
},
{
name = topright;
pos = (485,710);
}
);
background = {
shapes = (
{
attr = {
identifier = ID0x7fa77d1a5b30;
lineCapEnd = 1;
lineCapStart = 1;
};
closed = 0;
nodes = (
(414,679,l),
(355,693,o),
(304,700,o),
(259,700,cs),
(76,700,o),
(0,583,o),
(0,326,cs),
(0,138,o),
(74,0,o),
(212,0,cs),
(272,0,o),
(342,25,o),
(425,82,cs)
);
}
);
};
hints = (
{
horizontal = 1;
settings = {
deltaV = {
"{100, 100, 0, 0, 0, 0}" = {
"62" = 0;
};
};
};
type = TTDelta;
},
{
horizontal = 1;
settings = {
deltaV = {
"{100, 100, 0, 0, 0, 0}" = {
"62" = 0;
};
};
};
type = TTDelta;
},
{
horizontal = 1;
settings = {
deltaV = {
"{100, 100, 0, 0, 0, 0}" = {
"62" = 0;
};
};
};
type = TTDelta;
},
{
horizontal = 1;
origin = (2,9);
settings = {
deltaV = {
"{100, 100, 0, 0, 0, 0}" = {
"62" = 0;
};
};
};
type = TTDelta;
},
{
horizontal = 1;
settings = {
deltaV = {
"{100, 100, 0, 0, 0, 0}" = {
"62" = 0;
};
};
};
type = TTDelta;
},
{
horizontal = 1;
settings = {
deltaV = {
"{100, 100, 0, 0, 0, 0}" = {
"62" = 0;
};
};
};
type = TTDelta;
},
{
horizontal = 1;
settings = {
deltaV = {
"{100, 100, 0, 0, 0, 0}" = {
"62" = 0;
};
};
};
type = TTDelta;
},
{
horizontal = 1;
settings = {
deltaV = {
"{100, 100, 0, 0, 0, 0}" = {
"62" = 0;
};
};
};
type = TTDelta;
},
{
horizontal = 1;
settings = {
deltaV = {
"{100, 100, 0, 0, 0, 0}" = {
"62" = 0;
};
};
};
type = TTDelta;
},
{
horizontal = 1;
settings = {
deltaV = {
"{100, 100, 0, 0, 0, 0}" = {
"62" = 0;
};
};
};
type = TTDelta;
},
{
horizontal = 1;
settings = {
deltaV = {
"{100, 100, 0, 0, 0, 0}" = {
"62" = 0;
};
};
};
type = TTDelta;
},
{
horizontal = 1;
settings = {
deltaV = {
"{100, 100, 0, 0, 0, 0}" = {
"62" = 0;
};
};
};
type = TTDelta;
},
{
horizontal = 1;
settings = {
deltaV = {
"{100, 100, 0, 0, 0, 0}" = {
"62" = 0;
};
};
};
type = TTDelta;
}
);
layerId = "6F9C6BB4-2DCF-443B-A55D-9CE049090094";
shapes = (
{
closed = 1;
nodes = (
(441,347,ls),
(441,56,o),
(472,-29,o),
(610,-29,c),
(610,19,l),
(510,19,o),
(487,73,o),
(487,347,cs),
(487,539,l),
(472,549,o),
(456,549,o),
(441,539,c)
);
},
{
attr = {
identifier = ID0x7fa77d1a5b30;
};
closed = 1;
nodes = (
(226,402,ls),
(156,402,o),
(64,432,o),
(64,528,cs),
(64,602,o),
(129,676,o),
(259,676,cs),
(302,676,o),
(351,669,o),
(409,656,c),
(422,667,o),
(426,683,o),
(419,702,c),
(359,717,o),
(306,724,o),
(259,724,cs),
(101,724,o),
(18,628,o),
(18,528,cs),
(18,394,o),
(144,354,o),
(226,354,cs),
(629,354,l),
(639,370,o),
(639,386,o),
(629,402,c)
);
},
{
attr = {
identifier = ID0x7fa77d1a5b30;
};
closed = 1;
nodes = (
(424,88,o),
(315,19,o),
(206,19,cs),
(79,19,o),
(24,91,o),
(24,169,cs),
(24,294,o),
(125,360,o),
(313,354,c),
(315,402,l),
(101,408,o),
(-22,324,o),
(-22,169,cs),
(-22,67,o),
(52,-29,o),
(206,-29,cs),
(333,-29,o),
(468,54,o),
(487,288,c),
(441,292,l)
);
},
{
pos = (610,0);
ref = _final;
}
);
width = 733;
}
);
},
{
glyphname = cent;
lastChange = "2024-04-11 12:56:10 +0000";
layers = (
{
background = {
shapes = (
{
attr = {
identifier = ID0x7fa77e051350;
lineCapEnd = "1";
lineCapStart = "1";
};
closed = 0;
nodes = (
(434,198,l),
(407,179,o),
(374,168,o),
(335,168,cs),
(237,168,o),
(182,236,o),
(180,322,cs),
(178,417,o),
(243,520,o),
(362,520,cs),
(396,520,o),
(424,512,o),
(447,498,c)
);
},
{
attr = {
lineCapEnd = "1";
lineCapStart = "1";
};
closed = 0;
nodes = (
(353,647,l),
(328,40,l)
);
}
);
};
layerId = "6F9C6BB4-2DCF-443B-A55D-9CE049090094";
shapes = (
{
attr = {
identifier = ID0x7fa77e051350;
lineCapEnd = "1";
lineCapStart = "1";
};
closed = 0;
nodes = (
(457,198,l),
(356,130,o),
(183,187,o),
(180,332,cs),
(176,501,o),
(347,559,o),
(447,498,c)
);
},
{
attr = {
lineCapEnd = "1";
lineCapStart = "1";
};
closed = 0;
nodes = (
(353,647,l),
(328,40,l)
);
}
);
width = 600;
}
);
unicode = 162;
},
{
glyphname = currency;
lastChange = "2024-04-11 12:56:10 +0000";
layers = (
{
background = {
shapes = (
{
closed = 0;
nodes = (
(324,509,l),
(227,509,o),
(149,431,o),
(149,335,cs),
(149,238,o),
(227,160,o),
(324,160,cs),
(420,160,o),
(498,238,o),
(498,335,cs),
(498,431,o),
(420,509,o),
(324,509,c)
);
},
{
attr = {
lineCapEnd = "1";
lineCapStart = "1";
};
closed = 0;
nodes = (
(107,566,l),
(540,103,l)
);
},
{
attr = {
lineCapEnd = "1";
lineCapStart = "1";
};
closed = 0;
nodes = (
(555,551,l),
(92,118,l)
);
}
);
};
layerId = "6F9C6BB4-2DCF-443B-A55D-9CE049090094";
shapes = (
{
attr = {
lineCapEnd = "1";
lineCapStart = "1";
};
closed = 0;
nodes = (
(107,566,l),
(204,463,l)
);
},
{
attr = {
lineCapEnd = "1";
lineCapStart = "1";
};
closed = 0;
nodes = (
(555,551,l),
(453,455,l)
);
},
{
attr = {
lineCapEnd = "1";
lineCapStart = "1";
};
closed = 0;
nodes = (
(441,209,l),
(540,103,l)
);
},
{
attr = {
lineCapEnd = "1";
lineCapStart = "1";
};
closed = 0;
nodes = (
(196,215,l),
(92,118,l)
);
},
{
closed = 0;
nodes = (
(324,509,l),
(227,509,o),
(149,431,o),
(149,335,cs),
(149,238,o),
(227,160,o),
(324,160,cs),
(420,160,o),
(498,238,o),
(498,335,cs),
(498,431,o),
(420,509,o),
(324,509,c)
);
}
);
width = 600;
}
);
unicode = 164;
},
{
glyphname = dollar;
lastChange = "2024-04-11 12:56:10 +0000";
layers = (
{
background = {
shapes = (
{
attr = {
identifier = ID0x7fa77cce07f0;
lineCapEnd = 1;
lineCapStart = 1;
};
closed = 0;
nodes = (
(80,71,l),
(218,9,o),
(428,32,o),
(423,208,cs),
(419,363,o),
(87,359,o),
(87,516,cs),
(87,653,o),
(287,697,o),
(400,624,cs)
);
},
{
attr = {
lineCapEnd = "1";
lineCapStart = "1";
};
closed = 0;
nodes = (
(263,800,l),
(233,-100,l)
);
}
);
};
hints = (
{
horizontal = 1;
origin = (0,1);
settings = {
deltaV = {
"{100, 100, 0, 0, 0, 0}" = {
"62" = 0;
};
};
};
type = TTDelta;
},
{
horizontal = 1;
origin = (0,1);
settings = {
deltaV = {
"{100, 100, 0, 0, 0, 0}" = {
"62" = 0;
};
};
};
type = TTDelta;
},
{
horizontal = 1;
origin = (0,1);
settings = {
deltaV = {
"{100, 100, 0, 0, 0, 0}" = {
"62" = 0;
};
};
};
type = TTDelta;
},
{
horizontal = 1;
origin = (0,1);
settings = {
deltaV = {
"{100, 100, 0, 0, 0, 0}" = {
"62" = 0;
};
};
};
type = TTDelta;
},
{
horizontal = 1;
origin = (0,0);
settings = {
deltaV = {
"{100, 100, 0, 0, 0, 0}" = {
"62" = 0;
};
};
};
type = TTDelta;
},
{
horizontal = 1;
origin = (0,0);
settings = {
deltaV = {
"{100, 100, 0, 0, 0, 0}" = {
"62" = 0;
};
};
};
type = TTDelta;
},
{
horizontal = 1;
origin = (0,0);
settings = {
deltaV = {
"{100, 100, 0, 0, 0, 0}" = {
"62" = 0;
};
};
};
type = TTDelta;
},
{
horizontal = 1;
origin = (0,0);
settings = {
deltaV = {
"{100, 100, 0, 0, 0, 0}" = {
"62" = 0;
};
};
};
type = TTDelta;
},
{
horizontal = 1;
origin = (0,0);
settings = {
deltaV = {
"{100, 100, 0, 0, 0, 0}" = {
"62" = 0;
};
};
};
type = TTDelta;
},
{
horizontal = 1;
origin = (0,0);
settings = {
deltaV = {
"{100, 100, 0, 0, 0, 0}" = {
"62" = 0;
};
};
};
type = TTDelta;
},
{
horizontal = 1;
origin = (0,0);
settings = {
deltaV = {
"{100, 100, 0, 0, 0, 0}" = {
"62" = 0;
};
};
};
type = TTDelta;
},
{
horizontal = 1;
origin = (0,0);
settings = {
deltaV = {
"{100, 100, 0, 0, 0, 0}" = {
"62" = 0;
};
};
};
type = TTDelta;
},
{
horizontal = 1;
origin = (0,0);
settings = {
deltaV = {
"{100, 100, 0, 0, 0, 0}" = {
"62" = 0;
};
};
};
type = TTDelta;
}
);
layerId = "6F9C6BB4-2DCF-443B-A55D-9CE049090094";
shapes = (
{
attr = {
lineCapEnd = "1";
lineCapStart = "1";
};
closed = 0;
nodes = (
(263,800,l),
(233,-100,l)
);
}
);
width = 503;
}
);
unicode = 36;
},
{
glyphname = euro;
lastChange = "2024-04-11 14:31:21 +0000";
layers = (
{
anchors = (
{
name = bottom;
pos = (338,0);
},
{
name = center;
pos = (338,350);
},
{
name = ogonek;
pos = (633,10);
},
{
name = top;
pos = (338,650);
},
{
name = topleft;
pos = (-12,700);
},
{
name = topright;
pos = (687,700);
}
);
background = {
shapes = (
{
ref = O;
}
);
};
layerId = "6F9C6BB4-2DCF-443B-A55D-9CE049090094";
shapes = (
{
attr = {
identifier = ID0x7fa77e051350;
};
closed = 1;
nodes = (
(517,706,o),
(468,724,o),
(409,724,c),
(409,676,l),
(458,676,o),
(497,662,o),
(530,638,c),
(549,641,o),
(559,653,o),
(558,676,c)
);
},
{
attr = {
identifier = ID0x7fa77e051350;
};
closed = 1;
nodes = (
(202,724,o),
(93,502,o),
(97,305,cs),
(100,126,o),
(195,-24,o),
(366,-24,cs),
(434,-24,o),
(492,0,o),
(539,41,c),
(539,63,o),
(529,75,o),
(509,77,c),
(470,44,o),
(422,24,o),
(366,24,cs),
(225,24,o),
(146,146,o),
(143,305,cs),
(139,486,o),
(236,676,o),
(409,676,c),
(409,724,l)
);
},
{
closed = 1;
nodes = (
(41,445,l),
(31,429,o),
(31,413,o),
(41,397,c),
(457,397,l),
(467,413,o),
(467,429,o),
(457,445,c)
);
},
{
closed = 1;
nodes = (
(21,316,l),
(11,300,o),
(11,284,o),
(21,268,c),
(437,268,l),
(447,284,o),
(447,300,o),
(437,316,c)
);
}
);
width = 675;
}
);
unicode = 8364;
},
{
glyphname = hryvnia;
lastChange = "2024-04-11 14:30:46 +0000";
layers = (
{
hints = (
{
horizontal = 1;
origin = (0,8);
settings = {
deltaV = {
"{100, 100, 0, 0, 0, 0}" = {
"62" = 0;
};
};
};
type = TTDelta;
},
{
horizontal = 1;
origin = (0,8);
settings = {
deltaV = {
"{100, 100, 0, 0, 0, 0}" = {
"62" = 0;
};
};
};
type = TTDelta;
},
{
horizontal = 1;
origin = (0,8);
settings = {
deltaV = {
"{100, 100, 0, 0, 0, 0}" = {
"62" = 0;
};
};
};
type = TTDelta;
},
{
horizontal = 1;
origin = (0,5);
settings = {
deltaV = {
"{100, 100, 0, 0, 0, 0}" = {
"62" = 0;
};
};
};
type = TTDelta;
},
{
horizontal = 1;
origin = (0,2);
settings = {
deltaV = {
"{100, 100, 0, 0, 0, 0}" = {
"62" = 0;
};
};
};
type = TTDelta;
},
{
horizontal = 1;
origin = (0,2);
settings = {
deltaV = {
"{100, 100, 0, 0, 0, 0}" = {
"62" = 0;
};
};
};
type = TTDelta;
},
{
horizontal = 1;
origin = (0,2);
settings = {
deltaV = {
"{100, 100, 0, 0, 0, 0}" = {
"62" = 0;
};
};
};
type = TTDelta;
},
{
horizontal = 1;
origin = (0,9);
settings = {
deltaV = {
"{100, 100, 0, 0, 0, 0}" = {
"62" = 0;
};
};
};
type = TTDelta;
},
{
horizontal = 1;
origin = (0,9);
settings = {
deltaV = {
"{100, 100, 0, 0, 0, 0}" = {
"62" = 0;
};
};
};
type = TTDelta;
},
{
horizontal = 1;
origin = (0,9);
settings = {
deltaV = {
"{100, 100, 0, 0, 0, 0}" = {
"62" = 0;
};
};
};
type = TTDelta;
},
{
horizontal = 1;
origin = (0,9);
settings = {
deltaV = {
"{100, 100, 0, 0, 0, 0}" = {
"62" = 0;
};
};
};
type = TTDelta;
},
{
horizontal = 1;
origin = (0,9);
settings = {
deltaV = {
"{100, 100, 0, 0, 0, 0}" = {
"62" = 0;
};
};
};
type = TTDelta;
},
{
horizontal = 1;
origin = (0,9);
settings = {
deltaV = {
"{100, 100, 0, 0, 0, 0}" = {
"62" = 0;
};
};
};
type = TTDelta;
}
);
layerId = "6F9C6BB4-2DCF-443B-A55D-9CE049090094";
shapes = (
{
attr = {
identifier = ID0x7fadb08ecf00;
lineCapEnd = 1;
lineCapStart = 1;
};
closed = 0;
nodes = (
(108,664,ls),
(223,737,o),
(412,693,o),
(410,556,cs),
(406,368,o),
(94,364,o),
(77,188,cs),
(57,-19,o),
(325,-27,o),
(417,31,c)
);
},
{
closed = 0;
nodes = (
(41,421,l),
(457,421,l)
);
},
{
closed = 0;
nodes = (
(21,292,l),
(437,292,l)
);
}
);
width = 503;
}
);
unicode = 8372;
},
{
glyphname = ruble;
lastChange = "2024-04-11 12:56:10 +0000";
layers = (
{
layerId = "6F9C6BB4-2DCF-443B-A55D-9CE049090094";
shapes = (
{
closed = 0;
nodes = (
(21,304,l),
(129,304,l)
);
},
{
closed = 0;
nodes = (
(1,135,l),
(417,135,l)
);
}
);
width = 554;
}
);
unicode = 8381;
},
{
glyphname = rupeeIndian;
lastChange = "2024-04-11 12:56:10 +0000";
layers = (
{
layerId = "6F9C6BB4-2DCF-443B-A55D-9CE049090094";
shapes = (
{
attr = {
identifier = ID0x7fada9ba0a70;
lineCapEnd = 1;
lineCapStart = 1;
};
closed = 0;
nodes = (
(307,700,l),
(407,700,o),
(475,661,o),
(475,569,cs),
(475,428,o),
(361,338,o),
(132,338,c)
);
},
{
attr = {
identifier = ID0x7fada9ba0a70;
lineCapEnd = 1;
lineCapStart = 1;
};
closed = 0;
nodes = (
(139,338,l),
(494,0,l)
);
},
{
closed = 0;
nodes = (
(60,700,l),
(608,700,l)
);
},
{
closed = 0;
nodes = (
(40,531,l),
(596,531,l)
);
}
);
width = 544;
}
);
unicode = 8377;
},
{
glyphname = sheqel;
lastChange = "2024-04-11 12:56:10 +0000";
layers = (
{
layerId = "6F9C6BB4-2DCF-443B-A55D-9CE049090094";
shapes = (
{
attr = {
lineCapEnd = "1";
lineCapStart = "1";
};
closed = 0;
nodes = (
(420,250,l),
(429,460,ls),
(433,561,o),
(372,650,o),
(273,650,cs),
(176,650,o),
(101,563,o),
(101,460,cs),
(100,50,l)
);
},
{
attr = {
lineCapEnd = "1";
lineCapStart = "1";
};
closed = 0;
nodes = (
(263,440,l),
(254,230,ls),
(250,129,o),
(311,40,o),
(410,40,cs),
(507,40,o),
(582,127,o),
(582,230,cs),
(583,640,l)
);
}
);
width = 683;
}
);
unicode = 8362;
},
{
glyphname = sterling;
lastChange = "2024-04-11 12:56:10 +0000";
layers = (
{
background = {
shapes = (
{
attr = {
identifier = ID0x7fadae460320;
lineCapEnd = 1;
lineCapStart = 1;
};
closed = 0;
nodes = (
(484,679,l),
(434,693,o),
(390,700,o),
(352,700,cs),
(197,700,o),
(132,583,o),
(132,326,c)
);
}
);
};
layerId = "6F9C6BB4-2DCF-443B-A55D-9CE049090094";
shapes = (
{
attr = {
identifier = ID0x7fadae460320;
lineCapEnd = "1";
lineCapStart = "1";
};
closed = 0;
nodes = (
(484,679,l),
(434,693,o),
(390,700,o),
(352,700,cs),
(197,700,o),
(112,571,o),
(172,326,cs),
(220,130,o),
(109,0,o),
(12,0,c),
(493,0,l)
);
},
{
closed = 0;
nodes = (
(21,337,l),
(437,337,l)
);
}
);
width = 555;
}
);
unicode = 163;
},
{
glyphname = won;
lastChange = "2024-04-11 12:56:10 +0000";
layers = (
{
layerId = "6F9C6BB4-2DCF-443B-A55D-9CE049090094";
shapes = (
{
closed = 0;
nodes = (
(41,361,l),
(957,361,l)
);
},
{
closed = 0;
nodes = (
(21,192,l),
(937,192,l)
);
}
);
width = 1011;
}
);
unicode = 8361;
},
{
glyphname = yen;
lastChange = "2024-04-11 12:56:10 +0000";
layers = (
{
layerId = "6F9C6BB4-2DCF-443B-A55D-9CE049090094";
shapes = (
{
closed = 0;
nodes = (
(26,361,l),
(482,361,l)
);
},
{
closed = 0;
nodes = (
(16,192,l),
(472,192,l)
);
}
);
width = 546;
}
);
unicode = 165;
},
{
glyphname = minus;
lastChange = "2024-04-11 12:56:10 +0000";
layers = (
{
layerId = "6F9C6BB4-2DCF-443B-A55D-9CE049090094";
shapes = (
{
closed = 0;
nodes = (
(140,250,l),
(570,250,l)
);
}
);
width = 710;
}
);
unicode = 8722;
},
{
glyphname = notequal;
lastChange = "2024-04-11 12:56:10 +0000";
layers = (
{
layerId = "6F9C6BB4-2DCF-443B-A55D-9CE049090094";
shapes = (
{
ref = equal;
},
{
attr = {
identifier = ID0x7fadae6cd790;
lineCapEnd = "1";
lineCapStart = "1";
};
closed = 0;
nodes = (
(445,512,l),
(250,0,l)
);
}
);
width = 710;
}
);
unicode = 8800;
},
{
glyphname = greater;
lastChange = "2024-04-11 12:56:10 +0000";
layers = (
{
layerId = "6F9C6BB4-2DCF-443B-A55D-9CE049090094";
shapes = (
{
closed = 0;
nodes = (
(140,480,l),
(570,250,l),
(140,20,l)
);
}
);
width = 710;
}
);
unicode = 62;
},
{
glyphname = approxequal;
lastChange = "2024-04-11 12:56:10 +0000";
layers = (
{
anchors = (
{
name = top;
pos = (356.15,425.77);
}
);
background = {
shapes = (
{
closed = 0;
nodes = (
(140,350,l),
(570,350,l)
);
},
{
closed = 0;
nodes = (
(140,150,l),
(570,150,l)
);
}
);
};
layerId = "6F9C6BB4-2DCF-443B-A55D-9CE049090094";
shapes = (
{
pos = (0,-75);
ref = asciitilde;
},
{
pos = (0,125);
ref = asciitilde;
}
);
width = 710;
}
);
unicode = 8776;
},
{
glyphname = asciitilde;
lastChange = "2024-04-11 12:56:10 +0000";
layers = (
{
layerId = "6F9C6BB4-2DCF-443B-A55D-9CE049090094";
shapes = (
{
attr = {
identifier = ID0x7fadb1868510;
lineCapEnd = "1";
lineCapStart = "1";
};
closed = 0;
nodes = (
(136,209,l),
(167,263,o),
(182,296,o),
(242,296,cs),
(280,296,o),
(317,271,o),
(355,246,cs),
(393,221,o),
(430,196,o),
(468,196,cs),
(528,196,o),
(543,229,o),
(574,283,c)
);
}
);
width = 710;
}
);
unicode = 126;
},
{
glyphname = logicalnot;
lastChange = "2024-04-11 12:56:10 +0000";
layers = (
{
layerId = "6F9C6BB4-2DCF-443B-A55D-9CE049090094";
shapes = (
{
closed = 0;
nodes = (
(570,150,l),
(570,350,l),
(140,350,l)
);
}
);
width = 710;
}
);
unicode = 172;
},
{
glyphname = infinity;
lastChange = "2024-04-11 12:56:10 +0000";
layers = (
{
hints = (
{
horizontal = 1;
place = (637,0);
settings = {
deltaV = {
"{100, 100, 0, 0, 0, 0}" = {
"62" = 0;
};
};
};
type = TTDelta;
},
{
horizontal = 1;
place = (637,0);
settings = {
deltaV = {
"{100, 100, 0, 0, 0, 0}" = {
"62" = 0;
};
};
};
type = TTDelta;
},
{
horizontal = 1;
place = (637,0);
settings = {
deltaV = {
"{100, 100, 0, 0, 0, 0}" = {
"62" = 0;
};
};
};
type = TTDelta;
},
{
horizontal = 1;
place = (637,0);
settings = {
deltaV = {
"{100, 100, 0, 0, 0, 0}" = {
"62" = 0;
};
};
};
type = TTDelta;
},
{
horizontal = 1;
place = (637,0);
settings = {
deltaV = {
"{100, 100, 0, 0, 0, 0}" = {
"62" = 0;
};
};
};
type = TTDelta;
},
{
horizontal = 1;
place = (637,0);
settings = {
deltaV = {
"{100, 100, 0, 0, 0, 0}" = {
"62" = 0;
};
};
};
type = TTDelta;
},
{
horizontal = 1;
place = (637,0);
settings = {
deltaV = {
"{100, 100, 0, 0, 0, 0}" = {
"62" = 0;
};
};
};
type = TTDelta;
},
{
horizontal = 1;
place = (637,0);
settings = {
deltaV = {
"{100, 100, 0, 0, 0, 0}" = {
"62" = 0;
};
};
};
type = TTDelta;
},
{
horizontal = 1;
place = (637,0);
settings = {
deltaV = {
"{100, 100, 0, 0, 0, 0}" = {
"62" = 0;
};
};
};
type = TTDelta;
},
{
horizontal = 1;
place = (637,0);
settings = {
deltaV = {
"{100, 100, 0, 0, 0, 0}" = {
"62" = 0;
};
};
};
type = TTDelta;
},
{
horizontal = 1;
place = (637,0);
settings = {
deltaV = {
"{100, 100, 0, 0, 0, 0}" = {
"62" = 0;
};
};
};
type = TTDelta;
},
{
horizontal = 1;
place = (637,0);
settings = {
deltaV = {
"{100, 100, 0, 0, 0, 0}" = {
"62" = 0;
};
};
};
type = TTDelta;
},
{
horizontal = 1;
place = (637,0);
settings = {
deltaV = {
"{100, 100, 0, 0, 0, 0}" = {
"62" = 0;
};
};
};
type = TTDelta;
}
);
layerId = "6F9C6BB4-2DCF-443B-A55D-9CE049090094";
shapes = (
{
attr = {
identifier = ID0x7fadab42b840;
lineCapEnd = "1";
lineCapStart = "1";
};
closed = 0;
nodes = (
(370,380,ls),
(325,495,o),
(246,544,o),
(173,544,cs),
(82,544,o),
(0,469,o),
(0,351,cs),
(0,235,o),
(85,155,o),
(176,155,cs),
(243,155,o),
(314,199,o),
(355,304,cs),
(391,396,ls),
(433,501,o),
(503,545,o),
(570,545,cs),
(661,545,o),
(746,465,o),
(746,349,cs),
(746,231,o),
(664,156,o),
(573,156,cs),
(500,156,o),
(421,205,o),
(376,320,cs)
);
}
);
width = 746;
}
);
unicode = 8734;
},
{
glyphname = integral;
lastChange = "2024-04-11 12:56:10 +0000";
layers = (
{
layerId = "6F9C6BB4-2DCF-443B-A55D-9CE049090094";
shapes = (
{
attr = {
identifier = ID0x7fea05ea0240;
lineCapEnd = "1";
lineCapStart = "1";
};
closed = 0;
nodes = (
(470,836,l),
(377,836,o),
(332,796,o),
(316,700,cs),
(205,0,ls),
(189,-96,o),
(144,-136,o),
(51,-136,c)
);
}
);
width = 600;
}
);
unicode = 8747;
},
{
glyphname = product;
lastChange = "2024-04-11 12:56:10 +0000";
layers = (
{
layerId = "6F9C6BB4-2DCF-443B-A55D-9CE049090094";
shapes = (
{
attr = {
identifier = ID0x7fadae527ce0;
lineCapEnd = 1;
lineCapStart = 1;
};
closed = 0;
nodes = (
(53,700,l),
(613,700,l)
);
},
{
attr = {
identifier = ID0x7fadae527ce0;
lineCapEnd = 1;
lineCapStart = 1;
};
closed = 0;
nodes = (
(183,700,l),
(170,0,l)
);
},
{
attr = {
identifier = ID0x7fadae527ce0;
lineCapEnd = 1;
lineCapStart = 1;
};
closed = 0;
nodes = (
(483,700,l),
(470,0,l)
);
}
);
width = 653;
}
);
unicode = 8719;
},
{
glyphname = summation;
lastChange = "2024-04-11 12:56:10 +0000";
layers = (
{
layerId = "6F9C6BB4-2DCF-443B-A55D-9CE049090094";
shapes = (
{
attr = {
identifier = ID0x7fadae527ce0;
lineCapEnd = "1";
lineCapStart = "1";
};
closed = 0;
nodes = (
(513,700,l),
(113,700,l),
(338,363,l),
(93,0,l),
(513,0,l)
);
}
);
width = 600;
}
);
unicode = 8721;
},
{
glyphname = radical;
lastChange = "2024-04-11 12:56:10 +0000";
layers = (
{
layerId = "6F9C6BB4-2DCF-443B-A55D-9CE049090094";
shapes = (
{
closed = 0;
nodes = (
(24,360,l),
(204,-70,l),
(528,753,l),
(888,753,l)
);
}
);
width = 710;
}
);
unicode = 8730;
},
{
glyphname = percent;
lastChange = "2024-04-11 12:56:10 +0000";
layers = (
{
guides = (
{
angle = 90;
pos = (147,-530);
},
{
angle = 90;
pos = (647,-530);
}
);
layerId = "6F9C6BB4-2DCF-443B-A55D-9CE049090094";
shapes = (
{
attr = {
identifier = ID0x7fb89da4fcf0;
lineCapEnd = "1";
lineCapStart = "1";
};
closed = 0;
nodes = (
(644,700,l),
(147,0,l)
);
},
{
ref = degree;
},
{
pos = (462,-440);
ref = degree;
}
);
userData = {
assembly = "NPUSHB[ ]	/* 29 values pushed */
1 56 56 64 57 47 50 44 36 28 22 16 10 4 53 47 40 32 25 19 13 7 3 1 0 2 1 40 70 
SROUND[ ]	/* SuperRound */
MDAP[1]	/* MoveDirectAbsPt */
SHZ[1]	/* ShiftZoneByLastPoint */
RTG[ ]	/* RoundToGrid */
SVTCA[0]	/* SetFreedomAndProjectionVectorToAxis */
MDAP[1]	/* MoveDirectAbsPt */
MDAP[1]	/* MoveDirectAbsPt */
SVTCA[1]	/* SetFreedomAndProjectionVectorToAxis */
MDAP[0]	/* MoveDirectAbsPt */
MDAP[0]	/* MoveDirectAbsPt */
MDAP[0]	/* MoveDirectAbsPt */
MDAP[0]	/* MoveDirectAbsPt */
MDAP[0]	/* MoveDirectAbsPt */
MDAP[0]	/* MoveDirectAbsPt */
MDAP[0]	/* MoveDirectAbsPt */
MDAP[0]	/* MoveDirectAbsPt */
MDAP[0]	/* MoveDirectAbsPt */
MDAP[0]	/* MoveDirectAbsPt */
SVTCA[0]	/* SetFreedomAndProjectionVectorToAxis */
MDAP[0]	/* MoveDirectAbsPt */
MDAP[0]	/* MoveDirectAbsPt */
MDAP[0]	/* MoveDirectAbsPt */
MDAP[0]	/* MoveDirectAbsPt */
MDAP[0]	/* MoveDirectAbsPt */
MDAP[0]	/* MoveDirectAbsPt */
MDAP[0]	/* MoveDirectAbsPt */
MDAP[0]	/* MoveDirectAbsPt */
IUP[1]	/* InterpolateUntPts */
IUP[0]	/* InterpolateUntPts */
SVTCA[1]	/* SetFreedomAndProjectionVectorToAxis */
MD[0]	/* MeasureDistance */
ROUND[00]	/* Round */
PUSHW[ ]	/* 2 values pushed */
40 56 
MD[0]	/* MeasureDistance */
ROUND[00]	/* Round */
SUB[ ]	/* Subtract */
PUSHB[ ]	/* 1 value pushed */
64 
GT[ ]	/* GreaterThan */
IF[ ]	/* If */
SHPIX[ ]	/* ShiftZoneByPixel */
SRP1[ ]	/* SetRefPoint1 */
SHZ[1]	/* ShiftZoneByLastPoint */
PUSHW[ ]	/* 2 values pushed */
56 -64 
SHPIX[ ]	/* ShiftZoneByPixel */
EIF[ ]	/* EndIf */";
};
width = 798;
}
);
note = percent;
unicode = 37;
},
{
glyphname = leftArrow;
lastChange = "2024-04-11 14:32:07 +0000";
layers = (
{
layerId = "6F9C6BB4-2DCF-443B-A55D-9CE049090094";
shapes = (
{
closed = 1;
nodes = (
(36,344,l),
(36,296,l),
(615,296,l),
(625,312,o),
(625,328,o),
(615,344,c)
);
},
{
closed = 1;
nodes = (
(-16,319,l),
(342,69,l),
(361,77,o),
(369,91,o),
(368,109,c),
(66,319,l),
(368,529,l),
(369,548,o),
(361,562,o),
(342,569,c)
);
}
);
width = 640;
}
);
unicode = 8592;
},
{
glyphname = dottedCircle;
lastChange = "2024-04-11 12:56:10 +0000";
layers = (
{
layerId = "6F9C6BB4-2DCF-443B-A55D-9CE049090094";
shapes = (
{
closed = 1;
nodes = (
(595,-3,o),
(753,155,o),
(753,349,cs),
(753,542,o),
(595,700,o),
(402,700,cs),
(208,700,o),
(50,542,o),
(50,349,cs),
(50,155,o),
(208,-3,o),
(402,-3,cs)
);
}
);
width = 803;
}
);
unicode = 9676;
},
{
glyphname = dotaccentcomb;
lastChange = "2024-04-11 12:56:10 +0000";
layers = (
{
anchors = (
{
name = _top;
pos = (30,360);
},
{
name = top;
pos = (30,545);
}
);
background = {
shapes = (
{
closed = 1;
nodes = (
(48,461,o),
(59,474,o),
(59,503,cs),
(59,529,o),
(48,545,o),
(29,545,cs),
(11,545,o),
(0,531,o),
(0,503,cs),
(0,476,o),
(10,461,o),
(29,461,cs)
);
}
);
};
layerId = "6F9C6BB4-2DCF-443B-A55D-9CE049090094";
shapes = (
{
closed = 0;
nodes = (
(29,539,l),
(29,487,l)
);
},
{
closed = 1;
nodes = (
(51,463,o),
(64,479,o),
(64,513,cs),
(64,544,o),
(51,563,o),
(29,563,cs),
(8,563,o),
(-5,546,o),
(-5,513,cs),
(-5,481,o),
(6,463,o),
(29,463,cs)
);
}
);
width = 59;
}
);
unicode = 775;
},
{
glyphname = grave;
lastChange = "2024-04-11 12:56:10 +0000";
layers = (
{
layerId = "6F9C6BB4-2DCF-443B-A55D-9CE049090094";
shapes = (
{
closed = 1;
nodes = (
(36,621,l),
(15,620,o),
(5,608,o),
(4,587,c),
(122,467,l),
(143,468,o),
(153,480,o),
(154,501,c)
);
}
);
width = 158;
}
);
unicode = 96;
},
{
glyphname = acute;
lastChange = "2024-04-11 12:56:10 +0000";
layers = (
{
background = {
shapes = (
{
pos = (-259,0);
ref = a;
},
{
attr = {
lineCapEnd = "1";
lineCapStart = "1";
};
closed = 0;
nodes = (
(20,484,l),
(138,604,l)
);
}
);
};
layerId = "6F9C6BB4-2DCF-443B-A55D-9CE049090094";
shapes = (
{
closed = 1;
nodes = (
(4,501,l),
(5,480,o),
(15,468,o),
(36,467,c),
(154,587,l),
(153,608,o),
(143,620,o),
(122,621,c)
);
}
);
width = 158;
}
);
unicode = 180;
},
{
glyphname = circumflex;
lastChange = "2024-04-11 12:56:10 +0000";
layers = (
{
layerId = "6F9C6BB4-2DCF-443B-A55D-9CE049090094";
shapes = (
{
attr = {
identifier = ID0x7fa2c539d010;
};
closed = 1;
nodes = (
(70,676,l),
(126,676,l),
(-18,499,l),
(-13,479,o),
(-1,469,o),
(18,469,c),
(126,602,l),
(79,591,l),
(178,469,l),
(197,469,o),
(209,479,o),
(214,499,c)
);
}
);
width = 196;
}
);
unicode = 710;
},
{
glyphname = breve;
lastChange = "2024-04-11 12:56:10 +0000";
layers = (
{
layerId = "6F9C6BB4-2DCF-443B-A55D-9CE049090094";
shapes = (
{
closed = 1;
nodes = (
(233,544,o),
(186,497,o),
(129,497,cs),
(70,497,o),
(23,544,o),
(23,602,c),
(8,612,o),
(-8,612,o),
(-23,602,c),
(-23,518,o),
(46,449,o),
(129,449,cs),
(210,449,o),
(279,518,o),
(279,602,c),
(264,612,o),
(248,612,o),
(233,602,c)
);
}
);
width = 256;
}
);
unicode = 728;
},
{
glyphname = ring;
lastChange = "2024-04-11 12:56:10 +0000";
layers = (
{
layerId = "6F9C6BB4-2DCF-443B-A55D-9CE049090094";
shapes = (
{
closed = 1;
nodes = (
(32,693,o),
(-23,638,o),
(-23,571,cs),
(-23,504,o),
(32,449,o),
(98,449,cs),
(164,449,o),
(219,504,o),
(219,571,cs),
(219,638,o),
(164,693,o),
(98,693,cs)
);
},
{
closed = 1;
nodes = (
(140,645,o),
(173,612,o),
(173,571,cs),
(173,530,o),
(140,497,o),
(98,497,cs),
(56,497,o),
(23,530,o),
(23,571,cs),
(23,612,o),
(56,645,o),
(98,645,cs)
);
}
);
width = 196;
}
);
unicode = 730;
},
{
glyphname = tilde;
lastChange = "2024-04-11 12:56:10 +0000";
layers = (
{
background = {
shapes = (
{
attr = {
lineCapEnd = "1";
lineCapStart = "1";
};
closed = 0;
nodes = (
(25,507,l),
(44,539,o),
(54,558,o),
(92,558,cs),
(139,558,o),
(185,498,o),
(235,498,cs),
(270,498,o),
(281,521,o),
(300,550,c)
);
}
);
};
layerId = "6F9C6BB4-2DCF-443B-A55D-9CE049090094";
shapes = (
{
closed = 1;
nodes = (
(254,532,o),
(250,522,o),
(231,522,cs),
(193,522,o),
(150,582,o),
(95,582,cs),
(46,582,o),
(31,550,o),
(13,519,c),
(16,501,o),
(30,493,o),
(53,495,c),
(71,528,o),
(74,534,o),
(95,534,cs),
(127,534,o),
(176,474,o),
(231,474,cs),
(274,474,o),
(289,501,o),
(312,537,c),
(309,556,o),
(297,564,o),
(274,563,c)
);
}
);
width = 325;
}
);
unicode = 732;
},
{
glyphname = macron;
lastChange = "2024-04-11 12:56:10 +0000";
layers = (
{
layerId = "6F9C6BB4-2DCF-443B-A55D-9CE049090094";
shapes = (
{
closed = 1;
nodes = (
(0,524,l),
(-10,508,o),
(-10,492,o),
(0,476,c),
(260,476,l),
(270,492,o),
(270,508,o),
(260,524,c)
);
}
);
width = 260;
}
);
unicode = 175;
},
{
glyphname = cedilla;
lastChange = "2024-04-11 12:56:10 +0000";
layers = (
{
background = {
shapes = (
{
pos = (-153,0);
ref = c;
}
);
};
layerId = "6F9C6BB4-2DCF-443B-A55D-9CE049090094";
shapes = (
{
closed = 1;
nodes = (
(114,-76,o),
(155,4,o),
(184,81,c),
(174,96,o),
(160,102,o),
(140,97,c),
(113,24,o),
(76,-48,o),
(3,-123,c),
(2,-144,o),
(14,-156,o),
(37,-157,c)
);
}
);
width = 182;
}
);
unicode = 184;
},
{
glyphname = ogonek;
lastChange = "2024-04-11 12:56:10 +0000";
layers = (
{
layerId = "6F9C6BB4-2DCF-443B-A55D-9CE049090094";
shapes = (
{
closed = 1;
nodes = (
(73,-202,o),
(55,-192,o),
(55,-175,cs),
(55,-133,o),
(115,-52,o),
(173,-21,c),
(151,21,l),
(81,-16,o),
(9,-112,o),
(9,-175,cs),
(9,-227,o),
(52,-257,o),
(143,-234,c),
(149,-215,o),
(145,-199,o),
(131,-188,c)
);
}
);
width = 300;
}
);
unicode = 731;
},
{
export = 0;
glyphname = _part.bucle;
lastChange = "2024-04-11 14:20:26 +0000";
layers = (
{
background = {
shapes = (
{
attr = {
lineCapEnd = 1;
lineCapStart = 1;
};
closed = 0;
nodes = (
(286,355,l),
(257,361,o),
(220,364,o),
(194,364,cs),
(88,364,o),
(17,311,o),
(17,180,cs),
(17,42,o),
(81,-5,o),
(150,-5,cs),
(214,-5,o),
(278,50,o),
(288,150,c)
);
},
{
closed = 1;
nodes = (
(255,64,o),
(202,19,o),
(150,19,cs),
(92,19,o),
(40,58,o),
(40,180,cs),
(40,296,o),
(98,340,o),
(194,340,cs),
(230,340,o),
(283,335,o),
(311,322,c),
(311,373,l),
(313,372,l),
(280,383,o),
(228,388,o),
(194,388,cs),
(78,388,o),
(-6,326,o),
(-6,180,cs),
(-6,26,o),
(70,-29,o),
(150,-29,cs),
(226,-29,o),
(301,36,o),
(311,150,c),
(265,150,l)
);
}
);
};
layerId = "6F9C6BB4-2DCF-443B-A55D-9CE049090094";
shapes = (
{
closed = 1;
nodes = (
(272,79,o),
(210,19,o),
(150,19,cs),
(92,19,o),
(40,58,o),
(40,180,cs),
(40,296,o),
(98,340,o),
(194,340,cs),
(230,340,o),
(283,335,o),
(311,322,c),
(311,373,l),
(278,383,o),
(228,388,o),
(194,388,cs),
(78,388,o),
(-6,326,o),
(-6,180,cs),
(-6,26,o),
(70,-29,o),
(150,-29,cs),
(226,-29,o),
(301,36,o),
(311,150,c),
(220,170,l),
(266,194,l)
);
}
);
width = 296;
}
);
},
{
export = 0;
glyphname = _part.n.ground;
lastChange = "2024-04-11 12:56:10 +0000";
layers = (
{
background = {
shapes = (
{
closed = 0;
nodes = (
(11,191,l),
(7,305,o),
(55,360,o),
(109,360,cs),
(168,360,o),
(201,316,o),
(201,227,cs),
(201,100,ls),
(201,30,o),
(224,0,o),
(254,0,c)
);
}
);
};
guides = (
{
angle = 80.8858;
pos = (15,214);
}
);
layerId = "6F9C6BB4-2DCF-443B-A55D-9CE049090094";
shapes = (
{
closed = 0;
nodes = (
(201,191,l),
(206,305,o),
(249,360,o),
(303,360,cs),
(362,360,o),
(395,316,o),
(395,227,cs),
(395,100,ls),
(395,30,o),
(418,0,o),
(448,0,c)
);
},
{
closed = 0;
nodes = (
(201,0,l),
(201,227,ls),
(201,316,o),
(183,360,o),
(127,360,cs),
(45,360,o),
(26,281,o),
(0,150,c)
);
}
);
width = 448;
}
);
},
{
export = 0;
glyphname = _part.n.init;
lastChange = "2024-04-11 12:56:10 +0000";
layers = (
{
guides = (
{
angle = 65.4752;
pos = (32,113);
}
);
layerId = "6F9C6BB4-2DCF-443B-A55D-9CE049090094";
shapes = (
{
closed = 0;
nodes = (
(25,100,l),
(68,193,o),
(82,360,o),
(147,360,cs)
);
}
);
width = 147;
}
);
},
{
export = 0;
glyphname = _part.n.tr.entra.largo;
lastChange = "2024-04-11 12:56:10 +0000";
layers = (
{
layerId = "6F9C6BB4-2DCF-443B-A55D-9CE049090094";
shapes = (
{
closed = 0;
nodes = (
(0,0,l),
(48,174,o),
(77,360,o),
(142,360,cs)
);
}
);
width = 142;
}
);
},
{
export = 0;
glyphname = _part.n.tr.entra.sale.medio.alto;
lastChange = "2024-04-11 12:56:10 +0000";
layers = (
{
background = {
shapes = (
{
closed = 0;
nodes = (
(0,0,l),
(33,0,o),
(76,33,o),
(106,100,cs)
);
}
);
};
guides = (
{
angle = 260.5377;
pos = (101,120);
}
);
layerId = "6F9C6BB4-2DCF-443B-A55D-9CE049090094";
shapes = (
{
closed = 0;
nodes = (
(106,237,ls),
(87,101,o),
(34,0,o),
(0,0,c)
);
}
);
width = 106;
}
);
},
{
export = 0;
glyphname = _arco1;
lastChange = "2024-04-11 12:56:10 +0000";
layers = (
{
background = {
shapes = (
{
closed = 0;
nodes = (
(-30,360,ls),
(34,360,o),
(69,327,o),
(69,237,cs),
(69,0,ls)
);
}
);
};
layerId = "6F9C6BB4-2DCF-443B-A55D-9CE049090094";
shapes = (
{
closed = 1;
nodes = (
(102,257,ls),
(102,346,o),
(70,384,o),
(0,384,c),
(-10,368,o),
(-10,352,o),
(0,336,c),
(44,336,o),
(56,320,o),
(56,257,cs),
(56,-19,l),
(71,-29,o),
(87,-29,o),
(102,-19,c)
);
}
);
width = 79;
}
);
},
{
export = 0;
glyphname = _arco2;
lastChange = "2024-04-11 12:56:10 +0000";
layers = (
{
background = {
shapes = (
{
attr = {
lineCapEnd = "1";
lineCapStart = "1";
};
closed = 0;
nodes = (
(0,171,l),
(6,305,o),
(76,360,o),
(135,360,cs),
(199,360,o),
(234,327,o),
(234,237,cs),
(234,0,ls)
);
}
);
};
layerId = "6F9C6BB4-2DCF-443B-A55D-9CE049090094";
shapes = (
{
closed = 1;
nodes = (
(257,237,ls),
(257,341,o),
(211,384,o),
(135,384,cs),
(68,384,o),
(-16,343,o),
(-23,202,c),
(23,200,l),
(28,307,o),
(84,336,o),
(135,336,cs),
(187,336,o),
(211,313,o),
(211,237,cs),
(211,-19,l),
(226,-29,o),
(242,-29,o),
(257,-19,c)
);
}
);
width = 234;
}
);
},
{
export = 0;
glyphname = _arco3;
lastChange = "2024-04-11 12:56:10 +0000";
layers = (
{
background = {
shapes = (
{
attr = {
lineCapEnd = 1;
lineCapStart = 1;
};
closed = 0;
nodes = (
(0,171,l),
(6,305,o),
(76,360,o),
(135,360,cs),
(199,360,o),
(234,327,o),
(234,237,cs),
(234,150,l)
);
},
{
pos = (234,0);
ref = _conect.right;
},
{
pos = (313,0);
ref = _conect.left;
}
);
};
layerId = "6F9C6BB4-2DCF-443B-A55D-9CE049090094";
shapes = (
{
closed = 1;
nodes = (
(257,237,ls),
(257,341,o),
(211,384,o),
(135,384,cs),
(68,384,o),
(-16,343,o),
(-23,202,c),
(23,200,l),
(28,307,o),
(84,336,o),
(135,336,cs),
(187,336,o),
(211,313,o),
(211,237,cs),
(211,180,l),
(226,170,o),
(242,170,o),
(257,180,c)
);
}
);
width = 234;
}
);
},
{
export = 0;
glyphname = _arco_v;
lastChange = "2024-04-11 12:56:10 +0000";
layers = (
{
background = {
shapes = (
{
closed = 0;
nodes = (
(0,-5,l),
(187,-5,o),
(111,360,o),
(290,360,cs)
);
}
);
};
layerId = "6F9C6BB4-2DCF-443B-A55D-9CE049090094";
shapes = (
{
closed = 1;
nodes = (
(162,384,o),
(172,19,o),
(0,19,c),
(-10,3,o),
(-10,-13,o),
(0,-29,c),
(198,-29,o),
(223,336,o),
(290,336,c),
(300,352,o),
(300,368,o),
(290,384,c)
);
}
);
width = 290;
}
);
},
{
export = 0;
glyphname = _entra_s;
lastChange = "2024-04-11 12:56:10 +0000";
layers = (
{
background = {
shapes = (
{
ref = _conect.left;
},
{
attr = {
identifier = ID0x7fc21b80f700;
};
closed = 1;
nodes = (
(161,183,o),
(140,19,o),
(0,19,c),
(-10,3,o),
(-10,-13,o),
(0,-29,c),
(169,-29,o),
(202,151,o),
(258,354,c),
(226,408,l)
);
}
);
};
layerId = "6F9C6BB4-2DCF-443B-A55D-9CE049090094";
shapes = (
{
attr = {
identifier = ID0x7fc21b80f700;
};
closed = 1;
nodes = (
(161,173,o),
(140,19,o),
(0,19,c),
(-10,3,o),
(-10,-13,o),
(0,-29,c),
(169,-29,o),
(202,151,o),
(258,354,c),
(226,398,l)
);
}
);
width = 236;
}
);
},
{
export = 0;
glyphname = _final;
lastChange = "2024-04-11 12:56:10 +0000";
layers = (
{
layerId = "6F9C6BB4-2DCF-443B-A55D-9CE049090094";
shapes = (
{
attr = {
identifier = ID0x7f8322cab0f0;
};
closed = 1;
nodes = (
(92,53,o),
(58,19,o),
(0,19,c),
(-10,3,o),
(-10,-13,o),
(0,-29,c),
(86,-29,o),
(138,29,o),
(146,93,c),
(131,103,o),
(115,103,o),
(100,93,c)
);
}
);
width = 123;
}
);
},
{
export = 0;
glyphname = _a.base;
lastChange = "2024-04-11 12:56:10 +0000";
layers = (
{
anchors = (
{
name = top;
pos = (178,360);
}
);
background = {
shapes = (
{
attr = {
identifier = ID0x7f7de989f3a0;
lineCapEnd = "1";
lineCapStart = "1";
};
closed = 0;
nodes = (
(271,357,l),
(271,150,l)
);
}
);
};
layerId = "6F9C6BB4-2DCF-443B-A55D-9CE049090094";
shapes = (
{
alignment = -1;
pos = (-17,0);
ref = _part.bucle;
},
{
attr = {
identifier = ID0x7f7de989f3a0;
};
closed = 1;
nodes = (
(294,363,l),
(248,363,l),
(248,150,l),
(294,150,l)
);
}
);
width = 271;
}
);
},
{
export = 0;
glyphname = _arco.h;
lastChange = "2024-04-11 12:56:10 +0000";
layers = (
{
background = {
shapes = (
{
attr = {
identifier = ID0x7f8325d1e2e0;
lineCapEnd = "1";
lineCapStart = "1";
};
closed = 0;
nodes = (
(128,150,l),
(128,267,ls),
(128,327,o),
(106,360,o),
(67,360,cs),
(8,360,o),
(-95,257,o),
(-127,180,c)
);
}
);
};
layerId = "6F9C6BB4-2DCF-443B-A55D-9CE049090094";
shapes = (
{
attr = {
identifier = ID0x7f8325d1e2e0;
};
closed = 1;
nodes = (
(-82,215,ls),
(-45,281,o),
(24,335,o),
(68,335,cs),
(90,335,o),
(105,318,o),
(105,267,cs),
(105,150,l),
(151,150,l),
(151,267,ls),
(151,347,o),
(116,383,o),
(68,383,cs),
(4,383,o),
(-78,317,o),
(-122,239,cs),
(-147,195,l),
(-107,171,l)
);
}
);
width = 128;
}
);
},
{
export = 0;
glyphname = _arco.v;
lastChange = "2024-04-11 12:56:10 +0000";
layers = (
{
layerId = "6F9C6BB4-2DCF-443B-A55D-9CE049090094";
shapes = (
{
attr = {
identifier = ID0x7fe6d54ed9c0;
};
closed = 1;
nodes = (
(26,336,o),
(27,325,o),
(27,237,cs),
(27,150,l),
(42,140,o),
(58,140,o),
(73,150,c),
(73,237,ls),
(73,336,o),
(67,384,o),
(0,384,c),
(-10,368,o),
(-10,352,o),
(0,336,c)
);
}
);
width = 50;
}
);
},
{
export = 0;
glyphname = _arcos.w;
lastChange = "2024-04-11 12:56:10 +0000";
layers = (
{
background = {
shapes = (
{
pos = (-110,0);
ref = v;
}
);
};
layerId = "6F9C6BB4-2DCF-443B-A55D-9CE049090094";
shapes = (
{
attr = {
identifier = ID0x7f88630096e0;
};
closed = 1;
nodes = (
(-23,44,o),
(-4,-30,o),
(88,-30,cs),
(203,-30,o),
(283,124,o),
(283,210,cs),
(283,378,l),
(268,388,o),
(252,388,o),
(237,378,c),
(237,210,ls),
(237,142,o),
(171,18,o),
(88,18,cs),
(34,18,o),
(23,54,o),
(23,150,c),
(8,160,o),
(-8,160,o),
(-23,150,c)
);
},
{
attr = {
identifier = ID0x7fdbcacde340;
};
closed = 1;
nodes = (
(331,19,o),
(282,75,o),
(282,190,c),
(236,190,l),
(236,49,o),
(303,-29,o),
(391,-29,c),
(401,-13,o),
(401,3,o),
(391,19,c)
);
}
);
width = 391;
}
);
},
{
export = 0;
glyphname = _brazo.b;
lastChange = "2024-04-11 12:56:10 +0000";
layers = (
{
background = {
shapes = (
{
attr = {
identifier = ID0x7fdbca0add30;
lineCapEnd = "1";
lineCapStart = "1";
};
closed = 0;
nodes = (
(-69,323,l),
(-36,303,o),
(48,268,o),
(98,268,cs)
);
}
);
};
layerId = "6F9C6BB4-2DCF-443B-A55D-9CE049090094";
shapes = (
{
attr = {
identifier = ID0x7fd5a626cf40;
};
closed = 1;
nodes = (
(43,292,o),
(-26,325,o),
(-58,344,c),
(-61,347,o),
(-66,348,o),
(-70,348,cs),
(-83,348,o),
(-94,337,o),
(-94,324,cs),
(-94,315,o),
(-89,308,o),
(-82,304,cs),
(-46,281,o),
(33,244,o),
(118,244,c),
(128,260,o),
(128,276,o),
(118,292,c)
);
}
);
width = 118;
}
);
},
{
export = 0;
glyphname = _bucle.ascendente;
lastChange = "2024-04-11 12:56:10 +0000";
layers = (
{
background = {
shapes = (
{
closed = 0;
nodes = (
(6,164,l),
(42,236,o),
(120,445,o),
(118,570,cs),
(117,645,o),
(97,701,o),
(44,701,cs),
(-10,701,o),
(-42,610,o),
(-40,502,cs),
(-36,293,o),
(7,-5,o),
(161,-5,c)
);
}
);
};
layerId = "6F9C6BB4-2DCF-443B-A55D-9CE049090094";
shapes = (
{
closed = 1;
nodes = (
(-62,381,o),
(-34,209,o),
(-12,149,c),
(0,139,o),
(12,139,o),
(24,146,c),
(71,234,o),
(140,463,o),
(140,605,cs),
(140,687,o),
(115,755,o),
(44,755,cs),
(-39,755,o),
(-62,637,o),
(-62,515,cs)
);
},
{
closed = 1;
nodes = (
(-16,627,o),
(4,707,o),
(44,707,cs),
(79,707,o),
(94,672,o),
(94,605,cs),
(94,490,o),
(45,301,o),
(3,201,c),
(17,201,l),
(0,276,o),
(-16,411,o),
(-16,515,cs)
);
}
);
width = 161;
}
);
},
{
export = 0;
glyphname = _bucle.decendente;
lastChange = "2024-04-11 12:56:10 +0000";
layers = (
{
background = {
shapes = (
{
attr = {
identifier = ID0x7fe6d54b4b70;
lineCapEnd = "1";
lineCapStart = "1";
};
closed = 0;
nodes = (
(0,360,l),
(0,-110,ls),
(0,-291,o),
(-1,-353,o),
(-53,-353,cs),
(-115,-353,o),
(-143,-254,o),
(-115,-166,cs),
(-89,-83,o),
(-36,-43,o),
(18,-2,cs),
(76,41,o),
(134,85,o),
(159,181,cs)
);
}
);
};
layerId = "6F9C6BB4-2DCF-443B-A55D-9CE049090094";
shapes = (
{
attr = {
identifier = ID0x7fe6d54b4b70;
};
closed = 1;
nodes = (
(-47,-46,o),
(-162,-97,o),
(-162,-278,cs),
(-162,-338,o),
(-136,-397,o),
(-69,-397,cs),
(3,-397,o),
(23,-319,o),
(23,-129,cs),
(23,368,l),
(-23,368,l),
(-23,-129,ls),
(-23,-302,o),
(-39,-349,o),
(-69,-349,cs),
(-102,-349,o),
(-116,-322,o),
(-116,-278,cs),
(-116,-136,o),
(-36,-94,o),
(103,-26,c),
(113,-9,o),
(113,9,o),
(103,26,c)
);
}
);
width = 103;
}
);
},
{
export = 0;
glyphname = _c.base;
lastChange = "2024-04-11 12:56:10 +0000";
layers = (
{
background = {
shapes = (
{
attr = {
identifier = ID0x7fba9c16c3a0;
lineCapEnd = 1;
lineCapStart = 1;
};
closed = 0;
nodes = (
(204,344,l),
(134,383,o),
(0,367,o),
(0,175,cs),
(0,60,o),
(58,-5,o),
(194,-5,cs),
(217,-5,l)
);
}
);
};
layerId = "6F9C6BB4-2DCF-443B-A55D-9CE049090094";
shapes = (
{
attr = {
identifier = ID0x7fba9c16c3a0;
};
closed = 1;
nodes = (
(80,19,o),
(24,98,o),
(24,177,cs),
(24,264,o),
(61,339,o),
(136,339,cs),
(157,339,o),
(176,333,o),
(192,323,c),
(210,330,o),
(218,344,o),
(216,365,c),
(194,377,o),
(165,387,o),
(136,387,cs),
(27,387,o),
(-22,280,o),
(-22,177,cs),
(-22,75,o),
(50,-29,o),
(251,-29,c),
(261,-13,o),
(261,3,o),
(251,19,c)
);
}
);
width = 251;
}
);
},
{
export = 0;
glyphname = _conect.left;
lastChange = "2024-04-11 12:56:10 +0000";
layers = (
{
background = {
shapes = (
{
closed = 0;
nodes = (
(0,-5,l),
(79,-5,o),
(145,48,o),
(160,180,c)
);
}
);
};
layerId = "6F9C6BB4-2DCF-443B-A55D-9CE049090094";
shapes = (
{
closed = 1;
nodes = (
(141,92,o),
(85,19,o),
(0,19,c),
(-10,3,o),
(-10,-13,o),
(0,-29,c),
(103,-29,o),
(173,52,o),
(183,180,c),
(92,180,l),
(140,222,l)
);
}
);
width = 160;
}
);
},
{
export = 0;
glyphname = _conect.right;
lastChange = "2024-04-11 15:07:19 +0000";
layers = (
{
background = {
shapes = (
{
attr = {
identifier = ID0x7f8322cab0f0;
lineCapEnd = "1";
lineCapStart = "1";
};
closed = 0;
nodes = (
(110,150,l),
(110,42,o),
(141,-5,o),
(211,-5,c)
);
}
);
};
layerId = "6F9C6BB4-2DCF-443B-A55D-9CE049090094";
shapes = (
{
closed = 1;
nodes = (
(58,19,o),
(23,60,o),
(23,180,c),
(-23,180,l),
(-23,33,o),
(31,-29,o),
(120,-29,c),
(131,-13,o),
(131,3,o),
(120,19,c)
);
}
);
width = 120;
}
);
},
{
export = 0;
glyphname = _d.base;
lastChange = "2024-04-11 12:56:10 +0000";
layers = (
{
layerId = "6F9C6BB4-2DCF-443B-A55D-9CE049090094";
shapes = (
{
ref = _a.base;
},
{
attr = {
identifier = ID0x7fb9850b6300;
};
closed = 1;
nodes = (
(294,731,l),
(248,731,l),
(248,363,l),
(294,363,l)
);
}
);
width = 271;
}
);
},
{
export = 0;
glyphname = _e.base;
lastChange = "2024-04-11 12:56:10 +0000";
layers = (
{
anchors = (
{
name = top;
pos = (11,364);
}
);
background = {
shapes = (
{
attr = {
identifier = ID0x7f9d1baad8f0;
lineCapEnd = "1";
lineCapStart = "1";
};
closed = 0;
nodes = (
(0,55,l),
(127,162,o),
(132,364,o),
(21,364,cs),
(-106,364,o),
(-123,-5,o),
(155,-5,cs)
);
}
);
};
layerId = "6F9C6BB4-2DCF-443B-A55D-9CE049090094";
shapes = (
{
attr = {
identifier = ID0x7f9d1baad8f0;
};
closed = 1;
nodes = (
(-103,19,o),
(-73,340,o),
(21,340,cs),
(104,340,o),
(99,169,o),
(-15,73,c),
(15,37,l),
(154,154,o),
(162,388,o),
(21,388,cs),
(-135,388,o),
(-166,-29,o),
(185,-29,c),
(195,-13,o),
(195,3,o),
(185,19,c)
);
}
);
width = 185;
}
);
},
